<svg width="296" height="248" viewBox="0 0 296 248" fill="none" xmlns="http://www.w3.org/2000/svg">
<rect y="0.00561523" width="296" height="247.113" fill="#D9D9D9"/>
<rect x="23" y="69.0737" width="253" height="100.561" fill="#BDBDBD" stroke="black" stroke-width="2"/>
<line x1="22" y1="118.854" x2="277" y2="118.854" stroke="black"/>
<line y1="-0.5" x2="255.001" y2="-0.5" transform="matrix(0.999995 0.00322907 -0.00729751 0.999973 22 146.109)" stroke="black"/>
<path d="M39.476 109.572V98.6629H46.8268V100.565H41.7824V103.164H46.4486V105.066H41.7824V107.67H46.8481V109.572H39.476ZM48.2451 100.565V98.6629H57.2046V100.565H53.8647V109.572H51.5849V100.565H48.2451ZM58.6801 109.572V98.6629H60.9866V103.164H65.6687V98.6629H67.9699V109.572H65.6687V105.066H60.9866V109.572H58.6801ZM69.8715 109.572V98.6629H77.2223V100.565H72.178V103.164H76.8441V105.066H72.178V107.67H77.2437V109.572H69.8715ZM79.0561 109.572V98.6629H83.36C84.1839 98.6629 84.887 98.8103 85.4694 99.105C86.0554 99.3962 86.501 99.8099 86.8064 100.346C87.1154 100.879 87.2698 101.506 87.2698 102.226C87.2698 102.951 87.1136 103.574 86.8011 104.096C86.4886 104.615 86.0358 105.012 85.4428 105.289C84.8533 105.566 84.1395 105.705 83.3014 105.705H80.4197V103.851H82.9286C83.3689 103.851 83.7347 103.791 84.0259 103.67C84.3171 103.549 84.5337 103.368 84.6757 103.127C84.8213 102.885 84.8941 102.585 84.8941 102.226C84.8941 101.864 84.8213 101.559 84.6757 101.31C84.5337 101.062 84.3153 100.874 84.0206 100.746C83.7294 100.614 83.3618 100.549 82.9179 100.549H81.3625V109.572H79.0561ZM84.9474 104.608L87.6587 109.572H85.1125L82.4598 104.608H84.9474ZM90.1835 109.711C89.832 109.711 89.5301 109.586 89.278 109.338C89.0294 109.086 88.9051 108.784 88.9051 108.432C88.9051 108.084 89.0294 107.786 89.278 107.537C89.5301 107.289 89.832 107.164 90.1835 107.164C90.5245 107.164 90.8228 107.289 91.0784 107.537C91.3341 107.786 91.462 108.084 91.462 108.432C91.462 108.666 91.4016 108.881 91.2809 109.077C91.1637 109.268 91.0092 109.423 90.8174 109.54C90.6257 109.654 90.4144 109.711 90.1835 109.711ZM93.3676 109.572V98.6629H100.591V100.565H95.6741V103.164H100.111V105.066H95.6741V109.572H93.3676ZM104.448 98.6629V109.572H102.142V98.6629H104.448Z" fill="black"/>
<path d="M39.9482 126.19H42.7926L45.7969 133.519H45.9247L48.929 126.19H51.7734V137.099H49.5362V129.998H49.4457L46.6225 137.046H45.0991L42.2759 129.972H42.1854V137.099H39.9482V126.19ZM53.6737 137.099V126.19H61.0246V128.091H55.9802V130.691H60.6464V132.592H55.9802V135.197H61.0459V137.099H53.6737ZM62.4428 128.091V126.19H71.4023V128.091H68.0625V137.099H65.7827V128.091H62.4428ZM73.4252 137.099H70.9536L74.7195 126.19H77.6919L81.4525 137.099H78.9809L76.2483 128.683H76.1631L73.4252 137.099ZM73.2707 132.811H79.1088V134.611H73.2707V132.811ZM86.2372 137.099V126.19H90.5412C91.3686 126.19 92.0735 126.348 92.6559 126.664C93.2383 126.976 93.6822 127.411 93.9876 127.969C94.2965 128.523 94.451 129.162 94.451 129.887C94.451 130.611 94.2947 131.25 93.9822 131.804C93.6697 132.358 93.217 132.79 92.6239 133.099C92.0344 133.407 91.3207 133.562 90.4826 133.562H87.7393V131.714H90.1097C90.5536 131.714 90.9194 131.637 91.207 131.485C91.4982 131.328 91.7148 131.113 91.8569 130.84C92.0025 130.563 92.0753 130.245 92.0753 129.887C92.0753 129.524 92.0025 129.208 91.8569 128.938C91.7148 128.665 91.4982 128.454 91.207 128.304C90.9158 128.152 90.5465 128.075 90.0991 128.075H88.5437V137.099H86.2372ZM105.974 131.644C105.974 132.834 105.748 133.846 105.297 134.681C104.85 135.515 104.239 136.152 103.465 136.593C102.695 137.03 101.828 137.248 100.866 137.248C99.8962 137.248 99.0262 137.028 98.2556 136.588C97.485 136.147 96.876 135.51 96.4285 134.675C95.9811 133.841 95.7574 132.83 95.7574 131.644C95.7574 130.455 95.9811 129.443 96.4285 128.608C96.876 127.774 97.485 127.138 98.2556 126.701C99.0262 126.261 99.8962 126.041 100.866 126.041C101.828 126.041 102.695 126.261 103.465 126.701C104.239 127.138 104.85 127.774 105.297 128.608C105.748 129.443 105.974 130.455 105.974 131.644ZM103.636 131.644C103.636 130.874 103.52 130.224 103.289 129.695C103.062 129.166 102.741 128.764 102.325 128.491C101.91 128.217 101.423 128.081 100.866 128.081C100.308 128.081 99.8216 128.217 99.4062 128.491C98.9907 128.764 98.6675 129.166 98.4367 129.695C98.2094 130.224 98.0958 130.874 98.0958 131.644C98.0958 132.415 98.2094 133.065 98.4367 133.594C98.6675 134.123 98.9907 134.524 99.4062 134.798C99.8216 135.071 100.308 135.208 100.866 135.208C101.423 135.208 101.91 135.071 102.325 134.798C102.741 134.524 103.062 134.123 103.289 133.594C103.52 133.065 103.636 132.415 103.636 131.644ZM117.707 131.644C117.707 132.834 117.482 133.846 117.031 134.681C116.583 135.515 115.973 136.152 115.199 136.593C114.428 137.03 113.561 137.248 112.599 137.248C111.63 137.248 110.76 137.028 109.989 136.588C109.218 136.147 108.609 135.51 108.162 134.675C107.714 133.841 107.491 132.83 107.491 131.644C107.491 130.455 107.714 129.443 108.162 128.608C108.609 127.774 109.218 127.138 109.989 126.701C110.76 126.261 111.63 126.041 112.599 126.041C113.561 126.041 114.428 126.261 115.199 126.701C115.973 127.138 116.583 127.774 117.031 128.608C117.482 129.443 117.707 130.455 117.707 131.644ZM115.369 131.644C115.369 130.874 115.254 130.224 115.023 129.695C114.795 129.166 114.474 128.764 114.059 128.491C113.643 128.217 113.157 128.081 112.599 128.081C112.042 128.081 111.555 128.217 111.14 128.491C110.724 128.764 110.401 129.166 110.17 129.695C109.943 130.224 109.829 130.874 109.829 131.644C109.829 132.415 109.943 133.065 110.17 133.594C110.401 134.123 110.724 134.524 111.14 134.798C111.555 135.071 112.042 135.208 112.599 135.208C113.157 135.208 113.643 135.071 114.059 134.798C114.474 134.524 114.795 134.123 115.023 133.594C115.254 133.065 115.369 132.415 115.369 131.644ZM119.416 137.099V126.19H121.722V135.197H126.399V137.099H119.416Z" fill="black"/>
<path d="M45.8661 155.339C45.8235 154.909 45.6406 154.575 45.3175 154.338C44.9943 154.1 44.5558 153.981 44.0018 153.981C43.6254 153.981 43.3075 154.034 43.0483 154.14C42.7891 154.243 42.5902 154.387 42.4517 154.572C42.3168 154.757 42.2493 154.966 42.2493 155.2C42.2422 155.396 42.283 155.566 42.3718 155.712C42.4641 155.857 42.5902 155.983 42.75 156.09C42.9098 156.193 43.0945 156.284 43.304 156.362C43.5135 156.436 43.7372 156.5 43.9751 156.553L44.9553 156.788C45.4311 156.894 45.8679 157.036 46.2656 157.214C46.6634 157.391 47.0078 157.61 47.299 157.869C47.5902 158.128 47.8157 158.434 47.9755 158.785C48.1388 159.137 48.2223 159.54 48.2259 159.994C48.2223 160.662 48.0518 161.241 47.7145 161.731C47.3807 162.217 46.8977 162.596 46.2656 162.866C45.6371 163.132 44.8789 163.265 43.9911 163.265C43.1104 163.265 42.3434 163.13 41.69 162.86C41.0401 162.59 40.5323 162.191 40.1665 161.662C39.8043 161.129 39.6143 160.47 39.5966 159.686H41.8285C41.8533 160.051 41.9581 160.357 42.1428 160.602C42.331 160.843 42.5813 161.026 42.8938 161.15C43.2099 161.271 43.5668 161.331 43.9645 161.331C44.3551 161.331 44.6942 161.275 44.9819 161.161C45.2731 161.047 45.4986 160.889 45.6584 160.687C45.8182 160.485 45.8981 160.252 45.8981 159.989C45.8981 159.744 45.8253 159.538 45.6797 159.371C45.5376 159.204 45.3281 159.062 45.0511 158.945C44.7777 158.828 44.4421 158.721 44.0444 158.626L42.8565 158.327C41.9368 158.103 41.2106 157.754 40.6779 157.278C40.1452 156.802 39.8807 156.161 39.8842 155.355C39.8807 154.694 40.0565 154.117 40.4116 153.624C40.7702 153.13 41.2621 152.745 41.8871 152.468C42.5121 152.191 43.2223 152.052 44.0178 152.052C44.8274 152.052 45.5341 152.191 46.1378 152.468C46.745 152.745 47.2173 153.13 47.5547 153.624C47.892 154.117 48.0661 154.689 48.0767 155.339H45.8661ZM52.2329 163.111L49.1114 152.202H51.6309L53.4367 159.781H53.5273L55.5194 152.202H57.6768L59.6636 159.797H59.7595L61.5653 152.202H64.0848L60.9633 163.111H58.7155L56.6381 155.978H56.5528L54.4807 163.111H52.2329ZM65.3192 163.111V152.202H72.6701V154.103H67.6257V156.703H72.2919V158.604H67.6257V161.209H72.6914V163.111H65.3192ZM74.5038 163.111V152.202H76.8103V161.209H81.4871V163.111H74.5038ZM83.0146 163.111V152.202H85.321V161.209H89.9979V163.111H83.0146ZM104.122 152.202V163.111H102.129L97.3833 156.244H97.3034V163.111H94.997V152.202H97.0211L101.73 159.062H101.826V152.202H104.122ZM106.027 163.111V152.202H113.378V154.103H108.334V156.703H113V158.604H108.334V161.209H113.399V163.111H106.027ZM114.796 154.103V152.202H123.756V154.103H120.416V163.111H118.136V154.103H114.796ZM127.687 163.111L124.566 152.202H127.085L128.891 159.781H128.981L130.974 152.202H133.131L135.118 159.797H135.214L137.019 152.202H139.539L136.417 163.111H134.17L132.092 155.978H132.007L129.935 163.111H127.687ZM150.183 157.656C150.183 158.846 149.957 159.858 149.506 160.692C149.059 161.527 148.448 162.164 147.674 162.605C146.903 163.041 146.037 163.26 145.075 163.26C144.105 163.26 143.235 163.04 142.465 162.599C141.694 162.159 141.085 161.521 140.638 160.687C140.19 159.852 139.966 158.842 139.966 157.656C139.966 156.466 140.19 155.454 140.638 154.62C141.085 153.785 141.694 153.15 142.465 152.713C143.235 152.273 144.105 152.052 145.075 152.052C146.037 152.052 146.903 152.273 147.674 152.713C148.448 153.15 149.059 153.785 149.506 154.62C149.957 155.454 150.183 156.466 150.183 157.656ZM147.845 157.656C147.845 156.885 147.729 156.236 147.498 155.706C147.271 155.177 146.95 154.776 146.534 154.503C146.119 154.229 145.632 154.092 145.075 154.092C144.517 154.092 144.031 154.229 143.615 154.503C143.2 154.776 142.877 155.177 142.646 155.706C142.418 156.236 142.305 156.885 142.305 157.656C142.305 158.427 142.418 159.077 142.646 159.606C142.877 160.135 143.2 160.536 143.615 160.809C144.031 161.083 144.517 161.22 145.075 161.22C145.632 161.22 146.119 161.083 146.534 160.809C146.95 160.536 147.271 160.135 147.498 159.606C147.729 159.077 147.845 158.427 147.845 157.656ZM151.892 163.111V152.202H156.195C157.019 152.202 157.722 152.349 158.305 152.644C158.891 152.935 159.336 153.349 159.642 153.885C159.951 154.417 160.105 155.044 160.105 155.765C160.105 156.49 159.949 157.113 159.637 157.635C159.324 158.153 158.871 158.551 158.278 158.828C157.689 159.105 156.975 159.243 156.137 159.243H153.255V157.39H155.764C156.204 157.39 156.57 157.329 156.861 157.209C157.153 157.088 157.369 156.907 157.511 156.665C157.657 156.424 157.73 156.124 157.73 155.765C157.73 155.403 157.657 155.097 157.511 154.849C157.369 154.6 157.151 154.412 156.856 154.284C156.565 154.153 156.197 154.087 155.753 154.087H154.198V163.111H151.892ZM157.783 158.146L160.494 163.111H157.948L155.295 158.146H157.783ZM161.735 163.111V152.202H164.042V157.012H164.186L168.111 152.202H170.876L166.828 157.086L170.924 163.111H168.165L165.176 158.626L164.042 160.01V163.111H161.735Z" fill="black"/>
<rect x="23" y="57.0681" width="253" height="31.0151" rx="15.5075" fill="#C4BAC6" stroke="black" stroke-width="2"/>
<path d="M47.4137 69.8432H45.4215C45.3647 69.5165 45.2599 69.2271 45.1072 68.9749C44.9545 68.7193 44.7646 68.5026 44.5373 68.3251C44.31 68.1475 44.0508 68.0144 43.7596 67.9256C43.4719 67.8333 43.1612 67.7871 42.8274 67.7871C42.2344 67.7871 41.7088 67.9362 41.2507 68.2345C40.7926 68.5293 40.4339 68.9625 40.1747 69.5342C39.9155 70.1024 39.7859 70.7967 39.7859 71.617C39.7859 72.4515 39.9155 73.1546 40.1747 73.7264C40.4375 74.2945 40.7962 74.7242 41.2507 75.0154C41.7088 75.3031 42.2326 75.4469 42.8221 75.4469C43.1488 75.4469 43.4542 75.4043 43.7383 75.319C44.0259 75.2303 44.2834 75.1007 44.5107 74.9302C44.7415 74.7597 44.935 74.5502 45.0913 74.3016C45.2511 74.0531 45.3612 73.769 45.4215 73.4494L47.4137 73.46C47.3391 73.9785 47.1776 74.465 46.929 74.9195C46.6839 75.3741 46.3626 75.7754 45.9648 76.1234C45.5671 76.4678 45.1019 76.7377 44.5692 76.933C44.0366 77.1248 43.4453 77.2207 42.7955 77.2207C41.8366 77.2207 40.9808 76.9987 40.228 76.5548C39.4751 76.111 38.8821 75.47 38.4489 74.6319C38.0156 73.7938 37.799 72.7889 37.799 71.617C37.799 70.4416 38.0174 69.4366 38.4542 68.6021C38.891 67.764 39.4858 67.123 40.2386 66.6791C40.9915 66.2352 41.8438 66.0133 42.7955 66.0133C43.4027 66.0133 43.9673 66.0985 44.4893 66.269C45.0114 66.4394 45.4766 66.6898 45.8849 67.02C46.2933 67.3467 46.6289 67.748 46.8917 68.2239C47.158 68.6962 47.332 69.236 47.4137 69.8432ZM49.2235 77.0715V66.1624H51.1997V70.7807H56.2547V66.1624H58.2362V77.0715H56.2547V72.4373H51.1997V77.0715H49.2235ZM70.1334 71.617C70.1334 72.7924 69.9133 73.7992 69.4729 74.6372C69.0361 75.4717 68.4395 76.111 67.6831 76.5548C66.9303 76.9987 66.0763 77.2207 65.121 77.2207C64.1657 77.2207 63.3099 76.9987 62.5535 76.5548C61.8007 76.1074 61.2041 75.4664 60.7638 74.6319C60.327 73.7938 60.1086 72.7889 60.1086 71.617C60.1086 70.4416 60.327 69.4366 60.7638 68.6021C61.2041 67.764 61.8007 67.123 62.5535 66.6791C63.3099 66.2352 64.1657 66.0133 65.121 66.0133C66.0763 66.0133 66.9303 66.2352 67.6831 66.6791C68.4395 67.123 69.0361 67.764 69.4729 68.6021C69.9133 69.4366 70.1334 70.4416 70.1334 71.617ZM68.1466 71.617C68.1466 70.7896 68.017 70.0918 67.7577 69.5236C67.502 68.9519 67.1469 68.5204 66.6924 68.2292C66.2378 67.9345 65.714 67.7871 65.121 67.7871C64.528 67.7871 64.0042 67.9345 63.5496 68.2292C63.0951 68.5204 62.7382 68.9519 62.479 69.5236C62.2233 70.0918 62.0954 70.7896 62.0954 71.617C62.0954 72.4444 62.2233 73.144 62.479 73.7157C62.7382 74.2839 63.0951 74.7154 63.5496 75.0101C64.0042 75.3013 64.528 75.4469 65.121 75.4469C65.714 75.4469 66.2378 75.3013 66.6924 75.0101C67.1469 74.7154 67.502 74.2839 67.7577 73.7157C68.017 73.144 68.1466 72.4444 68.1466 71.617ZM81.7496 71.617C81.7496 72.7924 81.5295 73.7992 81.0891 74.6372C80.6523 75.4717 80.0558 76.111 79.2994 76.5548C78.5465 76.9987 77.6925 77.2207 76.7372 77.2207C75.782 77.2207 74.9261 76.9987 74.1697 76.5548C73.4169 76.1074 72.8203 75.4664 72.38 74.6319C71.9432 73.7938 71.7248 72.7889 71.7248 71.617C71.7248 70.4416 71.9432 69.4366 72.38 68.6021C72.8203 67.764 73.4169 67.123 74.1697 66.6791C74.9261 66.2352 75.782 66.0133 76.7372 66.0133C77.6925 66.0133 78.5465 66.2352 79.2994 66.6791C80.0558 67.123 80.6523 67.764 81.0891 68.6021C81.5295 69.4366 81.7496 70.4416 81.7496 71.617ZM79.7628 71.617C79.7628 70.7896 79.6332 70.0918 79.3739 69.5236C79.1183 68.9519 78.7631 68.5204 78.3086 68.2292C77.854 67.9345 77.3303 67.7871 76.7372 67.7871C76.1442 67.7871 75.6204 67.9345 75.1658 68.2292C74.7113 68.5204 74.3544 68.9519 74.0952 69.5236C73.8395 70.0918 73.7116 70.7896 73.7116 71.617C73.7116 72.4444 73.8395 73.144 74.0952 73.7157C74.3544 74.2839 74.7113 74.7154 75.1658 75.0101C75.6204 75.3013 76.1442 75.4469 76.7372 75.4469C77.3303 75.4469 77.854 75.3013 78.3086 75.0101C78.7631 74.7154 79.1183 74.2839 79.3739 73.7157C79.6332 73.144 79.7628 72.4444 79.7628 71.617ZM89.5466 69.1614C89.4969 68.6962 89.2874 68.334 88.9181 68.0747C88.5523 67.8155 88.0764 67.6859 87.4905 67.6859C87.0786 67.6859 86.7252 67.748 86.4305 67.8723C86.1357 67.9966 85.9102 68.1653 85.754 68.3784C85.5977 68.5914 85.5178 68.8347 85.5143 69.1081C85.5143 69.3354 85.5658 69.5325 85.6688 69.6994C85.7753 69.8663 85.9191 70.0083 86.1002 70.1255C86.2813 70.2391 86.482 70.335 86.7021 70.4132C86.9223 70.4913 87.1443 70.557 87.368 70.6102L88.3907 70.8659C88.8026 70.9618 89.1986 71.0914 89.5786 71.2548C89.9621 71.4181 90.3048 71.6241 90.6066 71.8727C90.912 72.1212 91.1535 72.4213 91.3311 72.7729C91.5086 73.1244 91.5974 73.5364 91.5974 74.0087C91.5974 74.6479 91.434 75.2107 91.1073 75.6972C90.7806 76.1802 90.3083 76.5584 89.6904 76.8318C89.0761 77.1017 88.3321 77.2367 87.4585 77.2367C86.6098 77.2367 85.873 77.1053 85.248 76.8425C84.6265 76.5797 84.14 76.1962 83.7884 75.6919C83.4404 75.1877 83.2522 74.5733 83.2238 73.8489H85.1681C85.1965 74.2288 85.3137 74.5449 85.5196 74.797C85.7256 75.0492 85.9937 75.2374 86.324 75.3617C86.6578 75.486 87.0306 75.5481 87.4426 75.5481C87.8722 75.5481 88.2487 75.4842 88.5718 75.3563C88.8985 75.2249 89.1542 75.0438 89.3389 74.813C89.5235 74.5786 89.6176 74.3052 89.6212 73.9927C89.6176 73.7086 89.5342 73.4742 89.3708 73.2896C89.2075 73.1014 88.9784 72.9451 88.6837 72.8208C88.3925 72.693 88.0516 72.5793 87.661 72.4799L86.4198 72.1603C85.5214 71.9295 84.8112 71.5797 84.2892 71.111C83.7707 70.6386 83.5115 70.0119 83.5115 69.2306C83.5115 68.5879 83.6855 68.025 84.0335 67.5421C84.385 67.0591 84.8627 66.6845 85.4664 66.4181C86.07 66.1482 86.7536 66.0133 87.5171 66.0133C88.2913 66.0133 88.9695 66.1482 89.5519 66.4181C90.1379 66.6845 90.5977 67.0556 90.9316 67.5314C91.2654 68.0037 91.4376 68.547 91.4482 69.1614H89.5466ZM93.3592 77.0715V66.1624H100.454V67.819H95.3354V70.7807H100.087V72.4373H95.3354V75.4149H100.497V77.0715H93.3592ZM106.191 77.0715V66.1624H110.282C111.12 66.1624 111.823 66.3187 112.392 66.6312C112.963 66.9437 113.395 67.3734 113.686 67.9203C113.981 68.4636 114.128 69.0815 114.128 69.7739C114.128 70.4735 113.981 71.095 113.686 71.6383C113.391 72.1816 112.956 72.6095 112.381 72.922C111.806 73.231 111.097 73.3855 110.256 73.3855H107.544V71.7608H109.989C110.479 71.7608 110.881 71.6756 111.193 71.5051C111.506 71.3347 111.736 71.1003 111.885 70.802C112.038 70.5037 112.115 70.161 112.115 69.7739C112.115 69.3869 112.038 69.046 111.885 68.7512C111.736 68.4565 111.504 68.2274 111.188 68.0641C110.875 67.8972 110.472 67.8137 109.979 67.8137H108.167V77.0715H106.191ZM115.845 77.0715V66.1624H119.935C120.774 66.1624 121.477 66.308 122.045 66.5992C122.617 66.8904 123.048 67.2988 123.339 67.8244C123.634 68.3464 123.781 68.9554 123.781 69.6514C123.781 70.351 123.632 70.9583 123.334 71.4732C123.039 71.9845 122.604 72.3805 122.029 72.661C121.454 72.938 120.747 73.0765 119.909 73.0765H116.995V71.4359H119.642C120.133 71.4359 120.534 71.3684 120.846 71.2335C121.159 71.095 121.39 70.8943 121.539 70.6315C121.691 70.3652 121.768 70.0385 121.768 69.6514C121.768 69.2644 121.691 68.9341 121.539 68.6607C121.386 68.3837 121.153 68.1742 120.841 68.0321C120.528 67.8865 120.125 67.8137 119.632 67.8137H117.821V77.0715H115.845ZM121.48 72.1284L124.181 77.0715H121.976L119.323 72.1284H121.48ZM135.348 71.617C135.348 72.7924 135.128 73.7992 134.688 74.6372C134.251 75.4717 133.654 76.111 132.898 76.5548C132.145 76.9987 131.291 77.2207 130.336 77.2207C129.381 77.2207 128.525 76.9987 127.768 76.5548C127.016 76.1074 126.419 75.4664 125.979 74.6319C125.542 73.7938 125.323 72.7889 125.323 71.617C125.323 70.4416 125.542 69.4366 125.979 68.6021C126.419 67.764 127.016 67.123 127.768 66.6791C128.525 66.2352 129.381 66.0133 130.336 66.0133C131.291 66.0133 132.145 66.2352 132.898 66.6791C133.654 67.123 134.251 67.764 134.688 68.6021C135.128 69.4366 135.348 70.4416 135.348 71.617ZM133.361 71.617C133.361 70.7896 133.232 70.0918 132.973 69.5236C132.717 68.9519 132.362 68.5204 131.907 68.2292C131.453 67.9345 130.929 67.7871 130.336 67.7871C129.743 67.7871 129.219 67.9345 128.764 68.2292C128.31 68.5204 127.953 68.9519 127.694 69.5236C127.438 70.0918 127.31 70.7896 127.31 71.617C127.31 72.4444 127.438 73.144 127.694 73.7157C127.953 74.2839 128.31 74.7154 128.764 75.0101C129.219 75.3013 129.743 75.4469 130.336 75.4469C130.929 75.4469 131.453 75.3013 131.907 75.0101C132.362 74.7154 132.717 74.2839 132.973 73.7157C133.232 73.144 133.361 72.4444 133.361 71.617ZM138.09 66.1624L140.929 74.7491H141.041L143.875 66.1624H146.048L142.202 77.0715H139.763L135.922 66.1624H138.09ZM149.461 66.1624V77.0715H147.485V66.1624H149.461ZM155.298 77.0715H151.601V66.1624H155.373C156.456 66.1624 157.386 66.3808 158.164 66.8176C158.945 67.2509 159.545 67.8741 159.964 68.6873C160.383 69.5005 160.593 70.4735 160.593 71.6063C160.593 72.7427 160.382 73.7193 159.959 74.536C159.54 75.3528 158.934 75.9796 158.143 76.4163C157.354 76.8531 156.406 77.0715 155.298 77.0715ZM153.578 75.3617H155.202C155.962 75.3617 156.596 75.2232 157.104 74.9462C157.612 74.6656 157.993 74.2484 158.249 73.6944C158.505 73.1369 158.633 72.4409 158.633 71.6063C158.633 70.7718 158.505 70.0793 158.249 69.5289C157.993 68.9749 157.615 68.5612 157.115 68.2878C156.617 68.0108 155.999 67.8723 155.261 67.8723H153.578V75.3617ZM162.471 77.0715V66.1624H169.566V67.819H164.447V70.7807H169.198V72.4373H164.447V75.4149H169.608V77.0715H162.471ZM171.582 77.0715V66.1624H175.673C176.511 66.1624 177.214 66.308 177.782 66.5992C178.354 66.8904 178.785 67.2988 179.077 67.8244C179.371 68.3464 179.519 68.9554 179.519 69.6514C179.519 70.351 179.369 70.9583 179.071 71.4732C178.776 71.9845 178.341 72.3805 177.766 72.661C177.191 72.938 176.484 73.0765 175.646 73.0765H172.732V71.4359H175.38C175.87 71.4359 176.271 71.3684 176.584 71.2335C176.896 71.095 177.127 70.8943 177.276 70.6315C177.429 70.3652 177.505 70.0385 177.505 69.6514C177.505 69.2644 177.429 68.9341 177.276 68.6607C177.123 68.3837 176.891 68.1742 176.578 68.0321C176.266 67.8865 175.863 67.8137 175.369 67.8137H173.558V77.0715H171.582ZM177.218 72.1284L179.918 77.0715H177.713L175.06 72.1284H177.218Z" fill="black"/>
<path d="M222.413 67H240.587C241.844 67 242.473 68.9122 241.583 70.0329L232.499 81.4797C231.949 82.1734 231.051 82.1734 230.501 81.4797L221.417 70.0329C220.527 68.9122 221.156 67 222.413 67Z" fill="black"/>
</svg>
