<svg width="296" height="248" viewBox="0 0 296 248" fill="none" xmlns="http://www.w3.org/2000/svg">
<rect width="296" height="247.113" fill="#D9D9D9"/>
<rect x="44" y="140.947" width="212" height="40.0192" rx="20.0096" fill="#BDBDBD" stroke="black" stroke-width="2"/>
<path d="M104.381 154.588V166.952H101.767V157.069H101.695L98.8633 158.844V156.526L101.924 154.588H104.381ZM112.167 167.223C111.129 167.219 110.235 166.964 109.487 166.457C108.742 165.95 108.169 165.215 107.766 164.253C107.368 163.291 107.171 162.134 107.175 160.782C107.175 159.434 107.374 158.285 107.772 157.335C108.175 156.385 108.748 155.663 109.493 155.168C110.241 154.669 111.133 154.419 112.167 154.419C113.201 154.419 114.091 154.669 114.835 155.168C115.584 155.667 116.16 156.391 116.562 157.341C116.965 158.287 117.164 159.434 117.16 160.782C117.16 162.138 116.958 163.297 116.556 164.259C116.158 165.221 115.586 165.956 114.842 166.463C114.097 166.97 113.206 167.223 112.167 167.223ZM112.167 165.056C112.876 165.056 113.441 164.7 113.864 163.988C114.286 163.275 114.495 162.207 114.491 160.782C114.491 159.844 114.395 159.063 114.202 158.44C114.012 157.816 113.743 157.347 113.393 157.033C113.047 156.719 112.638 156.562 112.167 156.562C111.463 156.562 110.899 156.914 110.477 157.619C110.054 158.323 109.841 159.377 109.837 160.782C109.837 161.732 109.931 162.525 110.121 163.16C110.314 163.792 110.585 164.267 110.936 164.585C111.286 164.899 111.696 165.056 112.167 165.056ZM123.871 167.223C122.833 167.219 121.939 166.964 121.191 166.457C120.446 165.95 119.873 165.215 119.47 164.253C119.072 163.291 118.875 162.134 118.879 160.782C118.879 159.434 119.078 158.285 119.476 157.335C119.879 156.385 120.452 155.663 121.197 155.168C121.945 154.669 122.837 154.419 123.871 154.419C124.906 154.419 125.795 154.669 126.54 155.168C127.288 155.667 127.864 156.391 128.266 157.341C128.669 158.287 128.868 159.434 128.864 160.782C128.864 162.138 128.663 163.297 128.26 164.259C127.862 165.221 127.29 165.956 126.546 166.463C125.801 166.97 124.91 167.223 123.871 167.223ZM123.871 165.056C124.58 165.056 125.145 164.7 125.568 163.988C125.99 163.275 126.2 162.207 126.195 160.782C126.195 159.844 126.099 159.063 125.906 158.44C125.717 157.816 125.447 157.347 125.097 157.033C124.751 156.719 124.342 156.562 123.871 156.562C123.167 156.562 122.604 156.914 122.181 157.619C121.758 158.323 121.545 159.377 121.541 160.782C121.541 161.732 121.636 162.525 121.825 163.16C122.018 163.792 122.29 164.267 122.64 164.585C122.99 164.899 123.4 165.056 123.871 165.056ZM135.575 167.223C134.537 167.219 133.644 166.964 132.895 166.457C132.15 165.95 131.577 165.215 131.174 164.253C130.776 163.291 130.579 162.134 130.583 160.782C130.583 159.434 130.782 158.285 131.18 157.335C131.583 156.385 132.156 155.663 132.901 155.168C133.65 154.669 134.541 154.419 135.575 154.419C136.61 154.419 137.499 154.669 138.244 155.168C138.992 155.667 139.568 156.391 139.97 157.341C140.373 158.287 140.572 159.434 140.568 160.782C140.568 162.138 140.367 163.297 139.964 164.259C139.566 165.221 138.994 165.956 138.25 166.463C137.505 166.97 136.614 167.223 135.575 167.223ZM135.575 165.056C136.284 165.056 136.849 164.7 137.272 163.988C137.694 163.275 137.904 162.207 137.9 160.782C137.9 159.844 137.803 159.063 137.61 158.44C137.421 157.816 137.151 157.347 136.801 157.033C136.455 156.719 136.046 156.562 135.575 156.562C134.871 156.562 134.308 156.914 133.885 157.619C133.462 158.323 133.249 159.377 133.245 160.782C133.245 161.732 133.34 162.525 133.529 163.16C133.722 163.792 133.994 164.267 134.344 164.585C134.694 164.899 135.104 165.056 135.575 165.056ZM158.01 154.588H160.624V162.617C160.624 163.519 160.409 164.307 159.978 164.984C159.552 165.66 158.954 166.187 158.185 166.565C157.416 166.94 156.521 167.127 155.499 167.127C154.472 167.127 153.575 166.94 152.806 166.565C152.038 166.187 151.44 165.66 151.013 164.984C150.587 164.307 150.373 163.519 150.373 162.617V154.588H152.987V162.394C152.987 162.865 153.09 163.283 153.295 163.649C153.505 164.016 153.798 164.303 154.177 164.513C154.555 164.722 154.996 164.827 155.499 164.827C156.006 164.827 156.447 164.722 156.821 164.513C157.199 164.303 157.491 164.016 157.696 163.649C157.905 163.283 158.01 162.865 158.01 162.394V154.588ZM169.482 158.144C169.434 157.657 169.226 157.278 168.86 157.009C168.494 156.739 167.997 156.604 167.369 156.604C166.942 156.604 166.582 156.665 166.288 156.785C165.994 156.902 165.769 157.065 165.612 157.274C165.459 157.484 165.383 157.721 165.383 157.987C165.375 158.208 165.421 158.401 165.522 158.566C165.626 158.731 165.769 158.874 165.95 158.995C166.131 159.112 166.341 159.214 166.578 159.303C166.815 159.387 167.069 159.46 167.339 159.52L168.449 159.786C168.989 159.907 169.484 160.068 169.935 160.269C170.385 160.47 170.776 160.718 171.106 161.011C171.436 161.305 171.691 161.651 171.872 162.05C172.058 162.448 172.152 162.905 172.156 163.42C172.152 164.177 171.959 164.833 171.577 165.388C171.198 165.939 170.651 166.368 169.935 166.674C169.222 166.976 168.363 167.127 167.357 167.127C166.359 167.127 165.489 166.974 164.749 166.668C164.012 166.362 163.437 165.909 163.022 165.31C162.612 164.706 162.396 163.959 162.376 163.07H164.906C164.934 163.484 165.053 163.831 165.262 164.108C165.475 164.382 165.759 164.589 166.113 164.73C166.471 164.867 166.876 164.935 167.327 164.935C167.769 164.935 168.154 164.871 168.48 164.742C168.81 164.613 169.065 164.434 169.246 164.205C169.427 163.975 169.518 163.712 169.518 163.414C169.518 163.136 169.436 162.903 169.271 162.714C169.11 162.525 168.872 162.364 168.558 162.231C168.248 162.098 167.868 161.977 167.417 161.869L166.071 161.53C165.029 161.277 164.206 160.881 163.602 160.341C162.998 159.802 162.698 159.075 162.702 158.162C162.698 157.413 162.898 156.759 163.3 156.2C163.706 155.64 164.264 155.204 164.972 154.89C165.681 154.576 166.485 154.419 167.387 154.419C168.305 154.419 169.105 154.576 169.79 154.89C170.478 155.204 171.013 155.64 171.396 156.2C171.778 156.759 171.975 157.407 171.987 158.144H169.482ZM178.297 166.952H173.914V154.588H178.333C179.577 154.588 180.648 154.836 181.545 155.331C182.443 155.822 183.133 156.528 183.616 157.45C184.103 158.371 184.346 159.474 184.346 160.758C184.346 162.046 184.103 163.152 183.616 164.078C183.133 165.004 182.439 165.714 181.533 166.209C180.632 166.704 179.553 166.952 178.297 166.952ZM176.528 164.712H178.189C178.961 164.712 179.611 164.575 180.138 164.301C180.67 164.024 181.068 163.595 181.334 163.016C181.603 162.432 181.738 161.679 181.738 160.758C181.738 159.844 181.603 159.098 181.334 158.518C181.068 157.939 180.672 157.512 180.145 157.238C179.617 156.965 178.967 156.828 178.195 156.828H176.528V164.712ZM185.247 156.743V154.588H195.401V156.743H191.616V166.952H189.032V156.743H185.247Z" fill="black"/>
<path d="M98 170.332H196.005V171.491H98V170.332Z" fill="black"/>
<path d="M206.284 155.149V154.135H211.062V155.149H209.281V159.953H208.065V155.149H206.284ZM216.93 157.044C216.93 157.678 216.81 158.218 216.57 158.663C216.331 159.108 216.005 159.448 215.592 159.683C215.181 159.916 214.719 160.032 214.206 160.032C213.689 160.032 213.225 159.915 212.814 159.68C212.403 159.445 212.078 159.105 211.839 158.66C211.601 158.215 211.482 157.676 211.482 157.044C211.482 156.409 211.601 155.87 211.839 155.424C212.078 154.979 212.403 154.64 212.814 154.407C213.225 154.173 213.689 154.055 214.206 154.055C214.719 154.055 215.181 154.173 215.592 154.407C216.005 154.64 216.331 154.979 216.57 155.424C216.81 155.87 216.93 156.409 216.93 157.044ZM215.683 157.044C215.683 156.633 215.622 156.286 215.499 156.004C215.377 155.722 215.206 155.508 214.984 155.362C214.763 155.216 214.503 155.143 214.206 155.143C213.909 155.143 213.649 155.216 213.428 155.362C213.206 155.508 213.034 155.722 212.911 156.004C212.789 156.286 212.729 156.633 212.729 157.044C212.729 157.455 212.789 157.801 212.911 158.084C213.034 158.366 213.206 158.58 213.428 158.726C213.649 158.871 213.909 158.944 214.206 158.944C214.503 158.944 214.763 158.871 214.984 158.726C215.206 158.58 215.377 158.366 215.499 158.084C215.622 157.801 215.683 157.455 215.683 157.044ZM217.354 155.149V154.135H222.133V155.149H220.352V159.953H219.136V155.149H217.354ZM223.212 159.953H221.893L223.902 154.135H225.487L227.493 159.953H226.175L224.717 155.464H224.672L223.212 159.953ZM223.129 157.666H226.243V158.626H223.129V157.666ZM228.193 159.953V154.135H229.423V158.939H231.918V159.953H228.193ZM206.506 169.953V164.135H208.835C209.263 164.135 209.62 164.198 209.906 164.325C210.192 164.452 210.407 164.628 210.551 164.853C210.695 165.077 210.767 165.335 210.767 165.626C210.767 165.853 210.722 166.053 210.631 166.226C210.54 166.396 210.415 166.536 210.256 166.646C210.098 166.754 209.919 166.831 209.716 166.876V166.933C209.938 166.942 210.145 167.005 210.338 167.12C210.533 167.236 210.691 167.398 210.812 167.606C210.934 167.813 210.994 168.059 210.994 168.345C210.994 168.654 210.918 168.929 210.764 169.172C210.613 169.412 210.388 169.603 210.091 169.743C209.794 169.883 209.427 169.953 208.991 169.953H206.506ZM207.736 168.947H208.739C209.081 168.947 209.331 168.882 209.489 168.751C209.646 168.619 209.724 168.442 209.724 168.223C209.724 168.062 209.686 167.92 209.608 167.797C209.53 167.674 209.42 167.577 209.276 167.507C209.134 167.437 208.964 167.402 208.767 167.402H207.736V168.947ZM207.736 166.569H208.648C208.816 166.569 208.966 166.54 209.097 166.481C209.229 166.421 209.333 166.335 209.409 166.226C209.487 166.116 209.526 165.984 209.526 165.831C209.526 165.62 209.451 165.451 209.301 165.322C209.153 165.193 208.943 165.129 208.67 165.129H207.736V166.569ZM212.798 169.953H211.479L213.488 164.135H215.073L217.079 169.953H215.761L214.303 165.464H214.258L212.798 169.953ZM212.715 167.666H215.829V168.626H212.715V167.666ZM217.779 169.953V164.135H219.009V168.939H221.504V169.953H217.779ZM223.469 169.953H222.151L224.16 164.135H225.745L227.751 169.953H226.433L224.975 165.464H224.93L223.469 169.953ZM223.387 167.666H226.501V168.626H223.387V167.666ZM233.317 164.135V169.953H232.255L229.724 166.291H229.681V169.953H228.451V164.135H229.531L232.042 167.794H232.093V164.135H233.317ZM239.467 166.172H238.223C238.2 166.011 238.154 165.868 238.084 165.743C238.014 165.616 237.924 165.508 237.814 165.419C237.704 165.33 237.577 165.262 237.433 165.214C237.291 165.167 237.137 165.143 236.97 165.143C236.669 165.143 236.407 165.218 236.183 165.368C235.96 165.515 235.786 165.731 235.663 166.015C235.54 166.298 235.479 166.64 235.479 167.044C235.479 167.459 235.54 167.807 235.663 168.089C235.788 168.371 235.963 168.585 236.186 168.728C236.41 168.872 236.668 168.944 236.962 168.944C237.126 168.944 237.279 168.923 237.419 168.879C237.561 168.835 237.687 168.772 237.797 168.689C237.907 168.603 237.998 168.5 238.07 168.379C238.143 168.258 238.195 168.12 238.223 167.964L239.467 167.97C239.435 168.237 239.355 168.495 239.226 168.743C239.099 168.989 238.928 169.21 238.712 169.405C238.498 169.598 238.242 169.751 237.945 169.865C237.649 169.977 237.315 170.032 236.942 170.032C236.423 170.032 235.959 169.915 235.55 169.68C235.143 169.445 234.821 169.105 234.584 168.66C234.349 168.215 234.232 167.676 234.232 167.044C234.232 166.409 234.351 165.87 234.589 165.424C234.828 164.979 235.152 164.64 235.561 164.407C235.97 164.173 236.43 164.055 236.942 164.055C237.279 164.055 237.591 164.103 237.879 164.197C238.169 164.292 238.426 164.43 238.649 164.612C238.873 164.792 239.054 165.013 239.195 165.274C239.337 165.535 239.428 165.835 239.467 166.172ZM240.349 169.953V164.135H244.27V165.149H241.58V166.535H244.068V167.549H241.58V168.939H244.281V169.953H240.349Z" fill="black"/>
<rect x="45" y="63.9473" width="208" height="58.0274" rx="29.0137" fill="#BDBDBD" stroke="black" stroke-width="2"/>
<path d="M119.918 76.6045H116.185C116.116 76.1215 115.977 75.6926 115.767 75.3176C115.557 74.9369 115.287 74.613 114.957 74.346C114.628 74.0789 114.247 73.8744 113.815 73.7323C113.389 73.5903 112.926 73.5193 112.426 73.5193C111.523 73.5193 110.736 73.7437 110.065 74.1926C109.395 74.6357 108.875 75.2835 108.506 76.1357C108.136 76.9823 107.952 78.0107 107.952 79.221C107.952 80.4653 108.136 81.5107 108.506 82.3573C108.881 83.2039 109.403 83.8431 110.074 84.2749C110.744 84.7068 111.52 84.9227 112.401 84.9227C112.895 84.9227 113.352 84.8573 113.773 84.7267C114.199 84.596 114.577 84.4056 114.906 84.1556C115.236 83.8999 115.509 83.5903 115.724 83.2267C115.946 82.863 116.099 82.4482 116.185 81.9823L119.918 81.9994C119.821 82.8005 119.58 83.5732 119.193 84.3176C118.813 85.0562 118.298 85.7181 117.651 86.3034C117.009 86.8829 116.241 87.3431 115.349 87.684C114.463 88.0193 113.46 88.1869 112.341 88.1869C110.784 88.1869 109.392 87.8346 108.165 87.1301C106.943 86.4255 105.977 85.4056 105.267 84.0704C104.562 82.7352 104.21 81.1187 104.21 79.221C104.21 77.3176 104.568 75.6982 105.284 74.363C106 73.0278 106.972 72.0107 108.199 71.3119C109.426 70.6073 110.807 70.2551 112.341 70.2551C113.352 70.2551 114.29 70.3971 115.153 70.6812C116.023 70.9653 116.793 71.3801 117.463 71.9255C118.134 72.4653 118.679 73.1272 119.099 73.9113C119.526 74.6954 119.798 75.5931 119.918 76.6045ZM138.604 79.221C138.604 81.1244 138.243 82.7437 137.521 84.0789C136.805 85.4142 135.828 86.434 134.589 87.1386C133.357 87.8374 131.97 88.1869 130.43 88.1869C128.879 88.1869 127.487 87.8346 126.254 87.1301C125.021 86.4255 124.047 85.4056 123.331 84.0704C122.615 82.7352 122.257 81.1187 122.257 79.221C122.257 77.3176 122.615 75.6982 123.331 74.363C124.047 73.0278 125.021 72.0107 126.254 71.3119C127.487 70.6073 128.879 70.2551 130.43 70.2551C131.97 70.2551 133.357 70.6073 134.589 71.3119C135.828 72.0107 136.805 73.0278 137.521 74.363C138.243 75.6982 138.604 77.3176 138.604 79.221ZM134.862 79.221C134.862 77.988 134.678 76.9482 134.308 76.1017C133.945 75.2551 133.43 74.613 132.766 74.1755C132.101 73.738 131.322 73.5193 130.43 73.5193C129.538 73.5193 128.76 73.738 128.095 74.1755C127.43 74.613 126.913 75.2551 126.544 76.1017C126.18 76.9482 125.999 77.988 125.999 79.221C125.999 80.4539 126.18 81.4937 126.544 82.3403C126.913 83.1869 127.43 83.8289 128.095 84.2664C128.76 84.7039 129.538 84.9227 130.43 84.9227C131.322 84.9227 132.101 84.7039 132.766 84.2664C133.43 83.8289 133.945 83.1869 134.308 82.3403C134.678 81.4937 134.862 80.4539 134.862 79.221ZM155.937 70.4937V87.9482H152.749L145.156 76.9624H145.028V87.9482H141.337V70.4937H144.576L152.11 81.471H152.263V70.4937H155.937ZM173.585 70.4937V87.9482H170.398L162.804 76.9624H162.676V87.9482H158.986V70.4937H162.224L169.759 81.471H169.912V70.4937H173.585ZM176.634 87.9482V70.4937H188.396V73.5363H180.325V77.6954H187.79V80.738H180.325V84.9056H188.43V87.9482H176.634ZM206.73 76.6045H202.997C202.929 76.1215 202.79 75.6926 202.58 75.3176C202.369 74.9369 202.099 74.613 201.77 74.346C201.44 74.0789 201.06 73.8744 200.628 73.7323C200.202 73.5903 199.739 73.5193 199.239 73.5193C198.335 73.5193 197.548 73.7437 196.878 74.1926C196.207 74.6357 195.688 75.2835 195.318 76.1357C194.949 76.9823 194.764 78.0107 194.764 79.221C194.764 80.4653 194.949 81.5107 195.318 82.3573C195.693 83.2039 196.216 83.8431 196.886 84.2749C197.557 84.7068 198.332 84.9227 199.213 84.9227C199.707 84.9227 200.165 84.8573 200.585 84.7267C201.011 84.596 201.389 84.4056 201.719 84.1556C202.048 83.8999 202.321 83.5903 202.537 83.2267C202.759 82.863 202.912 82.4482 202.997 81.9823L206.73 81.9994C206.634 82.8005 206.392 83.5732 206.006 84.3176C205.625 85.0562 205.111 85.7181 204.463 86.3034C203.821 86.8829 203.054 87.3431 202.162 87.684C201.276 88.0193 200.273 88.1869 199.153 88.1869C197.597 88.1869 196.205 87.8346 194.977 87.1301C193.756 86.4255 192.79 85.4056 192.08 84.0704C191.375 82.7352 191.023 81.1187 191.023 79.221C191.023 77.3176 191.381 75.6982 192.097 74.363C192.813 73.0278 193.784 72.0107 195.011 71.3119C196.239 70.6073 197.619 70.2551 199.153 70.2551C200.165 70.2551 201.102 70.3971 201.966 70.6812C202.835 70.9653 203.605 71.3801 204.276 71.9255C204.946 72.4653 205.491 73.1272 205.912 73.9113C206.338 74.6954 206.611 75.5931 206.73 76.6045ZM208.712 73.5363V70.4937H223.047V73.5363H217.703V87.9482H214.055V73.5363H208.712ZM108.446 116.948L103.452 99.4937H107.483L110.372 111.622H110.517L113.705 99.4937H117.156L120.335 111.647H120.489L123.378 99.4937H127.409L122.415 116.948H118.818L115.494 105.536H115.358L112.043 116.948H108.446ZM130.635 116.948H126.68L132.706 99.4937H137.462L143.479 116.948H139.524L135.152 103.482H135.016L130.635 116.948ZM130.388 110.087H139.729V112.968H130.388V110.087ZM145.58 116.948V99.4937H149.27V113.906H156.753V116.948H145.58ZM159.197 116.948V99.4937H162.887V113.906H170.37V116.948H159.197ZM172.814 116.948V99.4937H184.575V102.536H176.504V106.695H183.97V109.738H176.504V113.906H184.609V116.948H172.814ZM186.844 102.536V99.4937H201.18V102.536H195.836V116.948H192.188V102.536H186.844Z" fill="black"/>
<path d="M78.7811 77.886C78.1433 77.9224 77.5055 77.9954 76.9031 78.2141C75.9465 78.5787 75.0252 79.1255 74.2457 79.9276C74.0214 80.0739 73.832 80.2702 73.6914 80.5019C73.5508 80.7337 73.4626 80.9951 73.4334 81.2667C73.4042 81.5382 73.4347 81.8131 73.5226 82.0709C73.6106 82.3287 73.7538 82.5629 73.9415 82.7561C74.1293 82.9493 74.3569 83.0966 74.6075 83.1871C74.858 83.2776 75.1252 83.309 75.3891 83.2789C75.653 83.2489 75.907 83.1581 76.1323 83.0135C76.3576 82.8688 76.5484 82.6739 76.6905 82.4431C77.0803 82.0421 77.5409 81.8233 78.037 81.641C79.2771 81.2036 80.8007 81.3858 81.7928 82.4431C83.1747 83.8649 83.1747 86.2346 81.7928 87.6929L76.478 93.1614C74.9189 94.7655 73.6434 94.9113 72.7221 94.8749C71.8009 94.8384 71.2694 94.4009 71.2694 94.4009C71.0647 94.2812 70.839 94.2042 70.6054 94.1742C70.3717 94.1443 70.1346 94.162 69.9076 94.2263C69.6805 94.2906 69.4681 94.4003 69.2822 94.5491C69.0964 94.6979 68.9409 94.883 68.8246 95.0936C68.7082 95.3043 68.6334 95.5364 68.6043 95.7768C68.5751 96.0173 68.5923 96.2612 68.6548 96.4948C68.7174 96.7284 68.824 96.947 68.9686 97.1382C69.1132 97.3294 69.2931 97.4894 69.4978 97.6091C69.4978 97.6091 70.7025 98.4112 72.4741 98.5206C74.2457 98.6299 76.726 97.9372 78.8874 95.6769L84.2022 90.2084C86.9659 87.3648 86.9659 82.7712 84.2022 79.964C83.2101 78.9432 82.0408 78.3235 80.7653 78.0318C80.1275 77.886 79.4188 77.886 78.7811 77.9224V77.886ZM71.6946 86.3075C69.923 86.2346 67.4781 86.8544 65.3876 89.0418L60.0728 94.5103C57.3091 97.3539 57.3091 101.947 60.0728 104.755C62.057 106.796 64.8916 107.38 67.3718 106.468C68.3285 106.104 69.2498 105.557 70.0293 104.755C70.2536 104.608 70.443 104.412 70.5836 104.18C70.7242 103.949 70.8124 103.687 70.8416 103.416C70.8708 103.144 70.8403 102.869 70.7524 102.611C70.6644 102.354 70.5212 102.119 70.3335 101.926C70.1457 101.733 69.9181 101.586 69.6675 101.495C69.417 101.405 69.1498 101.373 68.8859 101.403C68.622 101.433 68.3679 101.524 68.1427 101.669C67.9174 101.813 67.7266 102.008 67.5844 102.239C67.1947 102.64 66.7341 102.859 66.238 103.041C64.9979 103.479 63.4743 103.296 62.4822 102.239C61.1003 100.817 61.1003 98.4476 62.4822 96.9894L67.797 91.5208C69.2143 90.0626 70.4545 89.8803 71.4466 89.9167C72.4387 89.9532 73.1119 90.2449 73.1119 90.2449C73.3195 90.405 73.5587 90.5164 73.8128 90.5709C74.0668 90.6255 74.3293 90.622 74.5819 90.5607C74.8344 90.4993 75.0708 90.3816 75.2743 90.2159C75.4778 90.0502 75.6434 89.8406 75.7594 89.6018C75.8755 89.363 75.9391 89.1008 75.9459 88.8339C75.9526 88.567 75.9023 88.3019 75.7985 88.0572C75.6946 87.8125 75.5398 87.5943 75.345 87.4179C75.1501 87.2416 74.92 87.1114 74.6709 87.0367C74.6709 87.0367 73.4662 86.3075 71.6946 86.2346V86.3075Z" fill="black"/>
<path d="M83.9183 167.447C83.6663 171.374 81.6398 173.947 78.6998 173.947H69.2499C66.352 173.947 64 170.653 64 166.594V156.3C64 152.3 65.722 149.506 68.3995 149.036C68.6725 148.977 68.9559 148.947 69.2499 148.947H78.6998C78.9728 148.947 79.2353 148.962 79.4873 149.021C81.9968 149.433 83.6978 151.888 83.9183 155.447C83.9498 155.874 83.6978 156.227 83.3933 156.227H81.7658C80.7578 156.227 79.8233 156.771 79.1513 157.741C78.3534 158.83 77.9544 160.359 78.0489 161.888C78.2169 164.565 79.8968 166.668 81.8918 166.668H83.3933C83.6978 166.668 83.9498 167.021 83.9183 167.447Z" fill="#292D32"/>
</svg>
