<svg width="296" height="248" viewBox="0 0 296 248" fill="none" xmlns="http://www.w3.org/2000/svg">
<rect y="0.00463867" width="296" height="247.113" fill="#D9D9D9"/>
<rect x="22" y="72.0149" width="253" height="100.561" fill="#BDBDBD" stroke="black" stroke-width="2"/>
<line x1="21" y1="121.295" x2="276" y2="121.295" stroke="black" stroke-width="2"/>
<rect x="22" y="60.0098" width="253" height="31.0151" rx="15.5075" fill="#C4BAC6" stroke="black" stroke-width="2"/>
<line y1="-1" x2="255.001" y2="-1" transform="matrix(0.999995 0.00322907 -0.00729751 0.999973 21 150.051)" stroke="black" stroke-width="2"/>
<path d="M44.394 105.742C44.3513 105.312 44.1685 104.979 43.8453 104.741C43.5222 104.503 43.0836 104.384 42.5296 104.384C42.1532 104.384 41.8354 104.437 41.5761 104.544C41.3169 104.646 41.118 104.79 40.9795 104.975C40.8446 105.16 40.7771 105.369 40.7771 105.604C40.77 105.799 40.8109 105.969 40.8996 106.115C40.992 106.26 41.118 106.387 41.2778 106.493C41.4376 106.596 41.6223 106.687 41.8318 106.765C42.0413 106.839 42.265 106.903 42.503 106.956L43.4831 107.191C43.9589 107.297 44.3957 107.439 44.7935 107.617C45.1912 107.795 45.5356 108.013 45.8268 108.272C46.118 108.531 46.3435 108.837 46.5033 109.188C46.6667 109.54 46.7501 109.943 46.7537 110.398C46.7501 111.065 46.5797 111.644 46.2423 112.134C45.9085 112.621 45.4256 112.999 44.7935 113.269C44.1649 113.535 43.4067 113.668 42.519 113.668C41.6383 113.668 40.8712 113.533 40.2178 113.263C39.568 112.993 39.0601 112.594 38.6944 112.065C38.3322 111.532 38.1422 110.873 38.1244 110.089H40.3563C40.3812 110.454 40.4859 110.76 40.6706 111.005C40.8588 111.246 41.1092 111.429 41.4217 111.553C41.7377 111.674 42.0946 111.735 42.4923 111.735C42.8829 111.735 43.2221 111.678 43.5097 111.564C43.8009 111.45 44.0264 111.292 44.1862 111.09C44.346 110.888 44.4259 110.655 44.4259 110.392C44.4259 110.147 44.3531 109.941 44.2075 109.774C44.0655 109.607 43.856 109.465 43.579 109.348C43.3055 109.231 42.9699 109.124 42.5722 109.029L41.3844 108.73C40.4646 108.507 39.7384 108.157 39.2057 107.681C38.6731 107.205 38.4085 106.564 38.4121 105.758C38.4085 105.097 38.5843 104.52 38.9394 104.027C39.2981 103.533 39.7899 103.148 40.4149 102.871C41.0399 102.594 41.7501 102.455 42.5456 102.455C43.3552 102.455 44.0619 102.594 44.6656 102.871C45.2729 103.148 45.7452 103.533 46.0825 104.027C46.4199 104.52 46.5939 105.092 46.6045 105.742H44.394ZM48.3051 102.605H51.1495L54.1538 109.934H54.2816L57.2859 102.605H60.1304V113.514H57.8932V106.413H57.8026L54.9794 113.46H53.456L50.6329 106.387H50.5423V113.514H48.3051V102.605ZM63.911 113.514H61.4394L65.2054 102.605H68.1777L71.9383 113.514H69.4668L66.7342 105.097H66.6489L63.911 113.514ZM63.7565 109.226H69.5946V111.026H63.7565V109.226ZM73.2514 113.514V102.605H77.5554C78.3792 102.605 79.0823 102.752 79.6647 103.047C80.2507 103.338 80.6963 103.752 81.0017 104.288C81.3107 104.82 81.4652 105.447 81.4652 106.168C81.4652 106.893 81.3089 107.516 80.9964 108.038C80.6839 108.556 80.2311 108.954 79.6381 109.231C79.0486 109.508 78.3348 109.646 77.4968 109.646H74.615V107.793H77.1239C77.5642 107.793 77.93 107.732 78.2212 107.612C78.5124 107.491 78.729 107.31 78.871 107.068C79.0166 106.827 79.0894 106.527 79.0894 106.168C79.0894 105.806 79.0166 105.501 78.871 105.252C78.729 105.003 78.5106 104.815 78.2159 104.687C77.9247 104.556 77.5571 104.49 77.1132 104.49H75.5578V113.514H73.2514ZM79.1427 108.549L81.854 113.514H79.3078L76.6551 108.549H79.1427ZM82.6796 104.506V102.605H91.6392V104.506H88.2993V113.514H86.0195V104.506H82.6796ZM106.212 106.424H103.879C103.836 106.122 103.749 105.854 103.618 105.619C103.486 105.382 103.318 105.179 103.112 105.012C102.906 104.845 102.668 104.718 102.398 104.629C102.131 104.54 101.842 104.496 101.53 104.496C100.965 104.496 100.473 104.636 100.054 104.916C99.635 105.193 99.3101 105.598 99.0792 106.131C98.8484 106.66 98.733 107.303 98.733 108.059C98.733 108.837 98.8484 109.49 99.0792 110.019C99.3136 110.548 99.6403 110.948 100.059 111.218C100.478 111.488 100.963 111.623 101.514 111.623C101.822 111.623 102.108 111.582 102.371 111.5C102.637 111.419 102.874 111.3 103.08 111.143C103.286 110.983 103.456 110.79 103.591 110.563C103.729 110.335 103.825 110.076 103.879 109.785L106.212 109.796C106.151 110.296 106 110.779 105.759 111.244C105.521 111.706 105.2 112.12 104.795 112.486C104.394 112.848 103.914 113.135 103.357 113.349C102.803 113.558 102.176 113.663 101.476 113.663C100.503 113.663 99.6332 113.443 98.8662 113.002C98.1027 112.562 97.499 111.925 97.0551 111.09C96.6147 110.256 96.3946 109.245 96.3946 108.059C96.3946 106.869 96.6183 105.857 97.0657 105.023C97.5132 104.188 98.1204 103.553 98.8875 103.116C99.6545 102.676 100.517 102.455 101.476 102.455C102.108 102.455 102.694 102.544 103.234 102.722C103.777 102.899 104.259 103.159 104.678 103.499C105.097 103.837 105.438 104.251 105.7 104.741C105.967 105.231 106.137 105.792 106.212 106.424ZM117.89 108.059C117.89 109.249 117.665 110.261 117.214 111.095C116.767 111.93 116.156 112.567 115.382 113.008C114.611 113.444 113.745 113.663 112.782 113.663C111.813 113.663 110.943 113.443 110.172 113.002C109.402 112.562 108.792 111.925 108.345 111.09C107.898 110.256 107.674 109.245 107.674 108.059C107.674 106.869 107.898 105.857 108.345 105.023C108.792 104.188 109.402 103.553 110.172 103.116C110.943 102.676 111.813 102.455 112.782 102.455C113.745 102.455 114.611 102.676 115.382 103.116C116.156 103.553 116.767 104.188 117.214 105.023C117.665 105.857 117.89 106.869 117.89 108.059ZM115.552 108.059C115.552 107.289 115.437 106.639 115.206 106.11C114.979 105.58 114.657 105.179 114.242 104.906C113.826 104.632 113.34 104.496 112.782 104.496C112.225 104.496 111.738 104.632 111.323 104.906C110.907 105.179 110.584 105.58 110.353 106.11C110.126 106.639 110.012 107.289 110.012 108.059C110.012 108.83 110.126 109.48 110.353 110.009C110.584 110.538 110.907 110.939 111.323 111.213C111.738 111.486 112.225 111.623 112.782 111.623C113.34 111.623 113.826 111.486 114.242 111.213C114.657 110.939 114.979 110.538 115.206 110.009C115.437 109.48 115.552 108.83 115.552 108.059ZM128.724 102.605V113.514H126.731L121.985 106.648H121.905V113.514H119.599V102.605H121.623L126.332 109.465H126.428V102.605H128.724ZM130.214 104.506V102.605H139.173V104.506H135.833V113.514H133.554V104.506H130.214ZM140.649 113.514V102.605H144.953C145.777 102.605 146.48 102.752 147.062 103.047C147.648 103.338 148.094 103.752 148.399 104.288C148.708 104.82 148.863 105.447 148.863 106.168C148.863 106.893 148.706 107.516 148.394 108.038C148.081 108.556 147.629 108.954 147.036 109.231C146.446 109.508 145.732 109.646 144.894 109.646H142.012V107.793H144.521C144.962 107.793 145.327 107.732 145.619 107.612C145.91 107.491 146.126 107.31 146.269 107.068C146.414 106.827 146.487 106.527 146.487 106.168C146.487 105.806 146.414 105.501 146.269 105.252C146.126 105.003 145.908 104.815 145.613 104.687C145.322 104.556 144.955 104.49 144.511 104.49H142.955V113.514H140.649ZM146.54 108.549L149.251 113.514H146.705L144.053 108.549H146.54ZM152.373 113.514H149.901L153.667 102.605H156.64L160.4 113.514H157.929L155.196 105.097H155.111L152.373 113.514ZM152.218 109.226H158.057V111.026H152.218V109.226ZM170.826 106.424H168.493C168.45 106.122 168.363 105.854 168.232 105.619C168.1 105.382 167.932 105.179 167.726 105.012C167.52 104.845 167.282 104.718 167.012 104.629C166.746 104.54 166.456 104.496 166.144 104.496C165.579 104.496 165.087 104.636 164.668 104.916C164.249 105.193 163.924 105.598 163.693 106.131C163.463 106.66 163.347 107.303 163.347 108.059C163.347 108.837 163.463 109.49 163.693 110.019C163.928 110.548 164.255 110.948 164.674 111.218C165.093 111.488 165.577 111.623 166.128 111.623C166.437 111.623 166.723 111.582 166.985 111.5C167.252 111.419 167.488 111.3 167.694 111.143C167.9 110.983 168.07 110.79 168.205 110.563C168.344 110.335 168.44 110.076 168.493 109.785L170.826 109.796C170.766 110.296 170.615 110.779 170.373 111.244C170.135 111.706 169.814 112.12 169.409 112.486C169.008 112.848 168.528 113.135 167.971 113.349C167.417 113.558 166.79 113.663 166.091 113.663C165.117 113.663 164.247 113.443 163.48 113.002C162.717 112.562 162.113 111.925 161.669 111.09C161.229 110.256 161.009 109.245 161.009 108.059C161.009 106.869 161.233 105.857 161.68 105.023C162.127 104.188 162.735 103.553 163.502 103.116C164.269 102.676 165.132 102.455 166.091 102.455C166.723 102.455 167.309 102.544 167.848 102.722C168.392 102.899 168.873 103.159 169.292 103.499C169.711 103.837 170.052 104.251 170.315 104.741C170.581 105.231 170.751 105.792 170.826 106.424ZM172.064 104.506V102.605H181.024V104.506H177.684V113.514H175.404V104.506H172.064ZM191.889 105.742C191.846 105.312 191.664 104.979 191.34 104.741C191.017 104.503 190.579 104.384 190.025 104.384C189.648 104.384 189.33 104.437 189.071 104.544C188.812 104.646 188.613 104.79 188.475 104.975C188.34 105.16 188.272 105.369 188.272 105.604C188.265 105.799 188.306 105.969 188.395 106.115C188.487 106.26 188.613 106.387 188.773 106.493C188.933 106.596 189.117 106.687 189.327 106.765C189.536 106.839 189.76 106.903 189.998 106.956L190.978 107.191C191.454 107.297 191.891 107.439 192.289 107.617C192.686 107.795 193.031 108.013 193.322 108.272C193.613 108.531 193.839 108.837 193.998 109.188C194.162 109.54 194.245 109.943 194.249 110.398C194.245 111.065 194.075 111.644 193.737 112.134C193.404 112.621 192.921 112.999 192.289 113.269C191.66 113.535 190.902 113.668 190.014 113.668C189.133 113.668 188.366 113.533 187.713 113.263C187.063 112.993 186.555 112.594 186.189 112.065C185.827 111.532 185.637 110.873 185.62 110.089H187.851C187.876 110.454 187.981 110.76 188.166 111.005C188.354 111.246 188.604 111.429 188.917 111.553C189.233 111.674 189.59 111.735 189.987 111.735C190.378 111.735 190.717 111.678 191.005 111.564C191.296 111.45 191.522 111.292 191.681 111.09C191.841 110.888 191.921 110.655 191.921 110.392C191.921 110.147 191.848 109.941 191.703 109.774C191.561 109.607 191.351 109.465 191.074 109.348C190.801 109.231 190.465 109.124 190.067 109.029L188.879 108.73C187.96 108.507 187.234 108.157 186.701 107.681C186.168 107.205 185.904 106.564 185.907 105.758C185.904 105.097 186.079 104.52 186.435 104.027C186.793 103.533 187.285 103.148 187.91 102.871C188.535 102.594 189.245 102.455 190.041 102.455C190.85 102.455 191.557 102.594 192.161 102.871C192.768 103.148 193.24 103.533 193.578 104.027C193.915 104.52 194.089 105.092 194.1 105.742H191.889ZM195.385 104.506V102.605H204.344V104.506H201.004V113.514H198.725V104.506H195.385ZM206.367 113.514H203.895L207.661 102.605H210.634L214.394 113.514H211.923L209.19 105.097H209.105L206.367 113.514ZM206.213 109.226H212.051V111.026H206.213V109.226ZM215.707 113.514V102.605H218.014V107.415H218.158L222.083 102.605H224.848L220.8 107.489L224.896 113.514H222.137L219.148 109.029L218.014 110.414V113.514H215.707ZM228.356 102.605V113.514H226.049V102.605H228.356ZM239.378 102.605V113.514H237.386L232.64 106.648H232.56V113.514H230.253V102.605H232.277L236.986 109.465H237.082V102.605H239.378ZM248.517 106.131C248.443 105.872 248.338 105.643 248.203 105.444C248.068 105.241 247.903 105.071 247.708 104.932C247.516 104.79 247.296 104.682 247.047 104.607C246.802 104.533 246.53 104.496 246.232 104.496C245.675 104.496 245.185 104.634 244.762 104.911C244.343 105.188 244.016 105.591 243.782 106.12C243.547 106.646 243.43 107.289 243.43 108.048C243.43 108.808 243.546 109.455 243.777 109.987C244.007 110.52 244.334 110.927 244.757 111.207C245.179 111.484 245.678 111.623 246.253 111.623C246.775 111.623 247.221 111.53 247.59 111.346C247.963 111.157 248.247 110.893 248.443 110.552C248.642 110.211 248.741 109.808 248.741 109.343L249.21 109.412H246.397V107.676H250.962V109.05C250.962 110.009 250.76 110.833 250.355 111.521C249.95 112.207 249.393 112.736 248.682 113.109C247.972 113.478 247.159 113.663 246.243 113.663C245.22 113.663 244.322 113.437 243.547 112.986C242.773 112.532 242.17 111.887 241.736 111.053C241.307 110.215 241.092 109.22 241.092 108.07C241.092 107.186 241.22 106.397 241.475 105.705C241.735 105.009 242.097 104.419 242.562 103.936C243.027 103.453 243.569 103.086 244.187 102.834C244.805 102.581 245.474 102.455 246.195 102.455C246.813 102.455 247.388 102.546 247.921 102.727C248.453 102.905 248.926 103.157 249.338 103.483C249.753 103.81 250.092 104.199 250.355 104.65C250.618 105.097 250.786 105.591 250.861 106.131H248.517Z" fill="black"/>
<path d="M42.9482 141.04V130.131H45.2546V139.139H49.9315V141.04H42.9482ZM53.7654 130.131V141.04H51.4589V130.131H53.7654ZM59.7805 137.248H61.7408L62.7262 138.515L63.6957 139.645L65.5227 141.935H63.3707L62.1136 140.39L61.4691 139.474L59.7805 137.248ZM65.6879 135.586C65.6879 136.775 65.4624 137.787 65.0114 138.622C64.5639 139.456 63.9531 140.094 63.179 140.534C62.4084 140.971 61.5419 141.189 60.5795 141.189C59.6101 141.189 58.7401 140.969 57.9695 140.529C57.1989 140.089 56.5898 139.451 56.1424 138.617C55.695 137.782 55.4712 136.772 55.4712 135.586C55.4712 134.396 55.695 133.384 56.1424 132.55C56.5898 131.715 57.1989 131.079 57.9695 130.643C58.7401 130.202 59.6101 129.982 60.5795 129.982C61.5419 129.982 62.4084 130.202 63.179 130.643C63.9531 131.079 64.5639 131.715 65.0114 132.55C65.4624 133.384 65.6879 134.396 65.6879 135.586ZM63.3494 135.586C63.3494 134.815 63.234 134.165 63.0032 133.636C62.7759 133.107 62.4545 132.706 62.0391 132.432C61.6236 132.159 61.1371 132.022 60.5795 132.022C60.022 132.022 59.5355 132.159 59.12 132.432C58.7045 132.706 58.3814 133.107 58.1506 133.636C57.9233 134.165 57.8097 134.815 57.8097 135.586C57.8097 136.356 57.9233 137.006 58.1506 137.535C58.3814 138.064 58.7045 138.466 59.12 138.739C59.5355 139.013 60.022 139.149 60.5795 139.149C61.1371 139.149 61.6236 139.013 62.0391 138.739C62.4545 138.466 62.7759 138.064 63.0032 137.535C63.234 137.006 63.3494 136.356 63.3494 135.586ZM74.1347 130.131H76.4411V137.216C76.4411 138.011 76.2512 138.707 75.8712 139.304C75.4948 139.9 74.9674 140.366 74.2892 140.699C73.6109 141.03 72.8208 141.195 71.9188 141.195C71.0132 141.195 70.2213 141.03 69.5431 140.699C68.8648 140.366 68.3374 139.9 67.961 139.304C67.5846 138.707 67.3964 138.011 67.3964 137.216V130.131H69.7029V137.019C69.7029 137.434 69.7934 137.803 69.9745 138.127C70.1592 138.45 70.4184 138.704 70.7522 138.888C71.086 139.073 71.4749 139.165 71.9188 139.165C72.3662 139.165 72.7551 139.073 73.0853 138.888C73.4191 138.704 73.6766 138.45 73.8577 138.127C74.0423 137.803 74.1347 137.434 74.1347 137.019V130.131ZM80.6452 130.131V141.04H78.3388V130.131H80.6452ZM86.4101 141.04H82.5429V130.131H86.442C87.5393 130.131 88.4839 130.35 89.2758 130.786C90.0677 131.22 90.6768 131.843 91.1029 132.656C91.5326 133.469 91.7474 134.442 91.7474 135.575C91.7474 136.711 91.5326 137.688 91.1029 138.505C90.6768 139.322 90.0642 139.948 89.2652 140.385C88.4697 140.822 87.518 141.04 86.4101 141.04ZM84.8493 139.064H86.3142C86.996 139.064 87.5695 138.943 88.0347 138.702C88.5035 138.457 88.855 138.079 89.0894 137.567C89.3273 137.052 89.4463 136.388 89.4463 135.575C89.4463 134.769 89.3273 134.11 89.0894 133.599C88.855 133.088 88.5052 132.711 88.04 132.47C87.5748 132.228 87.0013 132.107 86.3195 132.107H84.8493V139.064ZM95.7624 130.131V141.04H93.456V130.131H95.7624ZM97.2446 132.033V130.131H106.204V132.033H102.864V141.04H100.584V132.033H97.2446ZM107.04 130.131H109.624L112.111 134.829H112.218L114.706 130.131H117.289L113.31 137.184V141.04H111.019V137.184L107.04 130.131ZM127.938 133.269C127.896 132.839 127.713 132.505 127.39 132.267C127.067 132.029 126.628 131.91 126.074 131.91C125.698 131.91 125.38 131.964 125.121 132.07C124.861 132.173 124.662 132.317 124.524 132.502C124.389 132.686 124.322 132.896 124.322 133.13C124.314 133.325 124.355 133.496 124.444 133.641C124.536 133.787 124.662 133.913 124.822 134.02C124.982 134.123 125.167 134.213 125.376 134.291C125.586 134.366 125.809 134.43 126.047 134.483L127.028 134.717C127.503 134.824 127.94 134.966 128.338 135.144C128.736 135.321 129.08 135.54 129.371 135.799C129.662 136.058 129.888 136.363 130.048 136.715C130.211 137.067 130.295 137.47 130.298 137.924C130.295 138.592 130.124 139.171 129.787 139.661C129.453 140.147 128.97 140.525 128.338 140.795C127.709 141.062 126.951 141.195 126.063 141.195C125.183 141.195 124.416 141.06 123.762 140.79C123.112 140.52 122.605 140.121 122.239 139.591C121.877 139.059 121.687 138.4 121.669 137.615H123.901C123.926 137.981 124.03 138.286 124.215 138.531C124.403 138.773 124.654 138.956 124.966 139.08C125.282 139.201 125.639 139.261 126.037 139.261C126.427 139.261 126.767 139.204 127.054 139.091C127.345 138.977 127.571 138.819 127.731 138.617C127.89 138.414 127.97 138.182 127.97 137.919C127.97 137.674 127.898 137.468 127.752 137.301C127.61 137.134 127.4 136.992 127.123 136.875C126.85 136.758 126.514 136.651 126.117 136.555L124.929 136.257C124.009 136.033 123.283 135.683 122.75 135.208C122.218 134.732 121.953 134.091 121.956 133.285C121.953 132.624 122.129 132.047 122.484 131.553C122.843 131.06 123.334 130.675 123.959 130.398C124.584 130.121 125.295 129.982 126.09 129.982C126.9 129.982 127.606 130.121 128.21 130.398C128.817 130.675 129.29 131.06 129.627 131.553C129.964 132.047 130.138 132.619 130.149 133.269H127.938ZM131.434 132.033V130.131H140.394V132.033H137.054V141.04H134.774V132.033H131.434ZM142.416 141.04H139.945L143.711 130.131H146.683L150.444 141.04H147.972L145.24 132.624H145.154L142.416 141.04ZM142.262 136.752H148.1V138.553H142.262V136.752ZM151.757 141.04V130.131H154.063V134.941H154.207L158.133 130.131H160.897L156.849 135.016L160.945 141.04H158.186L155.198 136.555L154.063 137.94V141.04H151.757ZM164.405 130.131V141.04H162.099V130.131H164.405ZM175.427 130.131V141.04H173.435L168.689 134.174H168.609V141.04H166.303V130.131H168.327L173.036 136.992H173.131V130.131H175.427ZM184.567 133.657C184.492 133.398 184.387 133.169 184.252 132.97C184.117 132.768 183.952 132.597 183.757 132.459C183.565 132.317 183.345 132.209 183.096 132.134C182.851 132.059 182.58 132.022 182.281 132.022C181.724 132.022 181.234 132.161 180.811 132.438C180.392 132.715 180.066 133.118 179.831 133.647C179.597 134.172 179.48 134.815 179.48 135.575C179.48 136.335 179.595 136.981 179.826 137.514C180.057 138.047 180.383 138.453 180.806 138.734C181.229 139.011 181.727 139.149 182.303 139.149C182.825 139.149 183.27 139.057 183.64 138.872C184.013 138.684 184.297 138.42 184.492 138.079C184.691 137.738 184.79 137.335 184.79 136.869L185.259 136.939H182.447V135.202H187.012V136.577C187.012 137.535 186.809 138.359 186.404 139.048C185.999 139.733 185.442 140.263 184.732 140.635C184.021 141.005 183.208 141.189 182.292 141.189C181.269 141.189 180.371 140.964 179.597 140.513C178.823 140.058 178.219 139.414 177.786 138.579C177.356 137.741 177.141 136.747 177.141 135.596C177.141 134.712 177.269 133.924 177.525 133.231C177.784 132.535 178.146 131.946 178.611 131.463C179.077 130.98 179.618 130.612 180.236 130.36C180.854 130.108 181.523 129.982 182.244 129.982C182.862 129.982 183.437 130.073 183.97 130.254C184.503 130.431 184.975 130.683 185.387 131.01C185.802 131.337 186.142 131.726 186.404 132.177C186.667 132.624 186.836 133.118 186.91 133.657H184.567Z" fill="black"/>
<path d="M40.919 156.143L43.5558 164.431H43.657L46.299 156.143H48.8558L45.0952 167.052H42.1229L38.3569 156.143H40.919ZM50.599 167.052H48.1274L51.8934 156.143H54.8657L58.6263 167.052H56.1547L53.4221 158.636H53.3369L50.599 167.052ZM50.4445 162.764H56.2826V164.564H50.4445V162.764ZM59.9394 167.052V156.143H62.2458V165.15H66.9227V167.052H59.9394ZM70.7566 156.143V167.052H68.4501V156.143H70.7566ZM76.5214 167.052H72.6542V156.143H76.5534C77.6507 156.143 78.5953 156.361 79.3872 156.798C80.1791 157.231 80.7881 157.855 81.2142 158.668C81.6439 159.481 81.8588 160.454 81.8588 161.587C81.8588 162.723 81.6439 163.7 81.2142 164.516C80.7881 165.333 80.1755 165.96 79.3765 166.397C78.5811 166.834 77.6294 167.052 76.5214 167.052ZM74.9607 165.076H76.4255C77.1073 165.076 77.6808 164.955 78.146 164.714C78.6148 164.469 78.9664 164.09 79.2007 163.579C79.4387 163.064 79.5576 162.4 79.5576 161.587C79.5576 160.781 79.4387 160.122 79.2007 159.611C78.9664 159.099 78.6166 158.723 78.1514 158.481C77.6862 158.24 77.1127 158.119 76.4308 158.119H74.9607V165.076ZM85.8738 156.143V167.052H83.5673V156.143H85.8738ZM87.3559 158.045V156.143H96.3154V158.045H92.9756V167.052H90.6958V158.045H87.3559ZM97.1517 156.143H99.7352L102.223 160.841H102.329L104.817 156.143H107.4L103.421 163.195V167.052H101.131V163.195L97.1517 156.143ZM114.012 167.052H111.54L115.306 156.143H118.279L122.039 167.052H119.568L116.835 158.636H116.75L114.012 167.052ZM113.858 162.764H119.696V164.564H113.858V162.764ZM129.021 159.28C128.979 158.851 128.796 158.517 128.473 158.279C128.15 158.041 127.711 157.922 127.157 157.922C126.781 157.922 126.463 157.975 126.204 158.082C125.944 158.185 125.745 158.329 125.607 158.513C125.472 158.698 125.405 158.907 125.405 159.142C125.397 159.337 125.438 159.508 125.527 159.653C125.619 159.799 125.745 159.925 125.905 160.031C126.065 160.134 126.25 160.225 126.459 160.303C126.669 160.378 126.892 160.442 127.13 160.495L128.111 160.729C128.586 160.836 129.023 160.978 129.421 161.155C129.819 161.333 130.163 161.551 130.454 161.811C130.745 162.07 130.971 162.375 131.131 162.727C131.294 163.078 131.378 163.481 131.381 163.936C131.378 164.603 131.207 165.182 130.87 165.672C130.536 166.159 130.053 166.537 129.421 166.807C128.792 167.073 128.034 167.206 127.146 167.206C126.266 167.206 125.499 167.072 124.845 166.802C124.195 166.532 123.688 166.132 123.322 165.603C122.96 165.07 122.77 164.412 122.752 163.627H124.984C125.009 163.993 125.113 164.298 125.298 164.543C125.486 164.785 125.737 164.967 126.049 165.092C126.365 165.213 126.722 165.273 127.12 165.273C127.51 165.273 127.85 165.216 128.137 165.102C128.428 164.989 128.654 164.831 128.814 164.628C128.973 164.426 129.053 164.193 129.053 163.931C129.053 163.686 128.981 163.48 128.835 163.313C128.693 163.146 128.483 163.004 128.206 162.887C127.933 162.769 127.597 162.663 127.2 162.567L126.012 162.269C125.092 162.045 124.366 161.695 123.833 161.219C123.301 160.743 123.036 160.102 123.04 159.296C123.036 158.636 123.212 158.059 123.567 157.565C123.926 157.072 124.417 156.686 125.042 156.409C125.667 156.132 126.378 155.994 127.173 155.994C127.983 155.994 128.689 156.132 129.293 156.409C129.9 156.686 130.373 157.072 130.71 157.565C131.047 158.059 131.221 158.63 131.232 159.28H129.021ZM138.285 167.052H135.813L139.579 156.143H142.551L146.312 167.052H143.84L141.108 158.636H141.022L138.285 167.052ZM138.13 162.764H143.968V164.564H138.13V162.764ZM157.015 159.28C156.972 158.851 156.789 158.517 156.466 158.279C156.143 158.041 155.704 157.922 155.15 157.922C154.774 157.922 154.456 157.975 154.197 158.082C153.938 158.185 153.739 158.329 153.6 158.513C153.465 158.698 153.398 158.907 153.398 159.142C153.391 159.337 153.431 159.508 153.52 159.653C153.613 159.799 153.739 159.925 153.898 160.031C154.058 160.134 154.243 160.225 154.452 160.303C154.662 160.378 154.886 160.442 155.124 160.495L156.104 160.729C156.58 160.836 157.016 160.978 157.414 161.155C157.812 161.333 158.156 161.551 158.447 161.811C158.739 162.07 158.964 162.375 159.124 162.727C159.287 163.078 159.371 163.481 159.374 163.936C159.371 164.603 159.2 165.182 158.863 165.672C158.529 166.159 158.046 166.537 157.414 166.807C156.786 167.073 156.027 167.206 155.14 167.206C154.259 167.206 153.492 167.072 152.838 166.802C152.189 166.532 151.681 166.132 151.315 165.603C150.953 165.07 150.763 164.412 150.745 163.627H152.977C153.002 163.993 153.107 164.298 153.291 164.543C153.479 164.785 153.73 164.967 154.042 165.092C154.358 165.213 154.715 165.273 155.113 165.273C155.504 165.273 155.843 165.216 156.13 165.102C156.422 164.989 156.647 164.831 156.807 164.628C156.967 164.426 157.047 164.193 157.047 163.931C157.047 163.686 156.974 163.48 156.828 163.313C156.686 163.146 156.477 163.004 156.2 162.887C155.926 162.769 155.591 162.663 155.193 162.567L154.005 162.269C153.085 162.045 152.359 161.695 151.826 161.219C151.294 160.743 151.029 160.102 151.033 159.296C151.029 158.636 151.205 158.059 151.56 157.565C151.919 157.072 152.411 156.686 153.036 156.409C153.661 156.132 154.371 155.994 155.166 155.994C155.976 155.994 156.683 156.132 157.286 156.409C157.893 156.686 158.366 157.072 158.703 157.565C159.04 158.059 159.214 158.63 159.225 159.28H157.015ZM160.926 167.052V156.143H168.277V158.045H163.232V160.644H167.898V162.546H163.232V165.15H168.298V167.052H160.926ZM170.11 167.052V156.143H174.414C175.238 156.143 175.941 156.29 176.524 156.585C177.11 156.876 177.555 157.29 177.861 157.826C178.17 158.359 178.324 158.986 178.324 159.706C178.324 160.431 178.168 161.054 177.855 161.576C177.543 162.095 177.09 162.492 176.497 162.769C175.907 163.046 175.194 163.185 174.356 163.185H171.474V161.331H173.983C174.423 161.331 174.789 161.271 175.08 161.15C175.371 161.029 175.588 160.848 175.73 160.607C175.876 160.365 175.948 160.065 175.948 159.706C175.948 159.344 175.876 159.039 175.73 158.79C175.588 158.542 175.369 158.353 175.075 158.226C174.784 158.094 174.416 158.029 173.972 158.029H172.417V167.052H170.11ZM176.002 162.088L178.713 167.052H176.167L173.514 162.088H176.002ZM181.632 156.143L184.269 164.431H184.37L187.012 156.143H189.569L185.808 167.052H182.836L179.07 156.143H181.632ZM193.188 156.143V167.052H190.882V156.143H193.188ZM204.711 159.962H202.378C202.335 159.66 202.248 159.392 202.117 159.158C201.986 158.92 201.817 158.717 201.611 158.551C201.405 158.384 201.167 158.256 200.897 158.167C200.631 158.078 200.342 158.034 200.029 158.034C199.464 158.034 198.973 158.174 198.554 158.455C198.134 158.732 197.81 159.137 197.579 159.669C197.348 160.198 197.233 160.841 197.233 161.597C197.233 162.375 197.348 163.029 197.579 163.558C197.813 164.087 198.14 164.486 198.559 164.756C198.978 165.026 199.463 165.161 200.013 165.161C200.322 165.161 200.608 165.12 200.871 165.039C201.137 164.957 201.373 164.838 201.579 164.682C201.785 164.522 201.956 164.328 202.09 164.101C202.229 163.874 202.325 163.615 202.378 163.323L204.711 163.334C204.651 163.835 204.5 164.318 204.258 164.783C204.021 165.244 203.699 165.658 203.294 166.024C202.893 166.386 202.414 166.674 201.856 166.887C201.302 167.096 200.675 167.201 199.976 167.201C199.003 167.201 198.133 166.981 197.366 166.541C196.602 166.1 195.998 165.463 195.555 164.628C195.114 163.794 194.894 162.784 194.894 161.597C194.894 160.408 195.118 159.396 195.565 158.561C196.013 157.727 196.62 157.091 197.387 156.654C198.154 156.214 199.017 155.994 199.976 155.994C200.608 155.994 201.194 156.083 201.734 156.26C202.277 156.438 202.758 156.697 203.177 157.038C203.596 157.375 203.937 157.789 204.2 158.279C204.466 158.769 204.637 159.33 204.711 159.962ZM206.365 167.052V156.143H213.716V158.045H208.672V160.644H213.338V162.546H208.672V165.15H213.737V167.052H206.365Z" fill="black"/>
<path d="M46.728 74.056H44.0646C44.0291 73.7826 43.9563 73.5358 43.8462 73.3156C43.7362 73.0954 43.5906 72.9072 43.4094 72.751C43.2283 72.5947 43.0135 72.4758 42.7649 72.3941C42.5199 72.3089 42.2482 72.2662 41.9499 72.2662C41.4208 72.2662 40.9645 72.3959 40.581 72.6551C40.201 72.9143 39.908 73.289 39.7021 73.779C39.4996 74.2691 39.3984 74.8621 39.3984 75.5581C39.3984 76.2826 39.5014 76.8898 39.7074 77.3799C39.9169 77.8664 40.2099 78.2339 40.5863 78.4825C40.9663 78.7275 41.4155 78.8501 41.9339 78.8501C42.2251 78.8501 42.4897 78.8128 42.7276 78.7382C42.9691 78.6636 43.1804 78.5553 43.3615 78.4133C43.5462 78.2677 43.6971 78.0919 43.8143 77.8859C43.935 77.6764 44.0185 77.4403 44.0646 77.1775L46.728 77.1934C46.6818 77.6764 46.5415 78.1523 46.3072 78.621C46.0763 79.0898 45.7585 79.5177 45.3537 79.9047C44.9489 80.2883 44.4553 80.5937 43.8729 80.8209C43.294 81.0482 42.63 81.1618 41.8807 81.1618C40.8935 81.1618 40.0092 80.9452 39.228 80.512C38.4503 80.0752 37.8359 79.4395 37.3849 78.605C36.9339 77.7705 36.7085 76.7549 36.7085 75.5581C36.7085 74.3579 36.9375 73.3405 37.3956 72.5059C37.8537 71.6714 38.4734 71.0376 39.2546 70.6043C40.0359 70.1711 40.9112 69.9545 41.8807 69.9545C42.5412 69.9545 43.152 70.0468 43.7131 70.2314C44.2741 70.4126 44.7678 70.6789 45.1939 71.0305C45.62 71.3785 45.9663 71.8064 46.2326 72.3142C46.4989 72.822 46.6641 73.4026 46.728 74.056ZM48.2368 81.0127V70.1036H50.8735V74.4822H55.1721V70.1036H57.8035V81.0127H55.1721V76.6288H50.8735V81.0127H48.2368ZM69.754 75.5581C69.754 76.7584 69.5232 77.7758 69.0615 78.6104C68.5999 79.4449 67.9749 80.0787 67.1865 80.512C66.4017 80.9452 65.521 81.1618 64.5445 81.1618C63.5644 81.1618 62.6819 80.9434 61.8971 80.5067C61.1123 80.0699 60.4891 79.436 60.0274 78.605C59.5693 77.7705 59.3403 76.7549 59.3403 75.5581C59.3403 74.3579 59.5693 73.3405 60.0274 72.5059C60.4891 71.6714 61.1123 71.0376 61.8971 70.6043C62.6819 70.1711 63.5644 69.9545 64.5445 69.9545C65.521 69.9545 66.4017 70.1711 67.1865 70.6043C67.9749 71.0376 68.5999 71.6714 69.0615 72.5059C69.5232 73.3405 69.754 74.3579 69.754 75.5581ZM67.0587 75.5581C67.0587 74.8479 66.9575 74.2478 66.7551 73.7577C66.5562 73.2677 66.2686 72.8966 65.8921 72.6444C65.5193 72.3923 65.07 72.2662 64.5445 72.2662C64.0225 72.2662 63.5732 72.3923 63.1968 72.6444C62.8204 72.8966 62.531 73.2677 62.3286 73.7577C62.1297 74.2478 62.0303 74.8479 62.0303 75.5581C62.0303 76.2684 62.1297 76.8685 62.3286 77.3586C62.531 77.8486 62.8204 78.2197 63.1968 78.4719C63.5732 78.724 64.0225 78.8501 64.5445 78.8501C65.07 78.8501 65.5193 78.724 65.8921 78.4719C66.2686 78.2197 66.5562 77.8486 66.7551 77.3586C66.9575 76.8685 67.0587 76.2684 67.0587 75.5581ZM81.5899 75.5581C81.5899 76.7584 81.3591 77.7758 80.8975 78.6104C80.4358 79.4449 79.8108 80.0787 79.0225 80.512C78.2377 80.9452 77.357 81.1618 76.3804 81.1618C75.4003 81.1618 74.5178 80.9434 73.733 80.5067C72.9482 80.0699 72.325 79.436 71.8634 78.605C71.4053 77.7705 71.1762 76.7549 71.1762 75.5581C71.1762 74.3579 71.4053 73.3405 71.8634 72.5059C72.325 71.6714 72.9482 71.0376 73.733 70.6043C74.5178 70.1711 75.4003 69.9545 76.3804 69.9545C77.357 69.9545 78.2377 70.1711 79.0225 70.6043C79.8108 71.0376 80.4358 71.6714 80.8975 72.5059C81.3591 73.3405 81.5899 74.3579 81.5899 75.5581ZM78.8946 75.5581C78.8946 74.8479 78.7934 74.2478 78.591 73.7577C78.3921 73.2677 78.1045 72.8966 77.7281 72.6444C77.3552 72.3923 76.906 72.2662 76.3804 72.2662C75.8584 72.2662 75.4092 72.3923 75.0328 72.6444C74.6563 72.8966 74.3669 73.2677 74.1645 73.7577C73.9656 74.2478 73.8662 74.8479 73.8662 75.5581C73.8662 76.2684 73.9656 76.8685 74.1645 77.3586C74.3669 77.8486 74.6563 78.2197 75.0328 78.4719C75.4092 78.724 75.8584 78.8501 76.3804 78.8501C76.906 78.8501 77.3552 78.724 77.7281 78.4719C78.1045 78.2197 78.3921 77.8486 78.591 77.3586C78.7934 76.8685 78.8946 76.2684 78.8946 75.5581ZM89.026 73.3742C88.9905 72.9836 88.8325 72.68 88.5519 72.4633C88.2749 72.2432 87.879 72.1331 87.3641 72.1331C87.0232 72.1331 86.7391 72.1775 86.5118 72.2662C86.2845 72.355 86.1141 72.4775 86.0004 72.6338C85.8868 72.7865 85.8282 72.9623 85.8247 73.1611C85.8176 73.3245 85.8495 73.4683 85.9205 73.5926C85.9951 73.7169 86.1017 73.827 86.2401 73.9229C86.3822 74.0152 86.5526 74.0969 86.7515 74.1679C86.9504 74.2389 87.1741 74.301 87.4227 74.3543L88.3602 74.5674C88.8999 74.6846 89.3758 74.8408 89.7877 75.0361C90.2032 75.2314 90.5512 75.464 90.8318 75.7339C91.1159 76.0038 91.3307 76.3145 91.4763 76.6661C91.6219 77.0177 91.6965 77.4118 91.7 77.8486C91.6965 78.5376 91.5225 79.1288 91.178 79.6224C90.8335 80.116 90.3382 80.4942 89.6919 80.757C89.0491 81.0198 88.2732 81.1512 87.3641 81.1512C86.4514 81.1512 85.656 81.0145 84.9777 80.741C84.2994 80.4676 83.7721 80.0521 83.3957 79.4946C83.0193 78.9371 82.8257 78.2322 82.8151 77.3799H85.3399C85.3612 77.7314 85.4553 78.0244 85.6222 78.2588C85.7892 78.4932 86.0182 78.6707 86.3094 78.7915C86.6041 78.9122 86.945 78.9726 87.3321 78.9726C87.6872 78.9726 87.9891 78.9246 88.2377 78.8287C88.4898 78.7329 88.6833 78.5997 88.8183 78.4292C88.9532 78.2588 89.0225 78.0635 89.026 77.8433C89.0225 77.6373 88.9585 77.4616 88.8343 77.316C88.71 77.1668 88.5182 77.039 88.259 76.9324C88.0033 76.8224 87.6766 76.7211 87.2789 76.6288L86.1389 76.3625C85.1943 76.1459 84.4504 75.7961 83.907 75.3131C83.3637 74.8266 83.0938 74.1697 83.0974 73.3422C83.0938 72.6675 83.2749 72.0763 83.6407 71.5684C84.0065 71.0606 84.5125 70.6647 85.1588 70.3806C85.8051 70.0965 86.542 69.9545 87.3694 69.9545C88.2146 69.9545 88.9479 70.0983 89.5693 70.3859C90.1943 70.67 90.6791 71.0695 91.0235 71.5844C91.368 72.0993 91.5438 72.6959 91.5509 73.3742H89.026ZM93.0317 81.0127V70.1036H100.638V72.2449H95.6684V74.4822H100.249V76.6288H95.6684V78.8714H100.638V81.0127H93.0317ZM111.409 73.3742C111.373 72.9836 111.215 72.68 110.935 72.4633C110.658 72.2432 110.262 72.1331 109.747 72.1331C109.406 72.1331 109.122 72.1775 108.895 72.2662C108.667 72.355 108.497 72.4775 108.383 72.6338C108.27 72.7865 108.211 72.9623 108.207 73.1611C108.2 73.3245 108.232 73.4683 108.303 73.5926C108.378 73.7169 108.484 73.827 108.623 73.9229C108.765 74.0152 108.935 74.0969 109.134 74.1679C109.333 74.2389 109.557 74.301 109.805 74.3543L110.743 74.5674C111.283 74.6846 111.759 74.8408 112.171 75.0361C112.586 75.2314 112.934 75.464 113.215 75.7339C113.499 76.0038 113.714 76.3145 113.859 76.6661C114.005 77.0177 114.079 77.4118 114.083 77.8486C114.079 78.5376 113.905 79.1288 113.561 79.6224C113.216 80.116 112.721 80.4942 112.075 80.757C111.432 81.0198 110.656 81.1512 109.747 81.1512C108.834 81.1512 108.039 81.0145 107.361 80.741C106.682 80.4676 106.155 80.0521 105.778 79.4946C105.402 78.9371 105.209 78.2322 105.198 77.3799H107.723C107.744 77.7314 107.838 78.0244 108.005 78.2588C108.172 78.4932 108.401 78.6707 108.692 78.7915C108.987 78.9122 109.328 78.9726 109.715 78.9726C110.07 78.9726 110.372 78.9246 110.62 78.8287C110.873 78.7329 111.066 78.5997 111.201 78.4292C111.336 78.2588 111.405 78.0635 111.409 77.8433C111.405 77.6373 111.341 77.4616 111.217 77.316C111.093 77.1668 110.901 77.039 110.642 76.9324C110.386 76.8224 110.059 76.7211 109.662 76.6288L108.522 76.3625C107.577 76.1459 106.833 75.7961 106.29 75.3131C105.747 74.8266 105.477 74.1697 105.48 73.3422C105.477 72.6675 105.658 72.0763 106.024 71.5684C106.389 71.0606 106.895 70.6647 107.542 70.3806C108.188 70.0965 108.925 69.9545 109.752 69.9545C110.597 69.9545 111.331 70.0983 111.952 70.3859C112.577 70.67 113.062 71.0695 113.406 71.5844C113.751 72.0993 113.927 72.6959 113.934 73.3742H111.409ZM115.058 72.2449V70.1036H124.278V72.2449H120.97V81.0127H118.371V72.2449H115.058ZM126.563 81.0127H123.729L127.41 70.1036H130.921L134.601 81.0127H131.767L129.205 72.8522H129.12L126.563 81.0127ZM126.185 76.7194H132.108V78.7222H126.185V76.7194ZM135.776 81.0127V70.1036H138.413V74.7165H138.556L142.163 70.1036H145.268L141.401 74.9722L145.337 81.0127H142.184L139.467 76.7247L138.413 78.0564V81.0127H135.776ZM148.945 70.1036V81.0127H146.308V70.1036H148.945ZM159.884 70.1036V81.0127H157.647L153.306 74.7165H153.237V81.0127H150.6V70.1036H152.869L157.163 76.3891H157.253V70.1036H159.884ZM168.702 73.6672C168.641 73.4434 168.552 73.2464 168.435 73.0759C168.318 72.9019 168.174 72.7545 168.004 72.6338C167.833 72.5131 167.638 72.4225 167.418 72.3621C167.198 72.2982 166.956 72.2662 166.693 72.2662C166.164 72.2662 165.706 72.3941 165.319 72.6498C164.936 72.9055 164.639 73.2783 164.43 73.7684C164.22 74.2549 164.115 74.8461 164.115 75.5422C164.115 76.2417 164.216 76.8383 164.419 77.3319C164.621 77.8256 164.914 78.202 165.298 78.4612C165.681 78.7204 166.146 78.8501 166.693 78.8501C167.176 78.8501 167.585 78.7719 167.919 78.6157C168.256 78.4559 168.512 78.2304 168.686 77.9392C168.86 77.648 168.947 77.3053 168.947 76.9111L169.437 76.9697H166.784V75.0468H171.487V76.4903C171.487 77.4669 171.28 78.3032 170.864 78.9992C170.452 79.6952 169.884 80.2297 169.16 80.6025C168.439 80.9754 167.61 81.1618 166.672 81.1618C165.632 81.1618 164.717 80.9363 163.929 80.4854C163.14 80.0344 162.526 79.3916 162.086 78.5571C161.645 77.719 161.425 76.7247 161.425 75.5741C161.425 74.6792 161.558 73.8856 161.825 73.1931C162.091 72.4971 162.462 71.9076 162.938 71.4246C163.417 70.9417 163.971 70.5759 164.6 70.3273C165.232 70.0787 165.912 69.9545 166.64 69.9545C167.272 69.9545 167.86 70.045 168.403 70.2261C168.95 70.4072 169.433 70.6629 169.852 70.9932C170.275 71.3234 170.617 71.7158 170.88 72.1704C171.143 72.6249 171.306 73.1238 171.37 73.6672H168.702ZM175.907 72.2449V70.1036H185.128V72.2449H181.82V81.0127H179.22V72.2449H175.907ZM185.872 70.1036H188.818L191.124 74.6686H191.22L193.527 70.1036H196.472L192.483 77.3692V81.0127H189.862V77.3692L185.872 70.1036ZM197.578 81.0127V70.1036H202.084C202.901 70.1036 203.606 70.2634 204.199 70.583C204.795 70.8991 205.255 71.3412 205.578 71.9094C205.901 72.474 206.063 73.1309 206.063 73.8802C206.063 74.6331 205.898 75.2918 205.568 75.8564C205.241 76.4175 204.774 76.8525 204.167 77.1615C203.559 77.4704 202.839 77.6249 202.004 77.6249H199.224V75.5475H201.514C201.912 75.5475 202.244 75.4782 202.51 75.3398C202.78 75.2013 202.984 75.0077 203.123 74.7591C203.261 74.507 203.33 74.214 203.33 73.8802C203.33 73.5429 203.261 73.2517 203.123 73.0067C202.984 72.7581 202.78 72.5663 202.51 72.4314C202.24 72.2964 201.908 72.229 201.514 72.229H200.214V81.0127H197.578ZM207.363 81.0127V70.1036H214.969V72.2449H209.999V74.4822H214.58V76.6288H209.999V78.8714H214.969V81.0127H207.363Z" fill="black"/>
<path d="M232.413 69H250.587C251.844 69 252.473 70.9122 251.583 72.0329L242.499 83.4797C241.949 84.1734 241.051 84.1734 240.501 83.4797L231.417 72.0329C230.527 70.9122 231.156 69 232.413 69Z" fill="black"/>
</svg>
