<svg width="296" height="248" viewBox="0 0 296 248" fill="none" xmlns="http://www.w3.org/2000/svg">
<rect width="296" height="247.113" fill="#D9D9D9"/>
<mask id="path-2-inside-1_268_85" fill="white">
<path d="M211 61.9485L226.208 76.5898L241.417 61.9485"/>
</mask>
<path d="M211 61.9485L226.208 76.5898L241.417 61.9485" fill="black"/>
<path d="M226.208 76.5898L224.128 78.751L226.208 80.7541L228.289 78.751L226.208 76.5898ZM208.919 64.1097L224.128 78.751L228.289 74.4285L213.081 59.7873L208.919 64.1097ZM228.289 78.751L243.497 64.1097L239.336 59.7873L224.128 74.4285L228.289 78.751Z" fill="black" mask="url(#path-2-inside-1_268_85)"/>
<rect x="38" y="74.0046" width="214" height="136.063" fill="#BDBDBD" stroke="#151414" stroke-width="2"/>
<mask id="path-5-inside-2_268_85" fill="white">
<path d="M52.517 133.944V116.489H59.5057C60.7898 116.489 61.8608 116.68 62.7188 117.06C63.5767 117.441 64.2216 117.969 64.6534 118.646C65.0852 119.316 65.3011 120.089 65.3011 120.964C65.3011 121.646 65.1648 122.245 64.892 122.762C64.6193 123.273 64.2443 123.694 63.767 124.023C63.2955 124.347 62.7557 124.577 62.1477 124.714V124.884C62.8125 124.913 63.4347 125.1 64.0142 125.447C64.5994 125.793 65.0739 126.279 65.4375 126.904C65.8011 127.523 65.983 128.262 65.983 129.12C65.983 130.046 65.7528 130.873 65.2926 131.6C64.8381 132.322 64.1648 132.893 63.2727 133.313C62.3807 133.734 61.2813 133.944 59.9744 133.944H52.517ZM56.2074 130.927H59.2159C60.2443 130.927 60.9943 130.731 61.4659 130.339C61.9375 129.941 62.1733 129.413 62.1733 128.754C62.1733 128.271 62.0568 127.844 61.8239 127.475C61.5909 127.106 61.2585 126.816 60.8267 126.606C60.4006 126.396 59.892 126.29 59.3011 126.29H56.2074V130.927ZM56.2074 123.793H58.9432C59.4489 123.793 59.8977 123.705 60.2898 123.529C60.6875 123.347 61 123.092 61.2273 122.762C61.4602 122.432 61.5767 122.038 61.5767 121.577C61.5767 120.947 61.3523 120.438 60.9034 120.052C60.4602 119.665 59.8295 119.472 59.0114 119.472H56.2074V123.793ZM72.0746 116.489V133.944H68.3842V116.489H72.0746ZM74.446 119.532V116.489H88.7812V119.532H83.4375V133.944H79.7898V119.532H74.446ZM105.746 122.6H102.013C101.945 122.117 101.805 121.688 101.595 121.313C101.385 120.932 101.115 120.609 100.786 120.342C100.456 120.075 100.075 119.87 99.6435 119.728C99.2173 119.586 98.7543 119.515 98.2543 119.515C97.3509 119.515 96.5639 119.739 95.8935 120.188C95.223 120.631 94.7031 121.279 94.3338 122.131C93.9645 122.978 93.7798 124.006 93.7798 125.217C93.7798 126.461 93.9645 127.506 94.3338 128.353C94.7088 129.2 95.2315 129.839 95.902 130.271C96.5724 130.702 97.348 130.918 98.2287 130.918C98.723 130.918 99.1804 130.853 99.6009 130.722C100.027 130.592 100.405 130.401 100.734 130.151C101.064 129.896 101.337 129.586 101.553 129.222C101.774 128.859 101.928 128.444 102.013 127.978L105.746 127.995C105.649 128.796 105.408 129.569 105.021 130.313C104.641 131.052 104.126 131.714 103.479 132.299C102.837 132.879 102.07 133.339 101.178 133.68C100.291 134.015 99.2884 134.182 98.169 134.182C96.6122 134.182 95.2202 133.83 93.9929 133.126C92.7713 132.421 91.8054 131.401 91.0952 130.066C90.3906 128.731 90.0384 127.114 90.0384 125.217C90.0384 123.313 90.3963 121.694 91.1122 120.359C91.8281 119.023 92.7997 118.006 94.027 117.307C95.2543 116.603 96.6349 116.251 98.169 116.251C99.1804 116.251 100.118 116.393 100.982 116.677C101.851 116.961 102.621 117.376 103.291 117.921C103.962 118.461 104.507 119.123 104.928 119.907C105.354 120.691 105.626 121.589 105.746 122.6ZM124.432 125.217C124.432 127.12 124.071 128.739 123.349 130.075C122.634 131.41 121.656 132.43 120.418 133.134C119.185 133.833 117.798 134.182 116.259 134.182C114.707 134.182 113.315 133.83 112.082 133.126C110.849 132.421 109.875 131.401 109.159 130.066C108.443 128.731 108.085 127.114 108.085 125.217C108.085 123.313 108.443 121.694 109.159 120.359C109.875 119.023 110.849 118.006 112.082 117.307C113.315 116.603 114.707 116.251 116.259 116.251C117.798 116.251 119.185 116.603 120.418 117.307C121.656 118.006 122.634 119.023 123.349 120.359C124.071 121.694 124.432 123.313 124.432 125.217ZM120.69 125.217C120.69 123.984 120.506 122.944 120.136 122.097C119.773 121.251 119.259 120.609 118.594 120.171C117.929 119.734 117.151 119.515 116.259 119.515C115.366 119.515 114.588 119.734 113.923 120.171C113.259 120.609 112.741 121.251 112.372 122.097C112.009 122.944 111.827 123.984 111.827 125.217C111.827 126.45 112.009 127.489 112.372 128.336C112.741 129.182 113.259 129.825 113.923 130.262C114.588 130.7 115.366 130.918 116.259 130.918C117.151 130.918 117.929 130.7 118.594 130.262C119.259 129.825 119.773 129.182 120.136 128.336C120.506 127.489 120.69 126.45 120.69 125.217ZM130.856 116.489V133.944H127.165V116.489H130.856ZM148.491 116.489V133.944H145.304L137.71 122.958H137.582V133.944H133.892V116.489H137.131L144.665 127.467H144.818V116.489H148.491Z"/>
</mask>
<path d="M52.517 133.944V116.489H59.5057C60.7898 116.489 61.8608 116.68 62.7188 117.06C63.5767 117.441 64.2216 117.969 64.6534 118.646C65.0852 119.316 65.3011 120.089 65.3011 120.964C65.3011 121.646 65.1648 122.245 64.892 122.762C64.6193 123.273 64.2443 123.694 63.767 124.023C63.2955 124.347 62.7557 124.577 62.1477 124.714V124.884C62.8125 124.913 63.4347 125.1 64.0142 125.447C64.5994 125.793 65.0739 126.279 65.4375 126.904C65.8011 127.523 65.983 128.262 65.983 129.12C65.983 130.046 65.7528 130.873 65.2926 131.6C64.8381 132.322 64.1648 132.893 63.2727 133.313C62.3807 133.734 61.2813 133.944 59.9744 133.944H52.517ZM56.2074 130.927H59.2159C60.2443 130.927 60.9943 130.731 61.4659 130.339C61.9375 129.941 62.1733 129.413 62.1733 128.754C62.1733 128.271 62.0568 127.844 61.8239 127.475C61.5909 127.106 61.2585 126.816 60.8267 126.606C60.4006 126.396 59.892 126.29 59.3011 126.29H56.2074V130.927ZM56.2074 123.793H58.9432C59.4489 123.793 59.8977 123.705 60.2898 123.529C60.6875 123.347 61 123.092 61.2273 122.762C61.4602 122.432 61.5767 122.038 61.5767 121.577C61.5767 120.947 61.3523 120.438 60.9034 120.052C60.4602 119.665 59.8295 119.472 59.0114 119.472H56.2074V123.793ZM72.0746 116.489V133.944H68.3842V116.489H72.0746ZM74.446 119.532V116.489H88.7812V119.532H83.4375V133.944H79.7898V119.532H74.446ZM105.746 122.6H102.013C101.945 122.117 101.805 121.688 101.595 121.313C101.385 120.932 101.115 120.609 100.786 120.342C100.456 120.075 100.075 119.87 99.6435 119.728C99.2173 119.586 98.7543 119.515 98.2543 119.515C97.3509 119.515 96.5639 119.739 95.8935 120.188C95.223 120.631 94.7031 121.279 94.3338 122.131C93.9645 122.978 93.7798 124.006 93.7798 125.217C93.7798 126.461 93.9645 127.506 94.3338 128.353C94.7088 129.2 95.2315 129.839 95.902 130.271C96.5724 130.702 97.348 130.918 98.2287 130.918C98.723 130.918 99.1804 130.853 99.6009 130.722C100.027 130.592 100.405 130.401 100.734 130.151C101.064 129.896 101.337 129.586 101.553 129.222C101.774 128.859 101.928 128.444 102.013 127.978L105.746 127.995C105.649 128.796 105.408 129.569 105.021 130.313C104.641 131.052 104.126 131.714 103.479 132.299C102.837 132.879 102.07 133.339 101.178 133.68C100.291 134.015 99.2884 134.182 98.169 134.182C96.6122 134.182 95.2202 133.83 93.9929 133.126C92.7713 132.421 91.8054 131.401 91.0952 130.066C90.3906 128.731 90.0384 127.114 90.0384 125.217C90.0384 123.313 90.3963 121.694 91.1122 120.359C91.8281 119.023 92.7997 118.006 94.027 117.307C95.2543 116.603 96.6349 116.251 98.169 116.251C99.1804 116.251 100.118 116.393 100.982 116.677C101.851 116.961 102.621 117.376 103.291 117.921C103.962 118.461 104.507 119.123 104.928 119.907C105.354 120.691 105.626 121.589 105.746 122.6ZM124.432 125.217C124.432 127.12 124.071 128.739 123.349 130.075C122.634 131.41 121.656 132.43 120.418 133.134C119.185 133.833 117.798 134.182 116.259 134.182C114.707 134.182 113.315 133.83 112.082 133.126C110.849 132.421 109.875 131.401 109.159 130.066C108.443 128.731 108.085 127.114 108.085 125.217C108.085 123.313 108.443 121.694 109.159 120.359C109.875 119.023 110.849 118.006 112.082 117.307C113.315 116.603 114.707 116.251 116.259 116.251C117.798 116.251 119.185 116.603 120.418 117.307C121.656 118.006 122.634 119.023 123.349 120.359C124.071 121.694 124.432 123.313 124.432 125.217ZM120.69 125.217C120.69 123.984 120.506 122.944 120.136 122.097C119.773 121.251 119.259 120.609 118.594 120.171C117.929 119.734 117.151 119.515 116.259 119.515C115.366 119.515 114.588 119.734 113.923 120.171C113.259 120.609 112.741 121.251 112.372 122.097C112.009 122.944 111.827 123.984 111.827 125.217C111.827 126.45 112.009 127.489 112.372 128.336C112.741 129.182 113.259 129.825 113.923 130.262C114.588 130.7 115.366 130.918 116.259 130.918C117.151 130.918 117.929 130.7 118.594 130.262C119.259 129.825 119.773 129.182 120.136 128.336C120.506 127.489 120.69 126.45 120.69 125.217ZM130.856 116.489V133.944H127.165V116.489H130.856ZM148.491 116.489V133.944H145.304L137.71 122.958H137.582V133.944H133.892V116.489H137.131L144.665 127.467H144.818V116.489H148.491Z" fill="black"/>
<path d="M52.517 133.944H51.517V134.944H52.517V133.944ZM52.517 116.489V115.489H51.517V116.489H52.517ZM62.7188 117.06L62.3132 117.974L62.3132 117.974L62.7188 117.06ZM64.6534 118.646L63.8106 119.184L63.8127 119.187L64.6534 118.646ZM64.892 122.762L65.7744 123.233L65.7765 123.229L64.892 122.762ZM63.767 124.023L64.3332 124.848L64.3352 124.846L63.767 124.023ZM62.1477 124.714L61.9289 123.738L61.1477 123.913V124.714H62.1477ZM62.1477 124.884H61.1477V125.842L62.105 125.883L62.1477 124.884ZM64.0142 125.447L63.5009 126.305L63.5046 126.307L64.0142 125.447ZM65.4375 126.904L64.5731 127.407L64.5752 127.41L65.4375 126.904ZM65.2926 131.6L64.4476 131.065L64.4465 131.067L65.2926 131.6ZM63.2727 133.313L62.8464 132.409L62.8464 132.409L63.2727 133.313ZM56.2074 130.927H55.2074V131.927H56.2074V130.927ZM61.4659 130.339L62.1052 131.108L62.1106 131.103L61.4659 130.339ZM61.8239 127.475L60.9781 128.009L60.9781 128.009L61.8239 127.475ZM60.8267 126.606L60.3843 127.503L60.389 127.505L60.8267 126.606ZM56.2074 126.29V125.29H55.2074V126.29H56.2074ZM56.2074 123.793H55.2074V124.793H56.2074V123.793ZM60.2898 123.529L60.6996 124.441L60.7055 124.439L60.2898 123.529ZM61.2273 122.762L60.4106 122.185L60.4041 122.194L61.2273 122.762ZM60.9034 120.052L60.2463 120.806L60.251 120.81L60.9034 120.052ZM56.2074 119.472V118.472H55.2074V119.472H56.2074ZM53.517 133.944V116.489H51.517V133.944H53.517ZM52.517 117.489H59.5057V115.489H52.517V117.489ZM59.5057 117.489C60.6984 117.489 61.6207 117.667 62.3132 117.974L63.1243 116.146C62.1008 115.692 60.8811 115.489 59.5057 115.489V117.489ZM62.3132 117.974C63.0228 118.289 63.5015 118.7 63.8106 119.184L65.4962 118.107C64.9417 117.239 64.1306 116.593 63.1243 116.146L62.3132 117.974ZM63.8127 119.187C64.1305 119.68 64.3011 120.261 64.3011 120.964H66.3011C66.3011 119.916 66.04 118.952 65.4941 118.104L63.8127 119.187ZM64.3011 120.964C64.3011 121.51 64.1927 121.944 64.0075 122.295L65.7765 123.229C66.1368 122.546 66.3011 121.781 66.3011 120.964H64.3011ZM64.0097 122.291C63.8121 122.662 63.5449 122.962 63.1989 123.2L64.3352 124.846C64.9437 124.426 65.4265 123.885 65.7744 123.233L64.0097 122.291ZM63.2009 123.199C62.8434 123.445 62.4236 123.627 61.9289 123.738L62.3666 125.689C63.0877 125.528 63.7475 125.25 64.3332 124.848L63.2009 123.199ZM61.1477 124.714V124.884H63.1477V124.714H61.1477ZM62.105 125.883C62.6011 125.904 63.0619 126.042 63.5009 126.305L64.5275 124.588C63.8074 124.158 63.0239 123.921 62.1904 123.885L62.105 125.883ZM63.5046 126.307C63.9337 126.561 64.2897 126.92 64.5732 127.407L66.3018 126.401C65.858 125.638 65.2651 125.025 64.5238 124.586L63.5046 126.307ZM64.5752 127.41C64.8325 127.849 64.983 128.405 64.983 129.12H66.983C66.983 128.119 66.7697 127.198 66.2998 126.398L64.5752 127.41ZM64.983 129.12C64.983 129.872 64.7988 130.51 64.4476 131.065L66.1376 132.135C66.7068 131.235 66.983 130.22 66.983 129.12H64.983ZM64.4465 131.067C64.1087 131.603 63.5935 132.056 62.8464 132.409L63.6991 134.218C64.7361 133.729 65.5675 133.04 66.1387 132.133L64.4465 131.067ZM62.8464 132.409C62.1236 132.749 61.1796 132.944 59.9744 132.944V134.944C61.3829 134.944 62.6377 134.718 63.6991 134.218L62.8464 132.409ZM59.9744 132.944H52.517V134.944H59.9744V132.944ZM56.2074 131.927H59.2159V129.927H56.2074V131.927ZM59.2159 131.927C60.3325 131.927 61.3673 131.721 62.1052 131.108L60.8266 129.57C60.6213 129.74 60.1561 129.927 59.2159 129.927V131.927ZM62.1106 131.103C62.8245 130.501 63.1733 129.684 63.1733 128.754H61.1733C61.1733 129.141 61.0505 129.381 60.8212 129.574L62.1106 131.103ZM63.1733 128.754C63.1733 128.102 63.0139 127.487 62.6697 126.942L60.9781 128.009C61.0998 128.202 61.1733 128.439 61.1733 128.754H63.1733ZM62.6697 126.942C62.3276 126.399 61.8464 125.99 61.2644 125.707L60.389 127.505C60.6707 127.642 60.8542 127.812 60.9781 128.009L62.6697 126.942ZM61.2691 125.709C60.676 125.416 60.0089 125.29 59.3011 125.29V127.29C59.7751 127.29 60.1251 127.375 60.3843 127.503L61.2691 125.709ZM59.3011 125.29H56.2074V127.29H59.3011V125.29ZM55.2074 126.29V130.927H57.2074V126.29H55.2074ZM56.2074 124.793H58.9432V122.793H56.2074V124.793ZM58.9432 124.793C59.5655 124.793 60.1579 124.685 60.6996 124.441L59.88 122.617C59.6375 122.726 59.3323 122.793 58.9432 122.793V124.793ZM60.7055 124.439C61.2518 124.189 61.7114 123.821 62.0505 123.33L60.4041 122.194C60.2886 122.362 60.1232 122.506 59.874 122.62L60.7055 124.439ZM62.0439 123.339C62.4124 122.818 62.5767 122.214 62.5767 121.577H60.5767C60.5767 121.861 60.508 122.047 60.4107 122.185L62.0439 123.339ZM62.5767 121.577C62.5767 120.677 62.2411 119.884 61.5558 119.294L60.251 120.81C60.4634 120.993 60.5767 121.216 60.5767 121.577H62.5767ZM61.5605 119.298C60.8749 118.7 59.9768 118.472 59.0114 118.472V120.472C59.6823 120.472 60.0455 120.631 60.2463 120.806L61.5605 119.298ZM59.0114 118.472H56.2074V120.472H59.0114V118.472ZM55.2074 119.472V123.793H57.2074V119.472H55.2074ZM72.0746 116.489H73.0746V115.489H72.0746V116.489ZM72.0746 133.944V134.944H73.0746V133.944H72.0746ZM68.3842 133.944H67.3842V134.944H68.3842V133.944ZM68.3842 116.489V115.489H67.3842V116.489H68.3842ZM71.0746 116.489V133.944H73.0746V116.489H71.0746ZM72.0746 132.944H68.3842V134.944H72.0746V132.944ZM69.3842 133.944V116.489H67.3842V133.944H69.3842ZM68.3842 117.489H72.0746V115.489H68.3842V117.489ZM74.446 119.532H73.446V120.532H74.446V119.532ZM74.446 116.489V115.489H73.446V116.489H74.446ZM88.7812 116.489H89.7812V115.489H88.7812V116.489ZM88.7812 119.532V120.532H89.7812V119.532H88.7812ZM83.4375 119.532V118.532H82.4375V119.532H83.4375ZM83.4375 133.944V134.944H84.4375V133.944H83.4375ZM79.7898 133.944H78.7898V134.944H79.7898V133.944ZM79.7898 119.532H80.7898V118.532H79.7898V119.532ZM75.446 119.532V116.489H73.446V119.532H75.446ZM74.446 117.489H88.7812V115.489H74.446V117.489ZM87.7812 116.489V119.532H89.7812V116.489H87.7812ZM88.7812 118.532H83.4375V120.532H88.7812V118.532ZM82.4375 119.532V133.944H84.4375V119.532H82.4375ZM83.4375 132.944H79.7898V134.944H83.4375V132.944ZM80.7898 133.944V119.532H78.7898V133.944H80.7898ZM79.7898 118.532H74.446V120.532H79.7898V118.532ZM105.746 122.6V123.6H106.871L106.739 122.483L105.746 122.6ZM102.013 122.6L101.023 122.74L101.144 123.6H102.013V122.6ZM101.595 121.313L100.72 121.797L100.723 121.802L101.595 121.313ZM100.786 120.342L100.156 121.119L100.156 121.119L100.786 120.342ZM99.6435 119.728L99.3272 120.677L99.331 120.678L99.6435 119.728ZM95.8935 120.188L96.4449 121.022L96.4498 121.019L95.8935 120.188ZM94.3338 122.131L95.2504 122.531L95.2514 122.529L94.3338 122.131ZM94.3338 128.353L93.4172 128.753L93.4195 128.758L94.3338 128.353ZM95.902 130.271L95.3605 131.111L95.3605 131.111L95.902 130.271ZM99.6009 130.722L99.3077 129.766L99.304 129.767L99.6009 130.722ZM100.734 130.151L101.339 130.948L101.347 130.941L100.734 130.151ZM101.553 129.222L100.699 128.702L100.693 128.712L101.553 129.222ZM102.013 127.978L102.017 126.978L101.18 126.974L101.029 127.798L102.013 127.978ZM105.746 127.995L106.739 128.115L106.873 127L105.75 126.995L105.746 127.995ZM105.021 130.313L104.134 129.852L104.132 129.855L105.021 130.313ZM103.479 132.299L104.149 133.041L104.149 133.041L103.479 132.299ZM101.178 133.68L101.531 134.615L101.535 134.614L101.178 133.68ZM93.9929 133.126L93.4933 133.992L93.495 133.993L93.9929 133.126ZM91.0952 130.066L90.2107 130.533L90.2123 130.536L91.0952 130.066ZM91.1122 120.359L91.9935 120.831L91.9935 120.831L91.1122 120.359ZM94.027 117.307L94.5218 118.176L94.5249 118.175L94.027 117.307ZM100.982 116.677L100.669 117.627L100.671 117.627L100.982 116.677ZM103.291 117.921L102.66 118.697L102.664 118.7L103.291 117.921ZM104.928 119.907L104.046 120.379L104.049 120.384L104.928 119.907ZM105.746 121.6H102.013V123.6H105.746V121.6ZM103.003 122.46C102.92 121.871 102.746 121.321 102.467 120.824L100.723 121.802C100.865 122.056 100.969 122.363 101.023 122.74L103.003 122.46ZM102.471 120.83C102.2 120.339 101.847 119.915 101.415 119.565L100.156 121.119C100.383 121.302 100.57 121.526 100.72 121.797L102.471 120.83ZM101.415 119.565C100.985 119.216 100.495 118.955 99.9559 118.778L99.331 120.678C99.6558 120.785 99.9273 120.933 100.156 121.119L101.415 119.565ZM99.9597 118.779C99.4208 118.6 98.8497 118.515 98.2543 118.515V120.515C98.6588 120.515 99.0139 120.572 99.3272 120.677L99.9597 118.779ZM98.2543 118.515C97.1773 118.515 96.1915 118.785 95.3371 119.357L96.4498 121.019C96.9363 120.693 97.5244 120.515 98.2543 120.515V118.515ZM95.342 119.354C94.4858 119.92 93.8504 120.732 93.4163 121.734L95.2514 122.529C95.5559 121.826 95.9603 121.343 96.4449 121.022L95.342 119.354ZM93.4172 121.731C92.9787 122.737 92.7798 123.909 92.7798 125.217H94.7798C94.7798 124.103 94.9503 123.219 95.2504 122.531L93.4172 121.731ZM92.7798 125.217C92.7798 126.553 92.9773 127.744 93.4172 128.753L95.2504 127.953C94.9516 127.268 94.7798 126.368 94.7798 125.217H92.7798ZM93.4195 128.758C93.8605 129.754 94.5008 130.558 95.3605 131.111L96.4435 129.43C95.9623 129.12 95.5571 128.645 95.2481 127.948L93.4195 128.758ZM95.3605 131.111C96.209 131.658 97.1767 131.918 98.2287 131.918V129.918C97.5193 129.918 96.9359 129.747 96.4435 129.43L95.3605 131.111ZM98.2287 131.918C98.8115 131.918 99.3701 131.841 99.8977 131.677L99.304 129.767C98.9907 129.865 98.6345 129.918 98.2287 129.918V131.918ZM99.894 131.678C100.424 131.516 100.909 131.274 101.339 130.948L100.13 129.355C99.901 129.528 99.6303 129.667 99.3077 129.766L99.894 131.678ZM101.347 130.941C101.777 130.608 102.133 130.203 102.412 129.733L100.693 128.712C100.54 128.969 100.35 129.183 100.121 129.361L101.347 130.941ZM102.406 129.743C102.699 129.263 102.892 128.731 102.996 128.158L101.029 127.798C100.963 128.157 100.85 128.454 100.699 128.702L102.406 129.743ZM102.008 128.978L105.741 128.995L105.75 126.995L102.017 126.978L102.008 128.978ZM104.753 127.875C104.671 128.553 104.467 129.21 104.134 129.852L105.909 130.774C106.348 129.927 106.627 129.04 106.739 128.115L104.753 127.875ZM104.132 129.855C103.81 130.481 103.371 131.048 102.808 131.557L104.149 133.041C104.882 132.379 105.472 131.622 105.91 130.771L104.132 129.855ZM102.809 131.557C102.267 132.045 101.609 132.444 100.821 132.746L101.535 134.614C102.53 134.233 103.406 133.712 104.149 133.041L102.809 131.557ZM100.824 132.744C100.069 133.03 99.1889 133.182 98.169 133.182V135.182C99.3878 135.182 100.513 135 101.531 134.615L100.824 132.744ZM98.169 133.182C96.769 133.182 95.5517 132.867 94.4908 132.258L93.495 133.993C94.8887 134.793 96.4555 135.182 98.169 135.182V133.182ZM94.4925 132.259C93.4452 131.655 92.6069 130.779 91.978 129.596L90.2123 130.536C91.0039 132.024 92.0974 133.187 93.4933 133.992L94.4925 132.259ZM91.9796 129.599C91.368 128.44 91.0384 126.993 91.0384 125.217H89.0384C89.0384 127.236 89.4133 129.021 90.2107 130.533L91.9796 129.599ZM91.0384 125.217C91.0384 123.437 91.373 121.988 91.9935 120.831L90.2309 119.886C89.4196 121.399 89.0384 123.19 89.0384 125.217H91.0384ZM91.9935 120.831C92.6272 119.649 93.4701 118.775 94.5218 118.176L93.5322 116.438C92.1293 117.237 91.029 118.398 90.2309 119.886L91.9935 120.831ZM94.5249 118.175C95.588 117.564 96.7945 117.251 98.169 117.251V115.251C96.4754 115.251 94.9205 115.641 93.5291 116.44L94.5249 118.175ZM98.169 117.251C99.0861 117.251 99.9169 117.379 100.669 117.627L101.294 115.727C100.319 115.406 99.2747 115.251 98.169 115.251V117.251ZM100.671 117.627C101.43 117.876 102.09 118.233 102.66 118.697L103.922 117.145C103.151 116.518 102.271 116.046 101.292 115.726L100.671 117.627ZM102.664 118.7C103.227 119.153 103.687 119.709 104.046 120.379L105.809 119.434C105.327 118.536 104.697 117.769 103.918 117.142L102.664 118.7ZM104.049 120.384C104.406 121.042 104.646 121.815 104.753 122.717L106.739 122.483C106.607 121.363 106.301 120.34 105.806 119.429L104.049 120.384ZM123.349 130.075L122.47 129.599L122.468 129.602L123.349 130.075ZM120.418 133.134L120.911 134.004L120.912 134.003L120.418 133.134ZM112.082 133.126L112.579 132.257L112.082 133.126ZM109.159 130.066L108.278 130.539L108.278 130.539L109.159 130.066ZM109.159 120.359L110.04 120.831L110.04 120.831L109.159 120.359ZM112.082 117.307L112.576 118.177L112.579 118.176L112.082 117.307ZM120.418 117.307L119.921 118.176L119.926 118.178L120.418 117.307ZM123.349 120.359L122.468 120.831L122.47 120.834L123.349 120.359ZM120.136 122.097L119.218 122.492L119.22 122.497L120.136 122.097ZM118.594 120.171L118.044 121.006L118.044 121.006L118.594 120.171ZM113.923 120.171L114.473 121.006L114.473 121.006L113.923 120.171ZM112.372 122.097L111.456 121.697L111.453 121.703L112.372 122.097ZM112.372 128.336L111.453 128.731L111.456 128.736L112.372 128.336ZM113.923 130.262L114.473 129.427L114.473 129.427L113.923 130.262ZM118.594 130.262L118.044 129.427L118.044 129.427L118.594 130.262ZM120.136 128.336L119.22 127.936L119.218 127.941L120.136 128.336ZM123.432 125.217C123.432 126.995 123.095 128.442 122.47 129.599L124.229 130.55C125.047 129.036 125.432 127.245 125.432 125.217H123.432ZM122.468 129.602C121.835 130.782 120.988 131.66 119.923 132.265L120.912 134.003C122.325 133.2 123.432 132.037 124.231 130.547L122.468 129.602ZM119.924 132.264C118.855 132.871 117.641 133.182 116.259 133.182V135.182C117.956 135.182 119.515 134.796 120.911 134.004L119.924 132.264ZM116.259 133.182C114.865 133.182 113.647 132.868 112.579 132.257L111.586 133.994C112.984 134.793 114.55 135.182 116.259 135.182V133.182ZM112.579 132.257C111.52 131.652 110.674 130.775 110.04 129.593L108.278 130.539C109.076 132.028 110.179 133.19 111.586 133.994L112.579 132.257ZM110.04 129.593C109.42 128.436 109.085 126.99 109.085 125.217H107.085C107.085 127.238 107.467 129.026 108.278 130.539L110.04 129.593ZM109.085 125.217C109.085 123.437 109.42 121.988 110.04 120.831L108.278 119.886C107.466 121.399 107.085 123.19 107.085 125.217H109.085ZM110.04 120.831C110.673 119.65 111.518 118.777 112.575 118.177L111.589 116.438C110.181 117.236 109.077 118.396 108.278 119.886L110.04 120.831ZM112.579 118.176C113.647 117.565 114.865 117.251 116.259 117.251V115.251C114.55 115.251 112.984 115.641 111.586 116.439L112.579 118.176ZM116.259 117.251C117.639 117.251 118.852 117.565 119.921 118.176L120.914 116.439C119.517 115.641 117.957 115.251 116.259 115.251V117.251ZM119.926 118.178C120.989 118.778 121.836 119.652 122.468 120.831L124.231 119.886C123.431 118.395 122.324 117.235 120.909 116.437L119.926 118.178ZM122.47 120.834C123.095 121.991 123.432 123.438 123.432 125.217H125.432C125.432 123.189 125.047 121.397 124.229 119.883L122.47 120.834ZM121.69 125.217C121.69 123.89 121.492 122.705 121.053 121.697L119.22 122.497C119.519 123.183 119.69 124.078 119.69 125.217H121.69ZM121.055 121.703C120.627 120.705 119.996 119.897 119.143 119.336L118.044 121.006C118.521 121.32 118.919 121.796 119.218 122.492L121.055 121.703ZM119.143 119.336C118.296 118.778 117.322 118.515 116.259 118.515V120.515C116.98 120.515 117.562 120.689 118.044 121.006L119.143 119.336ZM116.259 118.515C115.196 118.515 114.221 118.778 113.374 119.336L114.473 121.006C114.955 120.689 115.537 120.515 116.259 120.515V118.515ZM113.374 119.336C112.522 119.896 111.89 120.702 111.456 121.697L113.289 122.497C113.593 121.799 113.995 121.321 114.473 121.006L113.374 119.336ZM111.453 121.703C111.021 122.708 110.827 123.891 110.827 125.217H112.827C112.827 124.076 112.996 123.179 113.291 122.492L111.453 121.703ZM110.827 125.217C110.827 126.542 111.021 127.725 111.453 128.731L113.291 127.941C112.996 127.254 112.827 126.357 112.827 125.217H110.827ZM111.456 128.736C111.89 129.731 112.522 130.537 113.374 131.097L114.473 129.427C113.995 129.112 113.593 128.634 113.289 127.936L111.456 128.736ZM113.374 131.097C114.221 131.655 115.196 131.918 116.259 131.918V129.918C115.537 129.918 114.955 129.744 114.473 129.427L113.374 131.097ZM116.259 131.918C117.322 131.918 118.296 131.655 119.143 131.097L118.044 129.427C117.562 129.744 116.98 129.918 116.259 129.918V131.918ZM119.143 131.097C119.996 130.536 120.627 129.728 121.055 128.731L119.218 127.941C118.919 128.637 118.521 129.113 118.044 129.427L119.143 131.097ZM121.053 128.736C121.492 127.728 121.69 126.543 121.69 125.217H119.69C119.69 126.356 119.519 127.25 119.22 127.936L121.053 128.736ZM130.856 116.489H131.856V115.489H130.856V116.489ZM130.856 133.944V134.944H131.856V133.944H130.856ZM127.165 133.944H126.165V134.944H127.165V133.944ZM127.165 116.489V115.489H126.165V116.489H127.165ZM129.856 116.489V133.944H131.856V116.489H129.856ZM130.856 132.944H127.165V134.944H130.856V132.944ZM128.165 133.944V116.489H126.165V133.944H128.165ZM127.165 117.489H130.856V115.489H127.165V117.489ZM148.491 116.489H149.491V115.489H148.491V116.489ZM148.491 133.944V134.944H149.491V133.944H148.491ZM145.304 133.944L144.481 134.512L144.78 134.944H145.304V133.944ZM137.71 122.958L138.533 122.389L138.235 121.958H137.71V122.958ZM137.582 122.958V121.958H136.582V122.958H137.582ZM137.582 133.944V134.944H138.582V133.944H137.582ZM133.892 133.944H132.892V134.944H133.892V133.944ZM133.892 116.489V115.489H132.892V116.489H133.892ZM137.131 116.489L137.955 115.923L137.657 115.489H137.131V116.489ZM144.665 127.467L143.84 128.032L144.138 128.467H144.665V127.467ZM144.818 127.467V128.467H145.818V127.467H144.818ZM144.818 116.489V115.489H143.818V116.489H144.818ZM147.491 116.489V133.944H149.491V116.489H147.491ZM148.491 132.944H145.304V134.944H148.491V132.944ZM146.127 133.375L138.533 122.389L136.888 123.527L144.481 134.512L146.127 133.375ZM137.71 121.958H137.582V123.958H137.71V121.958ZM136.582 122.958V133.944H138.582V122.958H136.582ZM137.582 132.944H133.892V134.944H137.582V132.944ZM134.892 133.944V116.489H132.892V133.944H134.892ZM133.892 117.489H137.131V115.489H133.892V117.489ZM136.306 117.055L143.84 128.032L145.489 126.901L137.955 115.923L136.306 117.055ZM144.665 128.467H144.818V126.467H144.665V128.467ZM145.818 127.467V116.489H143.818V127.467H145.818ZM144.818 117.489H148.491V115.489H144.818V117.489Z" fill="#151414" mask="url(#path-5-inside-2_268_85)"/>
<line x1="37" y1="141.536" x2="253" y2="141.536" stroke="#151414"/>
<mask id="path-8-inside-3_268_85" fill="white">
<path d="M61.9858 156.603C61.9176 155.916 61.625 155.382 61.108 155.001C60.5909 154.62 59.8892 154.43 59.0028 154.43C58.4006 154.43 57.892 154.515 57.4773 154.686C57.0625 154.85 56.7443 155.08 56.5227 155.376C56.3068 155.671 56.1989 156.007 56.1989 156.382C56.1875 156.694 56.2528 156.967 56.3949 157.2C56.5426 157.433 56.7443 157.634 57 157.805C57.2557 157.97 57.5511 158.115 57.8864 158.24C58.2216 158.359 58.5795 158.461 58.9602 158.546L60.5284 158.921C61.2898 159.092 61.9886 159.319 62.625 159.603C63.2614 159.887 63.8125 160.237 64.2784 160.651C64.7443 161.066 65.1051 161.555 65.3608 162.117C65.6222 162.68 65.7557 163.325 65.7614 164.052C65.7557 165.12 65.483 166.046 64.9432 166.83C64.4091 167.609 63.6364 168.214 62.625 168.646C61.6193 169.072 60.4063 169.285 58.9858 169.285C57.5767 169.285 56.3494 169.069 55.304 168.637C54.2642 168.205 53.4517 167.566 52.8665 166.72C52.2869 165.867 51.983 164.813 51.9545 163.558H55.5256C55.5653 164.143 55.733 164.632 56.0284 165.024C56.3295 165.41 56.7301 165.703 57.2301 165.901C57.7358 166.095 58.3068 166.191 58.9432 166.191C59.5682 166.191 60.1108 166.1 60.571 165.919C61.0369 165.737 61.3977 165.484 61.6534 165.16C61.9091 164.836 62.0369 164.464 62.0369 164.044C62.0369 163.651 61.9205 163.322 61.6875 163.055C61.4602 162.788 61.125 162.561 60.6818 162.373C60.2443 162.186 59.7074 162.015 59.071 161.862L57.1705 161.384C55.6989 161.026 54.5369 160.467 53.6847 159.705C52.8324 158.944 52.4091 157.919 52.4148 156.629C52.4091 155.572 52.6903 154.649 53.2585 153.859C53.8324 153.069 54.6193 152.453 55.6193 152.009C56.6193 151.566 57.7557 151.345 59.0284 151.345C60.3239 151.345 61.4545 151.566 62.4205 152.009C63.392 152.453 64.1477 153.069 64.6875 153.859C65.2273 154.649 65.5057 155.563 65.5227 156.603H61.9858ZM84.2834 160.311C84.2834 162.214 83.9226 163.833 83.201 165.169C82.4851 166.504 81.5078 167.524 80.2692 168.228C79.0362 168.927 77.6499 169.276 76.1101 169.276C74.5589 169.276 73.1669 168.924 71.9339 168.22C70.701 167.515 69.7266 166.495 69.0107 165.16C68.2947 163.825 67.9368 162.208 67.9368 160.311C67.9368 158.407 68.2947 156.788 69.0107 155.453C69.7266 154.117 70.701 153.1 71.9339 152.401C73.1669 151.697 74.5589 151.345 76.1101 151.345C77.6499 151.345 79.0362 151.697 80.2692 152.401C81.5078 153.1 82.4851 154.117 83.201 155.453C83.9226 156.788 84.2834 158.407 84.2834 160.311ZM80.5419 160.311C80.5419 159.078 80.3572 158.038 79.9879 157.191C79.6243 156.345 79.1101 155.703 78.4453 155.265C77.7805 154.828 77.0021 154.609 76.1101 154.609C75.218 154.609 74.4396 154.828 73.7749 155.265C73.1101 155.703 72.593 156.345 72.2237 157.191C71.8601 158.038 71.6783 159.078 71.6783 160.311C71.6783 161.544 71.8601 162.583 72.2237 163.43C72.593 164.276 73.1101 164.919 73.7749 165.356C74.4396 165.794 75.218 166.012 76.1101 166.012C77.0021 166.012 77.7805 165.794 78.4453 165.356C79.1101 164.919 79.6243 164.276 79.9879 163.43C80.3572 162.583 80.5419 161.544 80.5419 160.311ZM87.017 169.038V151.583H90.7074V165.995H98.1903V169.038H87.017ZM104.088 169.038H100.134L106.159 151.583H110.915L116.932 169.038H112.977L108.605 155.572H108.469L104.088 169.038ZM103.841 162.177H113.182V165.058H103.841V162.177ZM133.632 151.583V169.038H130.445L122.851 158.052H122.723V169.038H119.033V151.583H122.271L129.805 162.561H129.959V151.583H133.632ZM139.69 169.038H135.735L141.761 151.583H146.516L152.533 169.038H148.579L144.207 155.572H144.07L139.69 169.038ZM139.442 162.177H148.783V165.058H139.442V162.177Z"/>
</mask>
<path d="M61.9858 156.603C61.9176 155.916 61.625 155.382 61.108 155.001C60.5909 154.62 59.8892 154.43 59.0028 154.43C58.4006 154.43 57.892 154.515 57.4773 154.686C57.0625 154.85 56.7443 155.08 56.5227 155.376C56.3068 155.671 56.1989 156.007 56.1989 156.382C56.1875 156.694 56.2528 156.967 56.3949 157.2C56.5426 157.433 56.7443 157.634 57 157.805C57.2557 157.97 57.5511 158.115 57.8864 158.24C58.2216 158.359 58.5795 158.461 58.9602 158.546L60.5284 158.921C61.2898 159.092 61.9886 159.319 62.625 159.603C63.2614 159.887 63.8125 160.237 64.2784 160.651C64.7443 161.066 65.1051 161.555 65.3608 162.117C65.6222 162.68 65.7557 163.325 65.7614 164.052C65.7557 165.12 65.483 166.046 64.9432 166.83C64.4091 167.609 63.6364 168.214 62.625 168.646C61.6193 169.072 60.4063 169.285 58.9858 169.285C57.5767 169.285 56.3494 169.069 55.304 168.637C54.2642 168.205 53.4517 167.566 52.8665 166.72C52.2869 165.867 51.983 164.813 51.9545 163.558H55.5256C55.5653 164.143 55.733 164.632 56.0284 165.024C56.3295 165.41 56.7301 165.703 57.2301 165.901C57.7358 166.095 58.3068 166.191 58.9432 166.191C59.5682 166.191 60.1108 166.1 60.571 165.919C61.0369 165.737 61.3977 165.484 61.6534 165.16C61.9091 164.836 62.0369 164.464 62.0369 164.044C62.0369 163.651 61.9205 163.322 61.6875 163.055C61.4602 162.788 61.125 162.561 60.6818 162.373C60.2443 162.186 59.7074 162.015 59.071 161.862L57.1705 161.384C55.6989 161.026 54.5369 160.467 53.6847 159.705C52.8324 158.944 52.4091 157.919 52.4148 156.629C52.4091 155.572 52.6903 154.649 53.2585 153.859C53.8324 153.069 54.6193 152.453 55.6193 152.009C56.6193 151.566 57.7557 151.345 59.0284 151.345C60.3239 151.345 61.4545 151.566 62.4205 152.009C63.392 152.453 64.1477 153.069 64.6875 153.859C65.2273 154.649 65.5057 155.563 65.5227 156.603H61.9858ZM84.2834 160.311C84.2834 162.214 83.9226 163.833 83.201 165.169C82.4851 166.504 81.5078 167.524 80.2692 168.228C79.0362 168.927 77.6499 169.276 76.1101 169.276C74.5589 169.276 73.1669 168.924 71.9339 168.22C70.701 167.515 69.7266 166.495 69.0107 165.16C68.2947 163.825 67.9368 162.208 67.9368 160.311C67.9368 158.407 68.2947 156.788 69.0107 155.453C69.7266 154.117 70.701 153.1 71.9339 152.401C73.1669 151.697 74.5589 151.345 76.1101 151.345C77.6499 151.345 79.0362 151.697 80.2692 152.401C81.5078 153.1 82.4851 154.117 83.201 155.453C83.9226 156.788 84.2834 158.407 84.2834 160.311ZM80.5419 160.311C80.5419 159.078 80.3572 158.038 79.9879 157.191C79.6243 156.345 79.1101 155.703 78.4453 155.265C77.7805 154.828 77.0021 154.609 76.1101 154.609C75.218 154.609 74.4396 154.828 73.7749 155.265C73.1101 155.703 72.593 156.345 72.2237 157.191C71.8601 158.038 71.6783 159.078 71.6783 160.311C71.6783 161.544 71.8601 162.583 72.2237 163.43C72.593 164.276 73.1101 164.919 73.7749 165.356C74.4396 165.794 75.218 166.012 76.1101 166.012C77.0021 166.012 77.7805 165.794 78.4453 165.356C79.1101 164.919 79.6243 164.276 79.9879 163.43C80.3572 162.583 80.5419 161.544 80.5419 160.311ZM87.017 169.038V151.583H90.7074V165.995H98.1903V169.038H87.017ZM104.088 169.038H100.134L106.159 151.583H110.915L116.932 169.038H112.977L108.605 155.572H108.469L104.088 169.038ZM103.841 162.177H113.182V165.058H103.841V162.177ZM133.632 151.583V169.038H130.445L122.851 158.052H122.723V169.038H119.033V151.583H122.271L129.805 162.561H129.959V151.583H133.632ZM139.69 169.038H135.735L141.761 151.583H146.516L152.533 169.038H148.579L144.207 155.572H144.07L139.69 169.038ZM139.442 162.177H148.783V165.058H139.442V162.177Z" fill="black"/>
<path d="M61.9858 156.603L60.9907 156.702L61.0801 157.603H61.9858V156.603ZM57.4773 154.686L57.8465 155.615L57.8574 155.611L57.4773 154.686ZM56.5227 155.376L55.7227 154.776L55.7153 154.786L56.5227 155.376ZM56.1989 156.382L57.1982 156.418L57.1989 156.4V156.382H56.1989ZM56.3949 157.2L55.5411 157.72L55.5457 157.728L55.5504 157.735L56.3949 157.2ZM57 157.805L56.4453 158.637L56.4518 158.641L56.4583 158.645L57 157.805ZM57.8864 158.24L57.537 159.177L57.544 159.179L57.551 159.182L57.8864 158.24ZM58.9602 158.546L59.1928 157.574L59.1858 157.572L59.1787 157.571L58.9602 158.546ZM60.5284 158.921L60.2958 159.894L60.3029 159.896L60.3099 159.897L60.5284 158.921ZM62.625 159.603L62.2173 160.516L62.2173 160.516L62.625 159.603ZM64.2784 160.651L64.9433 159.905L64.9433 159.905L64.2784 160.651ZM65.3608 162.117L64.4504 162.531L64.4539 162.539L65.3608 162.117ZM65.7614 164.052L66.7614 164.057L66.7613 164.044L65.7614 164.052ZM64.9432 166.83L64.1195 166.263L64.1186 166.265L64.9432 166.83ZM62.625 168.646L63.0152 169.567L63.0177 169.565L62.625 168.646ZM55.304 168.637L54.9204 169.561L54.9222 169.562L55.304 168.637ZM52.8665 166.72L52.0395 167.282L52.0439 167.288L52.8665 166.72ZM51.9545 163.558V162.558H50.9317L50.9548 163.58L51.9545 163.558ZM55.5256 163.558L56.5233 163.49L56.4599 162.558H55.5256V163.558ZM56.0284 165.024L55.2298 165.625L55.2347 165.632L55.2397 165.638L56.0284 165.024ZM57.2301 165.901L56.8605 166.831L56.8732 166.836L57.2301 165.901ZM60.571 165.919L60.2075 164.987L60.2036 164.988L60.571 165.919ZM61.6534 165.16L62.4383 165.78L62.4383 165.78L61.6534 165.16ZM61.6875 163.055L60.9259 163.703L60.9339 163.712L61.6875 163.055ZM60.6818 162.373L60.2879 163.292L60.2922 163.294L60.6818 162.373ZM59.071 161.862L58.8275 162.832L58.8367 162.834L59.071 161.862ZM57.1705 161.384L57.414 160.415L57.4068 160.413L57.1705 161.384ZM53.6847 159.705L53.0184 160.451L53.0184 160.451L53.6847 159.705ZM52.4148 156.629L53.4148 156.633L53.4148 156.623L52.4148 156.629ZM53.2585 153.859L52.4495 153.271L52.4468 153.275L53.2585 153.859ZM62.4205 152.009L62.0034 152.918L62.0054 152.919L62.4205 152.009ZM64.6875 153.859L63.8619 154.423L63.8619 154.423L64.6875 153.859ZM65.5227 156.603V157.603H66.5393L66.5226 156.587L65.5227 156.603ZM62.9809 156.504C62.8872 155.559 62.4648 154.758 61.7009 154.196L60.5151 155.806C60.7852 156.005 60.9481 156.272 60.9907 156.702L62.9809 156.504ZM61.7009 154.196C60.9575 153.648 60.0231 153.43 59.0028 153.43V155.43C59.7553 155.43 60.2243 155.592 60.5151 155.806L61.7009 154.196ZM59.0028 153.43C58.3123 153.43 57.6662 153.527 57.0972 153.761L57.8574 155.611C58.1179 155.503 58.4888 155.43 59.0028 155.43V153.43ZM57.1081 153.756C56.5579 153.975 56.0759 154.305 55.7227 154.776L57.3227 155.976C57.4127 155.856 57.5671 155.726 57.8465 155.615L57.1081 153.756ZM55.7153 154.786C55.371 155.257 55.1989 155.8 55.1989 156.382H57.1989C57.1989 156.213 57.2426 156.086 57.3301 155.966L55.7153 154.786ZM55.1995 156.345C55.1821 156.824 55.2827 157.297 55.5411 157.72L57.2487 156.679C57.223 156.637 57.1929 156.564 57.1982 156.418L55.1995 156.345ZM55.5504 157.735C55.781 158.099 56.0867 158.398 56.4453 158.637L57.5547 156.973C57.402 156.871 57.3042 156.766 57.2394 156.664L55.5504 157.735ZM56.4583 158.645C56.7839 158.855 57.1458 159.031 57.537 159.177L58.2357 157.303C57.9565 157.198 57.7275 157.084 57.5417 156.964L56.4583 158.645ZM57.551 159.182C57.9279 159.316 58.3252 159.429 58.7418 159.522L59.1787 157.571C58.8339 157.493 58.5152 157.402 58.2217 157.297L57.551 159.182ZM58.7277 159.519L60.2958 159.894L60.761 157.949L59.1928 157.574L58.7277 159.519ZM60.3099 159.897C61.0139 160.055 61.6485 160.262 62.2173 160.516L63.0327 158.69C62.3288 158.376 61.5656 158.129 60.7469 157.946L60.3099 159.897ZM62.2173 160.516C62.7708 160.763 63.2327 161.059 63.6135 161.398L64.9433 159.905C64.3923 159.414 63.7519 159.011 63.0327 158.69L62.2173 160.516ZM63.6135 161.398C63.9763 161.721 64.253 162.097 64.4504 162.531L66.2712 161.704C65.9572 161.013 65.5124 160.411 64.9433 159.905L63.6135 161.398ZM64.4539 162.539C64.6455 162.951 64.7566 163.451 64.7614 164.06L66.7613 164.044C66.7547 163.198 66.5988 162.409 66.2677 161.696L64.4539 162.539ZM64.7614 164.047C64.7566 164.94 64.5318 165.664 64.1195 166.263L65.7669 167.397C66.4341 166.428 66.7547 165.301 66.7613 164.057L64.7614 164.047ZM64.1186 166.265C63.7087 166.862 63.0984 167.356 62.2323 167.726L63.0177 169.565C64.1743 169.072 65.1095 168.356 65.7678 167.396L64.1186 166.265ZM62.2349 167.725C61.3837 168.086 60.3106 168.285 58.9858 168.285V170.285C60.5019 170.285 61.855 170.058 63.0151 169.567L62.2349 167.725ZM58.9858 168.285C57.6766 168.285 56.5844 168.084 55.6857 167.713L54.9222 169.562C56.1145 170.054 57.4768 170.285 58.9858 170.285V168.285ZM55.6875 167.714C54.8078 167.348 54.1549 166.825 53.6891 166.151L52.0439 167.288C52.7485 168.308 53.7206 169.063 54.9204 169.561L55.6875 167.714ZM53.6934 166.157C53.2439 165.496 52.9793 164.64 52.9543 163.535L50.9548 163.58C50.9866 164.986 51.3299 166.238 52.0396 167.282L53.6934 166.157ZM51.9545 164.558H55.5256V162.558H51.9545V164.558ZM54.5279 163.626C54.5782 164.366 54.7965 165.05 55.2298 165.625L56.827 164.422C56.6694 164.213 56.5525 163.92 56.5233 163.49L54.5279 163.626ZM55.2397 165.638C55.6607 166.179 56.2121 166.573 56.8605 166.831L57.5997 164.972C57.2481 164.832 56.9984 164.641 56.8171 164.409L55.2397 165.638ZM56.8732 166.836C57.511 167.079 58.2058 167.191 58.9432 167.191V165.191C58.4078 165.191 57.9606 165.11 57.587 164.967L56.8732 166.836ZM58.9432 167.191C59.6622 167.191 60.3349 167.087 60.9385 166.849L60.2036 164.988C59.8867 165.114 59.4742 165.191 58.9432 165.191V167.191ZM60.9346 166.85C61.5311 166.617 62.0512 166.27 62.4383 165.78L60.8685 164.54C60.7443 164.698 60.5428 164.856 60.2075 164.987L60.9346 166.85ZM62.4383 165.78C62.8361 165.276 63.0369 164.684 63.0369 164.044H61.0369C61.0369 164.244 60.982 164.397 60.8685 164.54L62.4383 165.78ZM63.0369 164.044C63.0369 163.437 62.8502 162.866 62.4411 162.398L60.9339 163.712C60.9907 163.777 61.0369 163.866 61.0369 164.044H63.0369ZM62.449 162.407C62.0903 161.985 61.6076 161.679 61.0715 161.452L60.2922 163.294C60.6424 163.442 60.8301 163.59 60.926 163.703L62.449 162.407ZM61.0757 161.454C60.5715 161.238 59.9776 161.052 59.3054 160.89L58.8367 162.834C59.4372 162.979 59.9171 163.133 60.2879 163.292L61.0757 161.454ZM59.3146 160.892L57.414 160.415L56.9269 162.354L58.8275 162.832L59.3146 160.892ZM57.4068 160.413C56.0449 160.081 55.0472 159.582 54.3509 158.96L53.0184 160.451C54.0266 161.352 55.3528 161.971 56.9341 162.356L57.4068 160.413ZM54.3509 158.96C53.7409 158.415 53.4102 157.678 53.4148 156.633L51.4148 156.624C51.408 158.159 51.9239 159.473 53.0184 160.451L54.3509 158.96ZM53.4148 156.623C53.4101 155.759 53.6363 155.046 54.0703 154.443L52.4468 153.275C51.7443 154.251 51.4081 155.385 51.4148 156.634L53.4148 156.623ZM54.0675 154.447C54.5258 153.816 55.1657 153.304 56.0245 152.924L55.2141 151.095C54.073 151.601 53.139 152.322 52.4495 153.271L54.0675 154.447ZM56.0245 152.924C56.8777 152.546 57.8726 152.345 59.0284 152.345V150.345C57.6388 150.345 56.3609 150.587 55.2141 151.095L56.0245 152.924ZM59.0284 152.345C60.2108 152.345 61.1938 152.547 62.0034 152.918L62.8375 151.101C61.7153 150.586 60.4369 150.345 59.0284 150.345V152.345ZM62.0054 152.919C62.8311 153.296 63.4366 153.801 63.8619 154.423L65.5131 153.295C64.8589 152.337 63.953 151.609 62.8355 151.1L62.0054 152.919ZM63.8619 154.423C64.2816 155.037 64.5087 155.758 64.5229 156.62L66.5226 156.587C66.5026 155.369 66.173 154.26 65.5131 153.295L63.8619 154.423ZM65.5227 155.603H61.9858V157.603H65.5227V155.603ZM83.201 165.169L82.3212 164.693L82.3197 164.696L83.201 165.169ZM80.2692 168.228L80.7623 169.098L80.7636 169.097L80.2692 168.228ZM71.9339 168.22L72.4301 167.351L71.9339 168.22ZM69.0107 165.16L68.1293 165.633L68.1293 165.633L69.0107 165.16ZM69.0107 155.453L69.892 155.925L69.892 155.925L69.0107 155.453ZM71.9339 152.401L72.4271 153.271L72.4301 153.27L71.9339 152.401ZM80.2692 152.401L79.773 153.27L79.7778 153.272L80.2692 152.401ZM83.201 155.453L82.3197 155.925L82.3212 155.928L83.201 155.453ZM79.9879 157.191L79.0691 157.586L79.0713 157.591L79.9879 157.191ZM78.4453 155.265L77.8956 156.1L77.8956 156.1L78.4453 155.265ZM73.7749 155.265L74.3246 156.1L74.3246 156.1L73.7749 155.265ZM72.2237 157.191L71.3071 156.791L71.3049 156.797L72.2237 157.191ZM72.2237 163.43L71.3049 163.825L71.3071 163.83L72.2237 163.43ZM73.7749 165.356L74.3246 164.521L74.3246 164.521L73.7749 165.356ZM78.4453 165.356L77.8956 164.521L77.8956 164.521L78.4453 165.356ZM79.9879 163.43L79.0713 163.03L79.0691 163.035L79.9879 163.43ZM83.2834 160.311C83.2834 162.089 82.9463 163.536 82.3212 164.693L84.0807 165.644C84.8988 164.13 85.2834 162.339 85.2834 160.311H83.2834ZM82.3197 164.696C81.6869 165.876 80.8391 166.754 79.7748 167.359L80.7636 169.097C82.1765 168.294 83.2833 167.131 84.0823 165.641L82.3197 164.696ZM79.7761 167.358C78.7063 167.965 77.4924 168.276 76.1101 168.276V170.276C77.8073 170.276 79.3661 169.89 80.7623 169.098L79.7761 167.358ZM76.1101 168.276C74.7165 168.276 73.4982 167.962 72.4301 167.351L71.4378 169.088C72.8356 169.887 74.4014 170.276 76.1101 170.276V168.276ZM72.4301 167.351C71.3711 166.746 70.5254 165.869 69.892 164.687L68.1293 165.633C68.9278 167.122 70.0309 168.284 71.4378 169.088L72.4301 167.351ZM69.892 164.687C69.2712 163.53 68.9368 162.084 68.9368 160.311H66.9368C66.9368 162.332 67.3183 164.12 68.1293 165.633L69.892 164.687ZM68.9368 160.311C68.9368 158.531 69.2714 157.082 69.892 155.925L68.1293 154.98C67.318 156.493 66.9368 158.284 66.9368 160.311H68.9368ZM69.892 155.925C70.525 154.744 71.3699 153.871 72.4271 153.271L71.4408 151.532C70.0321 152.33 68.9281 153.49 68.1293 154.98L69.892 155.925ZM72.4301 153.27C73.4982 152.659 74.7165 152.345 76.1101 152.345V150.345C74.4014 150.345 72.8356 150.735 71.4378 151.533L72.4301 153.27ZM76.1101 152.345C77.4909 152.345 78.7038 152.659 79.773 153.27L80.7653 151.533C79.3687 150.735 77.8088 150.345 76.1101 150.345V152.345ZM79.7778 153.272C80.8404 153.872 81.6872 154.746 82.3197 155.925L84.0823 154.98C83.2829 153.489 82.1752 152.329 80.7606 151.531L79.7778 153.272ZM82.3212 155.928C82.9463 157.085 83.2834 158.532 83.2834 160.311H85.2834C85.2834 158.283 84.8988 156.491 84.0807 154.977L82.3212 155.928ZM81.5419 160.311C81.5419 158.984 81.344 157.799 80.9045 156.791L79.0713 157.591C79.3705 158.277 79.5419 159.172 79.5419 160.311H81.5419ZM80.9068 156.797C80.4784 155.799 79.8479 154.991 78.9951 154.43L77.8956 156.1C78.3723 156.414 78.7702 156.89 79.0691 157.586L80.9068 156.797ZM78.9951 154.43C78.1478 153.872 77.1731 153.609 76.1101 153.609V155.609C76.8312 155.609 77.4133 155.783 77.8956 156.1L78.9951 154.43ZM76.1101 153.609C75.0471 153.609 74.0724 153.872 73.2251 154.43L74.3246 156.1C74.8069 155.783 75.389 155.609 76.1101 155.609V153.609ZM73.2251 154.43C72.3738 154.99 71.7412 155.796 71.3071 156.791L73.1403 157.591C73.4449 156.893 73.8464 156.415 74.3246 156.1L73.2251 154.43ZM71.3049 156.797C70.8729 157.802 70.6783 158.985 70.6783 160.311H72.6783C72.6783 159.17 72.8473 158.273 73.1425 157.586L71.3049 156.797ZM70.6783 160.311C70.6783 161.636 70.8729 162.819 71.3049 163.825L73.1425 163.035C72.8473 162.348 72.6783 161.451 72.6783 160.311H70.6783ZM71.3071 163.83C71.7412 164.825 72.3738 165.631 73.2251 166.191L74.3246 164.521C73.8464 164.206 73.4449 163.728 73.1403 163.03L71.3071 163.83ZM73.2251 166.191C74.0724 166.749 75.0471 167.012 76.1101 167.012V165.012C75.389 165.012 74.8069 164.838 74.3246 164.521L73.2251 166.191ZM76.1101 167.012C77.1731 167.012 78.1478 166.749 78.9951 166.191L77.8956 164.521C77.4133 164.838 76.8312 165.012 76.1101 165.012V167.012ZM78.9951 166.191C79.8479 165.63 80.4784 164.822 80.9068 163.825L79.0691 163.035C78.7702 163.731 78.3723 164.207 77.8956 164.521L78.9951 166.191ZM80.9045 163.83C81.344 162.822 81.5419 161.637 81.5419 160.311H79.5419C79.5419 161.45 79.3705 162.344 79.0713 163.03L80.9045 163.83ZM87.017 169.038H86.017V170.038H87.017V169.038ZM87.017 151.583V150.583H86.017V151.583H87.017ZM90.7074 151.583H91.7074V150.583H90.7074V151.583ZM90.7074 165.995H89.7074V166.995H90.7074V165.995ZM98.1903 165.995H99.1903V164.995H98.1903V165.995ZM98.1903 169.038V170.038H99.1903V169.038H98.1903ZM88.017 169.038V151.583H86.017V169.038H88.017ZM87.017 152.583H90.7074V150.583H87.017V152.583ZM89.7074 151.583V165.995H91.7074V151.583H89.7074ZM90.7074 166.995H98.1903V164.995H90.7074V166.995ZM97.1903 165.995V169.038H99.1903V165.995H97.1903ZM98.1903 168.038H87.017V170.038H98.1903V168.038ZM104.088 169.038V170.038H104.814L105.039 169.347L104.088 169.038ZM100.134 169.038L99.1883 168.712L98.7304 170.038H100.134V169.038ZM106.159 151.583V150.583H105.446L105.214 151.257L106.159 151.583ZM110.915 151.583L111.86 151.257L111.628 150.583H110.915V151.583ZM116.932 169.038V170.038H118.334L117.877 168.712L116.932 169.038ZM112.977 169.038L112.026 169.347L112.251 170.038H112.977V169.038ZM108.605 155.572L109.556 155.263L109.332 154.572H108.605V155.572ZM108.469 155.572V154.572H107.742L107.518 155.263L108.469 155.572ZM103.841 162.177V161.177H102.841V162.177H103.841ZM113.182 162.177H114.182V161.177H113.182V162.177ZM113.182 165.058V166.058H114.182V165.058H113.182ZM103.841 165.058H102.841V166.058H103.841V165.058ZM104.088 168.038H100.134V170.038H104.088V168.038ZM101.079 169.364L107.104 151.91L105.214 151.257L99.1883 168.712L101.079 169.364ZM106.159 152.583H110.915V150.583H106.159V152.583ZM109.969 151.909L115.986 169.364L117.877 168.712L111.86 151.257L109.969 151.909ZM116.932 168.038H112.977V170.038H116.932V168.038ZM113.928 168.729L109.556 155.263L107.654 155.881L112.026 169.347L113.928 168.729ZM108.605 154.572H108.469V156.572H108.605V154.572ZM107.518 155.263L103.137 168.728L105.039 169.347L109.42 155.881L107.518 155.263ZM103.841 163.177H113.182V161.177H103.841V163.177ZM112.182 162.177V165.058H114.182V162.177H112.182ZM113.182 164.058H103.841V166.058H113.182V164.058ZM104.841 165.058V162.177H102.841V165.058H104.841ZM133.632 151.583H134.632V150.583H133.632V151.583ZM133.632 169.038V170.038H134.632V169.038H133.632ZM130.445 169.038L129.622 169.606L129.92 170.038H130.445V169.038ZM122.851 158.052L123.673 157.483L123.375 157.052H122.851V158.052ZM122.723 158.052V157.052H121.723V158.052H122.723ZM122.723 169.038V170.038H123.723V169.038H122.723ZM119.033 169.038H118.033V170.038H119.033V169.038ZM119.033 151.583V150.583H118.033V151.583H119.033ZM122.271 151.583L123.096 151.017L122.798 150.583H122.271V151.583ZM129.805 162.561L128.981 163.126L129.279 163.561H129.805V162.561ZM129.959 162.561V163.561H130.959V162.561H129.959ZM129.959 151.583V150.583H128.959V151.583H129.959ZM132.632 151.583V169.038H134.632V151.583H132.632ZM133.632 168.038H130.445V170.038H133.632V168.038ZM131.267 168.469L123.673 157.483L122.028 158.621L129.622 169.606L131.267 168.469ZM122.851 157.052H122.723V159.052H122.851V157.052ZM121.723 158.052V169.038H123.723V158.052H121.723ZM122.723 168.038H119.033V170.038H122.723V168.038ZM120.033 169.038V151.583H118.033V169.038H120.033ZM119.033 152.583H122.271V150.583H119.033V152.583ZM121.447 152.149L128.981 163.126L130.63 161.995L123.096 151.017L121.447 152.149ZM129.805 163.561H129.959V161.561H129.805V163.561ZM130.959 162.561V151.583H128.959V162.561H130.959ZM129.959 152.583H133.632V150.583H129.959V152.583ZM139.69 169.038V170.038H140.416L140.641 169.347L139.69 169.038ZM135.735 169.038L134.79 168.712L134.332 170.038H135.735V169.038ZM141.761 151.583V150.583H141.048L140.815 151.257L141.761 151.583ZM146.516 151.583L147.462 151.257L147.229 150.583H146.516V151.583ZM152.533 169.038V170.038H153.936L153.479 168.712L152.533 169.038ZM148.579 169.038L147.628 169.347L147.852 170.038H148.579V169.038ZM144.207 155.572L145.158 155.263L144.933 154.572H144.207V155.572ZM144.07 155.572V154.572H143.344L143.119 155.263L144.07 155.572ZM139.442 162.177V161.177H138.442V162.177H139.442ZM148.783 162.177H149.783V161.177H148.783V162.177ZM148.783 165.058V166.058H149.783V165.058H148.783ZM139.442 165.058H138.442V166.058H139.442V165.058ZM139.69 168.038H135.735V170.038H139.69V168.038ZM136.68 169.364L142.706 151.91L140.815 151.257L134.79 168.712L136.68 169.364ZM141.761 152.583H146.516V150.583H141.761V152.583ZM145.571 151.909L151.588 169.364L153.479 168.712L147.462 151.257L145.571 151.909ZM152.533 168.038H148.579V170.038H152.533V168.038ZM149.53 168.729L145.158 155.263L143.256 155.881L147.628 169.347L149.53 168.729ZM144.207 154.572H144.07V156.572H144.207V154.572ZM143.119 155.263L138.739 168.728L140.641 169.347L145.021 155.881L143.119 155.263ZM139.442 163.177H148.783V161.177H139.442V163.177ZM147.783 162.177V165.058H149.783V162.177H147.783ZM148.783 164.058H139.442V166.058H148.783V164.058ZM140.442 165.058V162.177H138.442V165.058H140.442Z" fill="#151414" mask="url(#path-8-inside-3_268_85)"/>
<line y1="-0.5" x2="216.002" y2="-0.5" transform="matrix(0.999988 0.00485653 -0.0048521 0.999988 37 178.052)" stroke="#151414"/>
<mask id="path-11-inside-4_268_85" fill="white">
<path d="M63.2983 187.6H66.9886V198.935C66.9886 200.208 66.6847 201.321 66.0767 202.276C65.4744 203.23 64.6307 203.975 63.5455 204.509C62.4602 205.037 61.196 205.301 59.7528 205.301C58.304 205.301 57.0369 205.037 55.9517 204.509C54.8665 203.975 54.0227 203.23 53.4205 202.276C52.8182 201.321 52.517 200.208 52.517 198.935V187.6H56.2074V198.62C56.2074 199.284 56.3523 199.875 56.642 200.392C56.9375 200.909 57.3523 201.316 57.8864 201.611C58.4205 201.906 59.0426 202.054 59.7528 202.054C60.4688 202.054 61.0909 201.906 61.6193 201.611C62.1534 201.316 62.5653 200.909 62.8551 200.392C63.1506 199.875 63.2983 199.284 63.2983 198.62V187.6ZM79.4936 192.62C79.4254 191.932 79.1328 191.398 78.6158 191.017C78.0987 190.637 77.397 190.446 76.5107 190.446C75.9084 190.446 75.3999 190.531 74.9851 190.702C74.5703 190.867 74.2521 191.097 74.0305 191.392C73.8146 191.688 73.7067 192.023 73.7067 192.398C73.6953 192.71 73.7607 192.983 73.9027 193.216C74.0504 193.449 74.2521 193.651 74.5078 193.821C74.7635 193.986 75.0589 194.131 75.3942 194.256C75.7294 194.375 76.0874 194.477 76.468 194.563L78.0362 194.938C78.7976 195.108 79.4964 195.335 80.1328 195.62C80.7692 195.904 81.3203 196.253 81.7862 196.668C82.2521 197.083 82.6129 197.571 82.8686 198.134C83.13 198.696 83.2635 199.341 83.2692 200.068C83.2635 201.137 82.9908 202.063 82.451 202.847C81.9169 203.625 81.1442 204.23 80.1328 204.662C79.1271 205.088 77.9141 205.301 76.4936 205.301C75.0845 205.301 73.8572 205.085 72.8118 204.654C71.772 204.222 70.9595 203.583 70.3743 202.736C69.7947 201.884 69.4908 200.83 69.4624 199.574H73.0334C73.0732 200.159 73.2408 200.648 73.5362 201.04C73.8374 201.426 74.2379 201.719 74.7379 201.918C75.2436 202.111 75.8146 202.208 76.451 202.208C77.076 202.208 77.6186 202.117 78.0788 201.935C78.5447 201.753 78.9055 201.5 79.1612 201.176C79.4169 200.852 79.5447 200.48 79.5447 200.06C79.5447 199.668 79.4283 199.338 79.1953 199.071C78.968 198.804 78.6328 198.577 78.1896 198.389C77.7521 198.202 77.2152 198.031 76.5788 197.878L74.6783 197.401C73.2067 197.043 72.0447 196.483 71.1925 195.722C70.3402 194.96 69.9169 193.935 69.9226 192.645C69.9169 191.588 70.1982 190.665 70.7663 189.875C71.3402 189.085 72.1271 188.469 73.1271 188.026C74.1271 187.583 75.2635 187.361 76.5362 187.361C77.8317 187.361 78.9624 187.583 79.9283 188.026C80.8999 188.469 81.6555 189.085 82.1953 189.875C82.7351 190.665 83.0135 191.58 83.0305 192.62H79.4936ZM91.9389 205.054H85.7514V187.6H91.9901C93.7457 187.6 95.2571 187.949 96.5241 188.648C97.7912 189.341 98.7656 190.338 99.4474 191.639C100.135 192.941 100.479 194.497 100.479 196.31C100.479 198.128 100.135 199.691 99.4474 200.997C98.7656 202.304 97.7855 203.307 96.5071 204.006C95.2344 204.705 93.7116 205.054 91.9389 205.054ZM89.4418 201.892H91.7855C92.8764 201.892 93.794 201.699 94.5384 201.313C95.2884 200.921 95.8509 200.316 96.2259 199.497C96.6065 198.674 96.7969 197.611 96.7969 196.31C96.7969 195.02 96.6065 193.966 96.2259 193.148C95.8509 192.33 95.2912 191.727 94.5469 191.341C93.8026 190.955 92.8849 190.762 91.794 190.762H89.4418V201.892ZM101.751 190.642V187.6H116.086V190.642H110.742V205.054H107.094V190.642H101.751Z"/>
</mask>
<path d="M63.2983 187.6H66.9886V198.935C66.9886 200.208 66.6847 201.321 66.0767 202.276C65.4744 203.23 64.6307 203.975 63.5455 204.509C62.4602 205.037 61.196 205.301 59.7528 205.301C58.304 205.301 57.0369 205.037 55.9517 204.509C54.8665 203.975 54.0227 203.23 53.4205 202.276C52.8182 201.321 52.517 200.208 52.517 198.935V187.6H56.2074V198.62C56.2074 199.284 56.3523 199.875 56.642 200.392C56.9375 200.909 57.3523 201.316 57.8864 201.611C58.4205 201.906 59.0426 202.054 59.7528 202.054C60.4688 202.054 61.0909 201.906 61.6193 201.611C62.1534 201.316 62.5653 200.909 62.8551 200.392C63.1506 199.875 63.2983 199.284 63.2983 198.62V187.6ZM79.4936 192.62C79.4254 191.932 79.1328 191.398 78.6158 191.017C78.0987 190.637 77.397 190.446 76.5107 190.446C75.9084 190.446 75.3999 190.531 74.9851 190.702C74.5703 190.867 74.2521 191.097 74.0305 191.392C73.8146 191.688 73.7067 192.023 73.7067 192.398C73.6953 192.71 73.7607 192.983 73.9027 193.216C74.0504 193.449 74.2521 193.651 74.5078 193.821C74.7635 193.986 75.0589 194.131 75.3942 194.256C75.7294 194.375 76.0874 194.477 76.468 194.563L78.0362 194.938C78.7976 195.108 79.4964 195.335 80.1328 195.62C80.7692 195.904 81.3203 196.253 81.7862 196.668C82.2521 197.083 82.6129 197.571 82.8686 198.134C83.13 198.696 83.2635 199.341 83.2692 200.068C83.2635 201.137 82.9908 202.063 82.451 202.847C81.9169 203.625 81.1442 204.23 80.1328 204.662C79.1271 205.088 77.9141 205.301 76.4936 205.301C75.0845 205.301 73.8572 205.085 72.8118 204.654C71.772 204.222 70.9595 203.583 70.3743 202.736C69.7947 201.884 69.4908 200.83 69.4624 199.574H73.0334C73.0732 200.159 73.2408 200.648 73.5362 201.04C73.8374 201.426 74.2379 201.719 74.7379 201.918C75.2436 202.111 75.8146 202.208 76.451 202.208C77.076 202.208 77.6186 202.117 78.0788 201.935C78.5447 201.753 78.9055 201.5 79.1612 201.176C79.4169 200.852 79.5447 200.48 79.5447 200.06C79.5447 199.668 79.4283 199.338 79.1953 199.071C78.968 198.804 78.6328 198.577 78.1896 198.389C77.7521 198.202 77.2152 198.031 76.5788 197.878L74.6783 197.401C73.2067 197.043 72.0447 196.483 71.1925 195.722C70.3402 194.96 69.9169 193.935 69.9226 192.645C69.9169 191.588 70.1982 190.665 70.7663 189.875C71.3402 189.085 72.1271 188.469 73.1271 188.026C74.1271 187.583 75.2635 187.361 76.5362 187.361C77.8317 187.361 78.9624 187.583 79.9283 188.026C80.8999 188.469 81.6555 189.085 82.1953 189.875C82.7351 190.665 83.0135 191.58 83.0305 192.62H79.4936ZM91.9389 205.054H85.7514V187.6H91.9901C93.7457 187.6 95.2571 187.949 96.5241 188.648C97.7912 189.341 98.7656 190.338 99.4474 191.639C100.135 192.941 100.479 194.497 100.479 196.31C100.479 198.128 100.135 199.691 99.4474 200.997C98.7656 202.304 97.7855 203.307 96.5071 204.006C95.2344 204.705 93.7116 205.054 91.9389 205.054ZM89.4418 201.892H91.7855C92.8764 201.892 93.794 201.699 94.5384 201.313C95.2884 200.921 95.8509 200.316 96.2259 199.497C96.6065 198.674 96.7969 197.611 96.7969 196.31C96.7969 195.02 96.6065 193.966 96.2259 193.148C95.8509 192.33 95.2912 191.727 94.5469 191.341C93.8026 190.955 92.8849 190.762 91.794 190.762H89.4418V201.892ZM101.751 190.642V187.6H116.086V190.642H110.742V205.054H107.094V190.642H101.751Z" fill="black"/>
<path d="M63.2983 187.6V186.6H62.2983V187.6H63.2983ZM66.9886 187.6H67.9886V186.6H66.9886V187.6ZM66.0767 202.276L65.2332 201.739L65.231 201.742L66.0767 202.276ZM63.5455 204.509L63.9832 205.408L63.987 205.406L63.5455 204.509ZM55.9517 204.509L55.5101 205.406L55.5139 205.408L55.9517 204.509ZM53.4205 202.276L52.5747 202.809L52.5747 202.809L53.4205 202.276ZM52.517 187.6V186.6H51.517V187.6H52.517ZM56.2074 187.6H57.2074V186.6H56.2074V187.6ZM56.642 200.392L55.7697 200.881L55.7738 200.888L56.642 200.392ZM57.8864 201.611L57.4023 202.486L57.4023 202.486L57.8864 201.611ZM61.6193 201.611L61.1353 200.736L61.1313 200.738L61.6193 201.611ZM62.8551 200.392L61.9868 199.896L61.9828 199.903L62.8551 200.392ZM63.2983 188.6H66.9886V186.6H63.2983V188.6ZM65.9886 187.6V198.935H67.9886V187.6H65.9886ZM65.9886 198.935C65.9886 200.042 65.7266 200.964 65.2333 201.739L66.9202 202.813C67.6427 201.678 67.9886 200.373 67.9886 198.935H65.9886ZM65.231 201.742C64.7344 202.529 64.0358 203.153 63.1039 203.612L63.987 205.406C65.2256 204.796 66.2145 203.931 66.9224 202.809L65.231 201.742ZM63.1077 203.61C62.183 204.06 61.0737 204.301 59.7528 204.301V206.301C61.3184 206.301 62.7375 206.014 63.9832 205.408L63.1077 203.61ZM59.7528 204.301C58.4256 204.301 57.3137 204.06 56.3895 203.61L55.5139 205.408C56.7602 206.015 58.1823 206.301 59.7528 206.301V204.301ZM56.3933 203.612C55.4614 203.153 54.7628 202.529 54.2662 201.742L52.5747 202.809C53.2827 203.931 54.2715 204.796 55.5101 205.406L56.3933 203.612ZM54.2662 201.742C53.7772 200.967 53.517 200.044 53.517 198.935H51.517C51.517 200.372 51.8592 201.675 52.5747 202.809L54.2662 201.742ZM53.517 198.935V187.6H51.517V198.935H53.517ZM52.517 188.6H56.2074V186.6H52.517V188.6ZM55.2074 187.6V198.62H57.2074V187.6H55.2074ZM55.2074 198.62C55.2074 199.434 55.3864 200.197 55.7697 200.881L57.5144 199.903C57.3181 199.553 57.2074 199.134 57.2074 198.62H55.2074ZM55.7738 200.888C56.1625 201.569 56.7121 202.104 57.4023 202.486L58.3704 200.736C57.9925 200.527 57.7125 200.25 57.5103 199.896L55.7738 200.888ZM57.4023 202.486C58.1072 202.876 58.9012 203.054 59.7528 203.054V201.054C59.1841 201.054 58.7337 200.937 58.3704 200.736L57.4023 202.486ZM59.7528 203.054C60.6083 203.054 61.4047 202.877 62.1073 202.484L61.1313 200.738C60.7771 200.936 60.3292 201.054 59.7528 201.054V203.054ZM62.1034 202.486C62.7952 202.103 63.3439 201.566 63.7275 200.881L61.9828 199.903C61.7868 200.253 61.5116 200.528 61.1353 200.736L62.1034 202.486ZM63.7234 200.888C64.1149 200.203 64.2983 199.438 64.2983 198.62H62.2983C62.2983 199.131 62.1863 199.547 61.9869 199.896L63.7234 200.888ZM64.2983 198.62V187.6H62.2983V198.62H64.2983ZM79.4936 192.62L78.4985 192.718L78.5879 193.62H79.4936V192.62ZM74.9851 190.702L75.3543 191.631L75.3652 191.627L74.9851 190.702ZM74.0305 191.392L73.2305 190.792L73.2231 190.802L74.0305 191.392ZM73.7067 192.398L74.706 192.434L74.7067 192.416V192.398H73.7067ZM73.9027 193.216L73.0489 193.737L73.0535 193.744L73.0582 193.752L73.9027 193.216ZM74.5078 193.821L73.9531 194.653L73.9596 194.658L73.9661 194.662L74.5078 193.821ZM75.3942 194.256L75.0448 195.193L75.0518 195.195L75.0589 195.198L75.3942 194.256ZM76.468 194.563L76.7006 193.59L76.6936 193.588L76.6865 193.587L76.468 194.563ZM78.0362 194.938L77.8036 195.91L77.8107 195.912L77.8177 195.914L78.0362 194.938ZM80.1328 195.62L79.7252 196.533L79.7252 196.533L80.1328 195.62ZM81.7862 196.668L82.4512 195.921L82.4512 195.921L81.7862 196.668ZM82.8686 198.134L81.9582 198.548L81.9617 198.555L82.8686 198.134ZM83.2692 200.068L84.2692 200.074L84.2691 200.061L83.2692 200.068ZM82.451 202.847L81.6273 202.28L81.6264 202.281L82.451 202.847ZM80.1328 204.662L80.523 205.583L80.5255 205.582L80.1328 204.662ZM72.8118 204.654L72.4282 205.577L72.43 205.578L72.8118 204.654ZM70.3743 202.736L69.5473 203.298L69.5517 203.305L70.3743 202.736ZM69.4624 199.574V198.574H68.4395L68.4626 199.597L69.4624 199.574ZM73.0334 199.574L74.0311 199.506L73.9677 198.574H73.0334V199.574ZM73.5362 201.04L72.7376 201.642L72.7425 201.648L72.7475 201.655L73.5362 201.04ZM74.7379 201.918L74.3683 202.847L74.3811 202.852L74.7379 201.918ZM78.0788 201.935L77.7153 201.003L77.7114 201.005L78.0788 201.935ZM79.1612 201.176L79.9461 201.796L79.9461 201.796L79.1612 201.176ZM79.1953 199.071L78.4337 199.719L78.4417 199.729L79.1953 199.071ZM78.1896 198.389L77.7957 199.309L77.8 199.31L78.1896 198.389ZM76.5788 197.878L76.3353 198.848L76.3445 198.85L76.5788 197.878ZM74.6783 197.401L74.9218 196.431L74.9146 196.429L74.6783 197.401ZM71.1925 195.722L70.5263 196.468L70.5263 196.468L71.1925 195.722ZM69.9226 192.645L70.9226 192.65L70.9226 192.64L69.9226 192.645ZM70.7663 189.875L69.9573 189.287L69.9546 189.291L70.7663 189.875ZM79.9283 188.026L79.5112 188.935L79.5133 188.936L79.9283 188.026ZM82.1953 189.875L81.3697 190.439L81.3697 190.439L82.1953 189.875ZM83.0305 192.62V193.62H84.0471L84.0304 192.603L83.0305 192.62ZM80.4887 192.521C80.395 191.576 79.9726 190.774 79.2087 190.212L78.0229 191.823C78.293 192.021 78.4559 192.289 78.4985 192.718L80.4887 192.521ZM79.2087 190.212C78.4653 189.665 77.5309 189.446 76.5107 189.446V191.446C77.2631 191.446 77.7321 191.608 78.0229 191.823L79.2087 190.212ZM76.5107 189.446C75.8201 189.446 75.174 189.543 74.605 189.777L75.3652 191.627C75.6257 191.52 75.9966 191.446 76.5107 191.446V189.446ZM74.6159 189.773C74.0658 189.991 73.5837 190.321 73.2305 190.792L74.8305 191.992C74.9206 191.872 75.0749 191.742 75.3543 191.631L74.6159 189.773ZM73.2231 190.802C72.8788 191.273 72.7067 191.816 72.7067 192.398H74.7067C74.7067 192.229 74.7505 192.102 74.8379 191.982L73.2231 190.802ZM72.7073 192.362C72.6899 192.841 72.7905 193.313 73.0489 193.737L74.7565 192.696C74.7308 192.653 74.7007 192.58 74.706 192.434L72.7073 192.362ZM73.0582 193.752C73.2889 194.115 73.5945 194.414 73.9531 194.653L75.0625 192.989C74.9098 192.887 74.812 192.783 74.7472 192.681L73.0582 193.752ZM73.9661 194.662C74.2917 194.872 74.6536 195.047 75.0448 195.193L75.7436 193.319C75.4643 193.215 75.2353 193.1 75.0495 192.981L73.9661 194.662ZM75.0589 195.198C75.4358 195.332 75.833 195.445 76.2496 195.539L76.6865 193.587C76.3417 193.51 76.0231 193.418 75.7295 193.314L75.0589 195.198ZM76.2355 195.535L77.8036 195.91L78.2688 193.965L76.7006 193.59L76.2355 195.535ZM77.8177 195.914C78.5217 196.071 79.1563 196.279 79.7252 196.533L80.5405 194.706C79.8366 194.392 79.0735 194.145 78.2547 193.962L77.8177 195.914ZM79.7252 196.533C80.2786 196.78 80.7405 197.076 81.1213 197.415L82.4512 195.921C81.9001 195.43 81.2598 195.028 80.5405 194.706L79.7252 196.533ZM81.1213 197.415C81.4841 197.738 81.7608 198.113 81.9582 198.548L83.779 197.72C83.465 197.029 83.0202 196.427 82.4512 195.921L81.1213 197.415ZM81.9617 198.555C82.1534 198.968 82.2645 199.467 82.2692 200.076L84.2691 200.061C84.2625 199.215 84.1066 198.425 83.7755 197.712L81.9617 198.555ZM82.2692 200.063C82.2644 200.956 82.0397 201.681 81.6273 202.28L83.2747 203.414C83.9419 202.445 84.2625 201.317 84.2692 200.074L82.2692 200.063ZM81.6264 202.281C81.2165 202.878 80.6062 203.373 79.7401 203.742L80.5255 205.582C81.6821 205.088 82.6173 204.372 83.2756 203.413L81.6264 202.281ZM79.7427 203.741C78.8915 204.102 77.8185 204.301 76.4936 204.301V206.301C78.0097 206.301 79.3628 206.074 80.523 205.583L79.7427 203.741ZM76.4936 204.301C75.1844 204.301 74.0922 204.101 73.1936 203.729L72.43 205.578C73.6223 206.07 74.9846 206.301 76.4936 206.301V204.301ZM73.1953 203.73C72.3156 203.365 71.6627 202.841 71.1969 202.167L69.5517 203.305C70.2564 204.324 71.2284 205.079 72.4282 205.577L73.1953 203.73ZM71.2012 202.174C70.7517 201.513 70.4871 200.657 70.4621 199.551L68.4626 199.597C68.4944 201.003 68.8377 202.255 69.5474 203.298L71.2012 202.174ZM69.4624 200.574H73.0334V198.574H69.4624V200.574ZM72.0357 199.642C72.086 200.382 72.3043 201.067 72.7376 201.642L74.3348 200.438C74.1772 200.229 74.0603 199.936 74.0311 199.506L72.0357 199.642ZM72.7475 201.655C73.1685 202.195 73.7199 202.589 74.3684 202.847L75.1075 200.989C74.7559 200.849 74.5062 200.658 74.3249 200.425L72.7475 201.655ZM74.3811 202.852C75.0188 203.096 75.7137 203.208 76.451 203.208V201.208C75.9156 201.208 75.4684 201.126 75.0948 200.984L74.3811 202.852ZM76.451 203.208C77.17 203.208 77.8427 203.103 78.4463 202.865L77.7114 201.005C77.3945 201.13 76.982 201.208 76.451 201.208V203.208ZM78.4424 202.866C79.0389 202.634 79.559 202.286 79.9461 201.796L78.3763 200.557C78.2521 200.714 78.0506 200.872 77.7153 201.003L78.4424 202.866ZM79.9461 201.796C80.344 201.292 80.5447 200.701 80.5447 200.06H78.5447C78.5447 200.26 78.4898 200.413 78.3763 200.557L79.9461 201.796ZM80.5447 200.06C80.5447 199.454 80.358 198.883 79.9489 198.414L78.4417 199.729C78.4986 199.794 78.5447 199.882 78.5447 200.06H80.5447ZM79.9569 198.423C79.5981 198.002 79.1154 197.695 78.5793 197.468L77.8 199.31C78.1502 199.459 78.3379 199.607 78.4338 199.719L79.9569 198.423ZM78.5836 197.47C78.0793 197.254 77.4854 197.068 76.8132 196.906L76.3445 198.85C76.945 198.995 77.4249 199.15 77.7957 199.309L78.5836 197.47ZM76.8224 196.908L74.9218 196.431L74.4347 198.371L76.3353 198.848L76.8224 196.908ZM74.9146 196.429C73.5527 196.098 72.5551 195.598 71.8587 194.976L70.5263 196.468C71.5344 197.368 72.8606 197.988 74.4419 198.372L74.9146 196.429ZM71.8587 194.976C71.2487 194.431 70.918 193.694 70.9226 192.65L68.9226 192.641C68.9158 194.176 69.4317 195.49 70.5263 196.468L71.8587 194.976ZM70.9226 192.64C70.9179 191.775 71.1442 191.062 71.5781 190.459L69.9546 189.291C69.2521 190.268 68.9159 191.401 68.9226 192.65L70.9226 192.64ZM71.5753 190.463C72.0336 189.832 72.6735 189.321 73.5323 188.94L72.722 187.112C71.5808 187.617 70.6468 188.339 69.9573 189.287L71.5753 190.463ZM73.5323 188.94C74.3855 188.562 75.3804 188.361 76.5362 188.361V186.361C75.1466 186.361 73.8687 186.603 72.722 187.112L73.5323 188.94ZM76.5362 188.361C77.7186 188.361 78.7016 188.563 79.5112 188.935L80.3453 187.117C79.2231 186.602 77.9448 186.361 76.5362 186.361V188.361ZM79.5133 188.936C80.3389 189.312 80.9444 189.817 81.3697 190.439L83.0209 189.311C82.3667 188.354 81.4608 187.626 80.3433 187.116L79.5133 188.936ZM81.3697 190.439C81.7894 191.054 82.0165 191.774 82.0307 192.636L84.0304 192.603C84.0104 191.385 83.6808 190.276 83.0209 189.311L81.3697 190.439ZM83.0305 191.62H79.4936V193.62H83.0305V191.62ZM85.7514 205.054H84.7514V206.054H85.7514V205.054ZM85.7514 187.6V186.6H84.7514V187.6H85.7514ZM96.5241 188.648L96.0412 189.524L96.0442 189.525L96.5241 188.648ZM99.4474 191.639L98.5617 192.104L98.5633 192.107L99.4474 191.639ZM99.4474 200.997L98.5624 200.532L98.5609 200.535L99.4474 200.997ZM96.5071 204.006L96.0274 203.128L96.0258 203.129L96.5071 204.006ZM89.4418 201.892H88.4418V202.892H89.4418V201.892ZM94.5384 201.313L94.9991 202.2L95.0016 202.199L94.5384 201.313ZM96.2259 199.497L95.3181 199.078L95.3168 199.081L96.2259 199.497ZM96.2259 193.148L95.3168 193.565L95.3192 193.57L96.2259 193.148ZM94.5469 191.341L95.0076 190.454L95.0076 190.454L94.5469 191.341ZM89.4418 190.762V189.762H88.4418V190.762H89.4418ZM91.9389 204.054H85.7514V206.054H91.9389V204.054ZM86.7514 205.054V187.6H84.7514V205.054H86.7514ZM85.7514 188.6H91.9901V186.6H85.7514V188.6ZM91.9901 188.6C93.6126 188.6 94.9505 188.922 96.0412 189.524L97.0071 187.772C95.5637 186.976 93.8788 186.6 91.9901 186.6V188.6ZM96.0442 189.525C97.1351 190.122 97.9698 190.974 98.5617 192.104L100.333 191.175C99.5615 189.703 98.4473 188.56 97.0041 187.771L96.0442 189.525ZM98.5633 192.107C99.1591 193.234 99.4787 194.623 99.4787 196.31H101.479C101.479 194.372 101.111 192.647 100.332 191.172L98.5633 192.107ZM99.4787 196.31C99.4787 198.003 99.1589 199.398 98.5624 200.532L100.332 201.463C101.111 199.983 101.479 198.253 101.479 196.31H99.4787ZM98.5609 200.535C97.9695 201.668 97.13 202.526 96.0274 203.128L96.9868 204.883C98.4411 204.088 99.5618 202.94 100.334 201.46L98.5609 200.535ZM96.0258 203.129C94.9298 203.731 93.5802 204.054 91.9389 204.054V206.054C93.8431 206.054 95.539 205.678 96.9884 204.882L96.0258 203.129ZM89.4418 202.892H91.7855V200.892H89.4418V202.892ZM91.7855 202.892C92.9901 202.892 94.0761 202.679 94.9991 202.2L94.0776 200.425C93.512 200.719 92.7627 200.892 91.7855 200.892V202.892ZM95.0016 202.199C95.9611 201.697 96.6738 200.92 97.1349 199.914L95.3168 199.081C95.0279 199.711 94.6156 200.144 94.0751 200.426L95.0016 202.199ZM97.1336 199.917C97.5955 198.917 97.7969 197.698 97.7969 196.31H95.7969C95.7969 197.524 95.6176 198.43 95.3181 199.078L97.1336 199.917ZM97.7969 196.31C97.7969 194.932 97.5952 193.721 97.1325 192.726L95.3192 193.57C95.6179 194.212 95.7969 195.108 95.7969 196.31H97.7969ZM97.1349 192.731C96.6744 191.726 95.9646 190.95 95.0076 190.454L94.0862 192.229C94.6178 192.505 95.0274 192.933 95.3168 193.565L97.1349 192.731ZM95.0076 190.454C94.0846 189.974 92.9987 189.762 91.794 189.762V191.762C92.7712 191.762 93.5205 191.935 94.0862 192.229L95.0076 190.454ZM91.794 189.762H89.4418V191.762H91.794V189.762ZM88.4418 190.762V201.892H90.4418V190.762H88.4418ZM101.751 190.642H100.751V191.642H101.751V190.642ZM101.751 187.6V186.6H100.751V187.6H101.751ZM116.086 187.6H117.086V186.6H116.086V187.6ZM116.086 190.642V191.642H117.086V190.642H116.086ZM110.742 190.642V189.642H109.742V190.642H110.742ZM110.742 205.054V206.054H111.742V205.054H110.742ZM107.094 205.054H106.094V206.054H107.094V205.054ZM107.094 190.642H108.094V189.642H107.094V190.642ZM102.751 190.642V187.6H100.751V190.642H102.751ZM101.751 188.6H116.086V186.6H101.751V188.6ZM115.086 187.6V190.642H117.086V187.6H115.086ZM116.086 189.642H110.742V191.642H116.086V189.642ZM109.742 190.642V205.054H111.742V190.642H109.742ZM110.742 204.054H107.094V206.054H110.742V204.054ZM108.094 205.054V190.642H106.094V205.054H108.094ZM107.094 189.642H101.751V191.642H107.094V189.642Z" fill="#151414" mask="url(#path-11-inside-4_268_85)"/>
<g filter="url(#filter0_d_268_85)">
<rect x="38" y="42.0212" width="214" height="60.0274" rx="30.0137" fill="#C4BAC6"/>
<rect x="39.5" y="43.5212" width="211" height="57.0274" rx="28.5137" stroke="black" stroke-width="3"/>
</g>
<path d="M52.517 82V64.5455H64.2784V67.5881H56.2074V71.7472H63.6733V74.7898H56.2074V78.9574H64.3125V82H52.517ZM66.5476 67.5881V64.5455H80.8828V67.5881H75.5391V82H71.8913V67.5881H66.5476ZM83.2436 82V64.5455H86.9339V71.7472H94.4254V64.5455H98.1072V82H94.4254V74.7898H86.9339V82H83.2436ZM101.15 82V64.5455H112.911V67.5881H104.84V71.7472H112.306V74.7898H104.84V78.9574H112.945V82H101.15ZM115.845 82V64.5455H122.732C124.05 64.5455 125.175 64.7812 126.107 65.2528C127.044 65.7187 127.757 66.3807 128.246 67.2386C128.74 68.0909 128.987 69.0937 128.987 70.2472C128.987 71.4062 128.737 72.4034 128.237 73.2386C127.737 74.0682 127.013 74.7045 126.064 75.1477C125.121 75.5909 123.979 75.8125 122.638 75.8125H118.027V72.8466H122.041C122.746 72.8466 123.331 72.75 123.797 72.5568C124.263 72.3636 124.609 72.0739 124.837 71.6875C125.07 71.3011 125.186 70.821 125.186 70.2472C125.186 69.6676 125.07 69.179 124.837 68.7812C124.609 68.3835 124.26 68.0824 123.788 67.8778C123.322 67.6676 122.734 67.5625 122.024 67.5625H119.536V82H115.845ZM125.271 74.0568L129.609 82H125.536L121.291 74.0568H125.271ZM131.595 82V64.5455H143.357V67.5881H135.286V71.7472H142.751V74.7898H135.286V78.9574H143.391V82H131.595ZM157.072 64.5455H160.762V75.8807C160.762 77.1534 160.458 78.267 159.85 79.2216C159.248 80.1761 158.404 80.9205 157.319 81.4545C156.234 81.983 154.969 82.2472 153.526 82.2472C152.077 82.2472 150.81 81.983 149.725 81.4545C148.64 80.9205 147.796 80.1761 147.194 79.2216C146.592 78.267 146.29 77.1534 146.29 75.8807V64.5455H149.981V75.5653C149.981 76.2301 150.126 76.821 150.415 77.3381C150.711 77.8551 151.126 78.2614 151.66 78.5568C152.194 78.8523 152.816 79 153.526 79C154.242 79 154.864 78.8523 155.393 78.5568C155.927 78.2614 156.339 77.8551 156.629 77.3381C156.924 76.821 157.072 76.2301 157.072 75.5653V64.5455ZM163.798 64.5455H168.349L173.156 76.2727H173.361L178.168 64.5455H182.719V82H179.139V70.6392H178.994L174.477 81.9148H172.04L167.523 70.5966H167.378V82H163.798V64.5455Z" fill="black"/>
<path d="M203 66L218.208 80.6413L233.417 66" fill="black"/>
<defs>
<filter id="filter0_d_268_85" x="34" y="42.0212" width="222" height="68.0274" filterUnits="userSpaceOnUse" color-interpolation-filters="sRGB">
<feFlood flood-opacity="0" result="BackgroundImageFix"/>
<feColorMatrix in="SourceAlpha" type="matrix" values="0 0 0 0 0 0 0 0 0 0 0 0 0 0 0 0 0 0 127 0" result="hardAlpha"/>
<feOffset dy="4"/>
<feGaussianBlur stdDeviation="2"/>
<feComposite in2="hardAlpha" operator="out"/>
<feColorMatrix type="matrix" values="0 0 0 0 0 0 0 0 0 0 0 0 0 0 0 0 0 0 0.25 0"/>
<feBlend mode="normal" in2="BackgroundImageFix" result="effect1_dropShadow_268_85"/>
<feBlend mode="normal" in="SourceGraphic" in2="effect1_dropShadow_268_85" result="shape"/>
</filter>
</defs>
</svg>
