<svg width="296" height="249" viewBox="0 0 296 249" fill="none" xmlns="http://www.w3.org/2000/svg">
<g opacity="0.8">
<rect y="0.319824" width="296" height="248.113" fill="#D9D9D9"/>
<path d="M27.3409 37.7895H31.7443L34.5852 43.6986H34.6989L37.5398 37.7895H41.9432L36.6023 47.7611V52.335H32.6818V47.7611L27.3409 37.7895ZM56.3058 45.0622C56.3058 46.6816 55.9909 48.0476 55.3612 49.1602C54.7314 50.2682 53.8815 51.1086 52.8114 51.6816C51.7414 52.2497 50.5482 52.5338 49.2319 52.5338C47.9061 52.5338 46.7082 52.2474 45.6381 51.6744C44.5728 51.0968 43.7253 50.254 43.0955 49.146C42.4705 48.0334 42.158 46.6721 42.158 45.0622C42.158 43.4429 42.4705 42.0793 43.0955 40.9713C43.7253 39.8586 44.5728 39.0182 45.6381 38.45C46.7082 37.8771 47.9061 37.5906 49.2319 37.5906C50.5482 37.5906 51.7414 37.8771 52.8114 38.45C53.8815 39.0182 54.7314 39.8586 55.3612 40.9713C55.9909 42.0793 56.3058 43.4429 56.3058 45.0622ZM52.2433 45.0622C52.2433 44.191 52.1272 43.4571 51.8952 42.8605C51.668 42.2592 51.3294 41.8047 50.8796 41.4969C50.4345 41.1844 49.8853 41.0281 49.2319 41.0281C48.5785 41.0281 48.0269 41.1844 47.5771 41.4969C47.132 41.8047 46.7934 42.2592 46.5614 42.8605C46.3342 43.4571 46.2205 44.191 46.2205 45.0622C46.2205 45.9334 46.3342 46.6697 46.5614 47.271C46.7934 47.8676 47.132 48.3222 47.5771 48.6347C48.0269 48.9424 48.5785 49.0963 49.2319 49.0963C49.8853 49.0963 50.4345 48.9424 50.8796 48.6347C51.3294 48.3222 51.668 47.8676 51.8952 47.271C52.1272 46.6697 52.2433 45.9334 52.2433 45.0622ZM66.7408 37.7895H70.6896V47.1077C70.6896 48.2156 70.4245 49.1744 69.8942 49.9841C69.3686 50.789 68.6347 51.4117 67.6925 51.852C66.7502 52.2876 65.6565 52.5054 64.4112 52.5054C63.1565 52.5054 62.058 52.2876 61.1158 51.852C60.1735 51.4117 59.4396 50.789 58.9141 49.9841C58.3932 49.1744 58.1328 48.2156 58.1328 47.1077V37.7895H62.0817V46.7668C62.0817 47.2166 62.1811 47.6191 62.38 47.9742C62.5788 48.3245 62.8535 48.5992 63.2038 48.798C63.5589 48.9969 63.9614 49.0963 64.4112 49.0963C64.8658 49.0963 65.2682 48.9969 65.6186 48.798C65.969 48.5992 66.2436 48.3245 66.4425 47.9742C66.6413 47.6191 66.7408 47.2166 66.7408 46.7668V37.7895ZM75.8619 37.7895V39.4941C75.8619 39.9581 75.7672 40.4221 75.5778 40.8861C75.3931 41.3454 75.1564 41.7739 74.8675 42.1716C74.5835 42.5646 74.2899 42.8937 73.9869 43.1588L72.3675 42.335C72.5664 41.9941 72.744 41.5987 72.9002 41.1489C73.0565 40.6991 73.1346 40.1475 73.1346 39.4941V37.7895H75.8619ZM77.7031 52.335V37.7895H83.9815C85.0611 37.7895 86.0057 37.986 86.8153 38.379C87.625 38.772 88.2547 39.3378 88.7045 40.0764C89.1544 40.8151 89.3793 41.7005 89.3793 42.7327C89.3793 43.7744 89.1473 44.6527 88.6832 45.3676C88.224 46.0826 87.5777 46.6224 86.7443 46.9869C85.9157 47.3515 84.9474 47.5338 83.8395 47.5338H80.0895V44.4656H83.044C83.508 44.4656 83.9034 44.4088 84.2301 44.2952C84.5616 44.1768 84.8149 43.9898 84.9901 43.7341C85.17 43.4784 85.2599 43.1446 85.2599 42.7327C85.2599 42.316 85.17 41.9775 84.9901 41.7171C84.8149 41.4519 84.5616 41.2578 84.2301 41.1347C83.9034 41.0068 83.508 40.9429 83.044 40.9429H81.652V52.335H77.7031ZM86.2259 45.6588L89.8622 52.335H85.5724L82.0213 45.6588H86.2259ZM91.0625 52.335V37.7895H101.545V40.9713H95.0114V43.4713H101.006V46.6531H95.0114V49.1531H101.517V52.335H91.0625ZM107.091 40.9713V37.7895H119.733V40.9713H115.358V52.335H111.466V40.9713H107.091ZM121.219 52.335V37.7895H125.168V43.4713H130.395V37.7895H134.344V52.335H130.395V46.6531H125.168V52.335H121.219ZM136.219 52.335V37.7895H146.702V40.9713H140.168V43.4713H146.162V46.6531H140.168V49.1531H146.673V52.335H136.219ZM156.338 52.335L152.048 37.7895H156.451L158.44 46.7384H158.554L160.912 37.7895H164.377L166.735 46.7668H166.849L168.838 37.7895H173.241L168.951 52.335H165.173L162.701 44.21H162.588L160.116 52.335H156.338ZM187.692 45.0622C187.692 46.6816 187.378 48.0476 186.748 49.1602C186.118 50.2682 185.268 51.1086 184.198 51.6816C183.128 52.2497 181.935 52.5338 180.619 52.5338C179.293 52.5338 178.095 52.2474 177.025 51.6744C175.96 51.0968 175.112 50.254 174.482 49.146C173.857 48.0334 173.545 46.6721 173.545 45.0622C173.545 43.4429 173.857 42.0793 174.482 40.9713C175.112 39.8586 175.96 39.0182 177.025 38.45C178.095 37.8771 179.293 37.5906 180.619 37.5906C181.935 37.5906 183.128 37.8771 184.198 38.45C185.268 39.0182 186.118 39.8586 186.748 40.9713C187.378 42.0793 187.692 43.4429 187.692 45.0622ZM183.63 45.0622C183.63 44.191 183.514 43.4571 183.282 42.8605C183.055 42.2592 182.716 41.8047 182.266 41.4969C181.821 41.1844 181.272 41.0281 180.619 41.0281C179.965 41.0281 179.414 41.1844 178.964 41.4969C178.519 41.8047 178.18 42.2592 177.948 42.8605C177.721 43.4571 177.607 44.191 177.607 45.0622C177.607 45.9334 177.721 46.6697 177.948 47.271C178.18 47.8676 178.519 48.3222 178.964 48.6347C179.414 48.9424 179.965 49.0963 180.619 49.0963C181.272 49.0963 181.821 48.9424 182.266 48.6347C182.716 48.3222 183.055 47.8676 183.282 47.271C183.514 46.6697 183.63 45.9334 183.63 45.0622ZM189.52 52.335V37.7895H193.468V49.1531H199.349V52.335H189.52ZM200.945 52.335V37.7895H211.173V40.9713H204.894V43.4713H210.548V46.6531H204.894V52.335H200.945ZM230.7 45.0622C230.7 46.6816 230.385 48.0476 229.756 49.1602C229.126 50.2682 228.276 51.1086 227.206 51.6816C226.136 52.2497 224.943 52.5338 223.626 52.5338C222.301 52.5338 221.103 52.2474 220.033 51.6744C218.967 51.0968 218.12 50.254 217.49 49.146C216.865 48.0334 216.553 46.6721 216.553 45.0622C216.553 43.4429 216.865 42.0793 217.49 40.9713C218.12 39.8586 218.967 39.0182 220.033 38.45C221.103 37.8771 222.301 37.5906 223.626 37.5906C224.943 37.5906 226.136 37.8771 227.206 38.45C228.276 39.0182 229.126 39.8586 229.756 40.9713C230.385 42.0793 230.7 43.4429 230.7 45.0622ZM226.638 45.0622C226.638 44.191 226.522 43.4571 226.29 42.8605C226.062 42.2592 225.724 41.8047 225.274 41.4969C224.829 41.1844 224.28 41.0281 223.626 41.0281C222.973 41.0281 222.421 41.1844 221.972 41.4969C221.527 41.8047 221.188 42.2592 220.956 42.8605C220.729 43.4571 220.615 44.191 220.615 45.0622C220.615 45.9334 220.729 46.6697 220.956 47.271C221.188 47.8676 221.527 48.3222 221.972 48.6347C222.421 48.9424 222.973 49.0963 223.626 49.0963C224.28 49.0963 224.829 48.9424 225.274 48.6347C225.724 48.3222 226.062 47.8676 226.29 47.271C226.522 46.6697 226.638 45.9334 226.638 45.0622ZM232.527 52.335V37.7895H242.755V40.9713H236.476V43.4713H242.13V46.6531H236.476V52.335H232.527ZM31.6307 76.335L27.3409 61.7895H31.7443L33.733 70.7384H33.8466L36.2045 61.7895H39.6705L42.0284 70.7668H42.142L44.1307 61.7895H48.5341L44.2443 76.335H40.4659L37.9943 68.21H37.8807L35.4091 76.335H31.6307ZM51.8917 76.335H47.6303L52.4315 61.7895H57.8292L62.6303 76.335H58.369L55.1871 65.7952H55.0735L51.8917 76.335ZM51.0962 70.5963H59.1076V73.5509H51.0962V70.5963ZM64.0312 76.335V61.7895H67.9801V73.1531H73.8608V76.335H64.0312ZM75.457 76.335V61.7895H79.4059V73.1531H85.2866V76.335H75.457ZM98.7081 66.335C98.6702 65.8615 98.4927 65.4922 98.1754 65.227C97.8629 64.9619 97.3871 64.8293 96.7479 64.8293C96.3407 64.8293 96.0069 64.879 95.7464 64.9784C95.4908 65.0731 95.3014 65.2033 95.1783 65.3691C95.0552 65.5348 94.9912 65.7242 94.9865 65.9372C94.977 66.1124 95.0078 66.271 95.0788 66.4131C95.1546 66.5504 95.273 66.6759 95.4339 66.7895C95.5949 66.8984 95.8009 66.9978 96.0518 67.0878C96.3028 67.1778 96.6011 67.2583 96.9467 67.3293L98.1399 67.585C98.9448 67.7554 99.6338 67.9803 100.207 68.2597C100.78 68.539 101.248 68.8681 101.613 69.2469C101.978 69.6209 102.245 70.0423 102.415 70.5111C102.591 70.9798 102.681 71.4912 102.685 72.0452C102.681 73.0016 102.442 73.8113 101.968 74.4742C101.495 75.137 100.817 75.6413 99.9368 75.9869C99.0608 76.3326 98.0073 76.5054 96.7763 76.5054C95.5121 76.5054 94.4089 76.3184 93.4666 75.9443C92.5291 75.5703 91.8 74.995 91.2791 74.2185C90.763 73.4372 90.5026 72.4382 90.4979 71.2213H94.2479C94.2715 71.6664 94.3828 72.0405 94.5817 72.3435C94.7805 72.6465 95.0599 72.8762 95.4197 73.0324C95.7843 73.1887 96.2176 73.2668 96.7195 73.2668C97.1409 73.2668 97.4936 73.2147 97.7777 73.1105C98.0618 73.0064 98.2772 72.8619 98.424 72.6773C98.5708 72.4926 98.6465 72.2819 98.6513 72.0452C98.6465 71.8227 98.5732 71.6285 98.4311 71.4628C98.2938 71.2923 98.0665 71.1408 97.7493 71.0083C97.4321 70.8709 97.0036 70.7431 96.4638 70.6247L95.0149 70.3122C93.727 70.0329 92.7114 69.5665 91.968 68.9131C91.2294 68.2549 90.8625 67.3577 90.8672 66.2213C90.8625 65.298 91.1087 64.4907 91.6058 63.7994C92.1077 63.1034 92.8014 62.5613 93.6868 62.173C94.5769 61.7848 95.5973 61.5906 96.7479 61.5906C97.9221 61.5906 98.9377 61.7871 99.7947 62.1801C100.652 62.5731 101.312 63.1271 101.776 63.8421C102.245 64.5523 102.482 65.3833 102.487 66.335H98.7081ZM103.79 64.9713V61.7895H116.432V64.9713H112.057V76.335H108.165V64.9713H103.79ZM117.918 76.335V61.7895H124.196C125.276 61.7895 126.221 61.986 127.03 62.379C127.84 62.772 128.47 63.3378 128.919 64.0764C129.369 64.8151 129.594 65.7005 129.594 66.7327C129.594 67.7744 129.362 68.6527 128.898 69.3676C128.439 70.0826 127.792 70.6224 126.959 70.9869C126.131 71.3515 125.162 71.5338 124.054 71.5338H120.304V68.4656H123.259C123.723 68.4656 124.118 68.4088 124.445 68.2952C124.776 68.1768 125.03 67.9898 125.205 67.7341C125.385 67.4784 125.475 67.1446 125.475 66.7327C125.475 66.316 125.385 65.9775 125.205 65.7171C125.03 65.4519 124.776 65.2578 124.445 65.1347C124.118 65.0068 123.723 64.9429 123.259 64.9429H121.867V76.335H117.918ZM126.441 69.6588L130.077 76.335H125.787L122.236 69.6588H126.441ZM131.277 76.335V61.7895H141.76V64.9713H135.226V67.4713H141.221V70.6531H135.226V73.1531H141.732V76.335H131.277ZM143.719 76.335V61.7895H154.202V64.9713H147.668V67.4713H153.662V70.6531H147.668V73.1531H154.173V76.335H143.719ZM155.762 64.9713V61.7895H168.404V64.9713H164.029V76.335H160.137V64.9713H155.762Z" fill="black"/>
<rect x="28" y="126.377" width="147" height="27.0132" rx="7" fill="#C4BAC6" stroke="black" stroke-width="2"/>
<rect x="28" y="187.405" width="243" height="27.0132" rx="6" fill="#C4BAC6" stroke="black" stroke-width="2"/>
<path d="M37.6364 134.509V132.742H46.9205V134.509H43.3239V144.379H41.233V134.509H37.6364ZM48.7983 144.379H46.5483L50.6449 132.742H53.2472L57.3494 144.379H55.0994L51.9915 135.129H51.9006L48.7983 144.379ZM48.8722 139.816H55.0085V141.509H48.8722V139.816ZM58.8821 144.379V132.742H60.9901V138.089H61.1321L65.6719 132.742H68.2457L63.7457 137.964L68.2855 144.379H65.7514L62.2798 139.39L60.9901 140.913V144.379H58.8821ZM69.7102 144.379V132.742H77.2784V134.509H71.8182V137.668H76.8864V139.435H71.8182V142.612H77.3239V144.379H69.7102ZM83.3977 144.379V132.742H87.7614C88.6553 132.742 89.4053 132.909 90.0114 133.242C90.6212 133.576 91.0814 134.034 91.392 134.617C91.7064 135.197 91.8636 135.856 91.8636 136.595C91.8636 137.341 91.7064 138.004 91.392 138.583C91.0777 139.163 90.6136 139.619 90 139.953C89.3864 140.282 88.6307 140.447 87.733 140.447H84.8409V138.714H87.4489C87.9716 138.714 88.3996 138.623 88.733 138.441C89.0663 138.259 89.3125 138.009 89.4716 137.691C89.6345 137.373 89.7159 137.007 89.7159 136.595C89.7159 136.182 89.6345 135.818 89.4716 135.504C89.3125 135.189 89.0644 134.945 88.7273 134.771C88.3939 134.593 87.964 134.504 87.4375 134.504H85.5057V144.379H83.3977ZM93.6946 144.379V132.742H98.0582C98.9522 132.742 99.7022 132.898 100.308 133.208C100.918 133.519 101.378 133.954 101.689 134.515C102.003 135.072 102.161 135.721 102.161 136.464C102.161 137.21 102.001 137.858 101.683 138.407C101.369 138.953 100.905 139.375 100.291 139.674C99.6776 139.97 98.9238 140.117 98.0298 140.117H94.9219V138.367H97.7457C98.2685 138.367 98.6965 138.295 99.0298 138.151C99.3632 138.004 99.6094 137.79 99.7685 137.509C99.9313 137.225 100.013 136.877 100.013 136.464C100.013 136.051 99.9313 135.699 99.7685 135.407C99.6056 135.112 99.3575 134.888 99.0241 134.737C98.6908 134.581 98.2609 134.504 97.7344 134.504H95.8026V144.379H93.6946ZM99.706 139.106L102.587 144.379H100.234L97.4048 139.106H99.706ZM114.499 138.56C114.499 139.814 114.264 140.888 113.794 141.782C113.328 142.672 112.692 143.354 111.885 143.828C111.082 144.301 110.171 144.538 109.152 144.538C108.133 144.538 107.22 144.301 106.413 143.828C105.61 143.35 104.974 142.667 104.504 141.776C104.038 140.882 103.805 139.81 103.805 138.56C103.805 137.307 104.038 136.235 104.504 135.345C104.974 134.451 105.61 133.767 106.413 133.293C107.22 132.82 108.133 132.583 109.152 132.583C110.171 132.583 111.082 132.82 111.885 133.293C112.692 133.767 113.328 134.451 113.794 135.345C114.264 136.235 114.499 137.307 114.499 138.56ZM112.379 138.56C112.379 137.678 112.241 136.934 111.964 136.328C111.692 135.718 111.313 135.257 110.828 134.947C110.343 134.632 109.785 134.475 109.152 134.475C108.519 134.475 107.961 134.632 107.476 134.947C106.991 135.257 106.61 135.718 106.334 136.328C106.061 136.934 105.925 137.678 105.925 138.56C105.925 139.443 106.061 140.189 106.334 140.799C106.61 141.405 106.991 141.865 107.476 142.18C107.961 142.49 108.519 142.646 109.152 142.646C109.785 142.646 110.343 142.49 110.828 142.18C111.313 141.865 111.692 141.405 111.964 140.799C112.241 140.189 112.379 139.443 112.379 138.56ZM116.491 144.379V132.742H123.946V134.509H118.599V137.668H123.435V139.435H118.599V144.379H116.491ZM127.974 132.742V144.379H125.866V132.742H127.974ZM129.746 134.509V132.742H139.03V134.509H135.433V144.379H133.342V134.509H129.746Z" fill="black"/>
<path d="M37.6364 196.13V194.363H46.9205V196.13H43.3239V206H41.233V196.13H37.6364ZM48.7102 206V194.363H53.0739C53.9678 194.363 54.7178 194.519 55.3239 194.829C55.9337 195.14 56.3939 195.576 56.7045 196.136C57.0189 196.693 57.1761 197.343 57.1761 198.085C57.1761 198.831 57.017 199.479 56.6989 200.028C56.3845 200.574 55.9205 200.996 55.3068 201.295C54.6932 201.591 53.9394 201.738 53.0455 201.738H49.9375V199.988H52.7614C53.2841 199.988 53.7121 199.916 54.0455 199.772C54.3788 199.625 54.625 199.411 54.7841 199.13C54.947 198.846 55.0284 198.498 55.0284 198.085C55.0284 197.672 54.947 197.32 54.7841 197.028C54.6212 196.733 54.3731 196.509 54.0398 196.358C53.7064 196.202 53.2765 196.125 52.75 196.125H50.8182V206H48.7102ZM54.7216 200.727L57.6023 206H55.25L52.4205 200.727H54.7216ZM57.8679 194.363H60.2486L63.0952 199.511H63.2088L66.0554 194.363H68.4361L64.2031 201.659V206H62.1009V201.659L57.8679 194.363ZM73.8977 206V194.363H76.0057V204.233H81.1307V206H73.8977ZM90.2955 194.363H92.4034V201.966C92.4034 202.799 92.2064 203.532 91.8125 204.165C91.4223 204.797 90.8731 205.291 90.1648 205.647C89.4564 206 88.6288 206.176 87.6818 206.176C86.7311 206.176 85.9015 206 85.1932 205.647C84.4848 205.291 83.9356 204.797 83.5455 204.165C83.1553 203.532 82.9602 202.799 82.9602 201.966V194.363H85.0682V201.79C85.0682 202.274 85.1742 202.706 85.3864 203.085C85.6023 203.464 85.9053 203.761 86.2955 203.977C86.6856 204.189 87.1477 204.295 87.6818 204.295C88.2159 204.295 88.678 204.189 89.0682 203.977C89.4621 203.761 89.7652 203.464 89.9773 203.085C90.1894 202.706 90.2955 202.274 90.2955 201.79V194.363ZM104.655 198.29H102.53C102.469 197.941 102.357 197.632 102.195 197.363C102.032 197.091 101.829 196.86 101.587 196.67C101.344 196.481 101.068 196.339 100.757 196.244C100.45 196.146 100.119 196.096 99.7628 196.096C99.1302 196.096 98.5696 196.255 98.081 196.574C97.5923 196.888 97.2098 197.35 96.9332 197.96C96.6567 198.566 96.5185 199.307 96.5185 200.182C96.5185 201.072 96.6567 201.822 96.9332 202.432C97.2135 203.038 97.5961 203.496 98.081 203.807C98.5696 204.113 99.1283 204.267 99.7571 204.267C100.106 204.267 100.431 204.221 100.734 204.13C101.041 204.036 101.316 203.897 101.558 203.716C101.804 203.534 102.011 203.31 102.178 203.045C102.348 202.78 102.465 202.477 102.53 202.136L104.655 202.147C104.575 202.701 104.403 203.219 104.138 203.704C103.876 204.189 103.534 204.617 103.109 204.988C102.685 205.356 102.189 205.644 101.621 205.852C101.053 206.057 100.422 206.159 99.7287 206.159C98.706 206.159 97.7931 205.922 96.9901 205.449C96.187 204.975 95.5545 204.291 95.0923 203.397C94.6302 202.504 94.3991 201.432 94.3991 200.182C94.3991 198.928 94.6321 197.856 95.098 196.966C95.5639 196.072 96.1984 195.388 97.0014 194.915C97.8045 194.441 98.7135 194.204 99.7287 194.204C100.376 194.204 100.979 194.295 101.536 194.477C102.092 194.659 102.589 194.926 103.024 195.278C103.46 195.627 103.818 196.055 104.098 196.562C104.382 197.066 104.568 197.642 104.655 198.29ZM106.585 206V194.363H108.693V199.71H108.835L113.375 194.363H115.949L111.449 199.585L115.989 206H113.455L109.983 201.011L108.693 202.534V206H106.585ZM131.78 200.182C131.78 201.435 131.545 202.509 131.075 203.403C130.609 204.293 129.973 204.975 129.166 205.449C128.363 205.922 127.452 206.159 126.433 206.159C125.414 206.159 124.501 205.922 123.695 205.449C122.892 204.971 122.255 204.288 121.786 203.397C121.32 202.504 121.087 201.432 121.087 200.182C121.087 198.928 121.32 197.856 121.786 196.966C122.255 196.072 122.892 195.388 123.695 194.915C124.501 194.441 125.414 194.204 126.433 194.204C127.452 194.204 128.363 194.441 129.166 194.915C129.973 195.388 130.609 196.072 131.075 196.966C131.545 197.856 131.78 198.928 131.78 200.182ZM129.661 200.182C129.661 199.299 129.522 198.555 129.246 197.949C128.973 197.339 128.594 196.879 128.109 196.568C127.625 196.254 127.066 196.096 126.433 196.096C125.801 196.096 125.242 196.254 124.757 196.568C124.272 196.879 123.892 197.339 123.615 197.949C123.342 198.555 123.206 199.299 123.206 200.182C123.206 201.064 123.342 201.81 123.615 202.42C123.892 203.026 124.272 203.486 124.757 203.801C125.242 204.111 125.801 204.267 126.433 204.267C127.066 204.267 127.625 204.111 128.109 203.801C128.594 203.486 128.973 203.026 129.246 202.42C129.522 201.81 129.661 201.064 129.661 200.182ZM143.335 194.363V206H141.46L135.977 198.074H135.881V206H133.773V194.363H135.659L141.136 202.295H141.239V194.363H143.335ZM145.632 206V194.363H153.2V196.13H147.74V199.29H152.808V201.057H147.74V204.233H153.246V206H145.632ZM159.32 194.363H161.899L165.354 202.795H165.49L168.945 194.363H171.524V206H169.501V198.005H169.393L166.178 205.966H164.666L161.45 197.988H161.342V206H159.32V194.363ZM184.217 200.182C184.217 201.435 183.982 202.509 183.513 203.403C183.047 204.293 182.411 204.975 181.604 205.449C180.801 205.922 179.89 206.159 178.871 206.159C177.852 206.159 176.939 205.922 176.132 205.449C175.329 204.971 174.693 204.288 174.223 203.397C173.757 202.504 173.524 201.432 173.524 200.182C173.524 198.928 173.757 197.856 174.223 196.966C174.693 196.072 175.329 195.388 176.132 194.915C176.939 194.441 177.852 194.204 178.871 194.204C179.89 194.204 180.801 194.441 181.604 194.915C182.411 195.388 183.047 196.072 183.513 196.966C183.982 197.856 184.217 198.928 184.217 200.182ZM182.098 200.182C182.098 199.299 181.96 198.555 181.683 197.949C181.411 197.339 181.032 196.879 180.547 196.568C180.062 196.254 179.503 196.096 178.871 196.096C178.238 196.096 177.679 196.254 177.195 196.568C176.71 196.879 176.329 197.339 176.053 197.949C175.78 198.555 175.643 199.299 175.643 200.182C175.643 201.064 175.78 201.81 176.053 202.42C176.329 203.026 176.71 203.486 177.195 203.801C177.679 204.111 178.238 204.267 178.871 204.267C179.503 204.267 180.062 204.111 180.547 203.801C181.032 203.486 181.411 203.026 181.683 202.42C181.96 201.81 182.098 201.064 182.098 200.182ZM186.21 206V194.363H190.574C191.468 194.363 192.218 194.519 192.824 194.829C193.434 195.14 193.894 195.576 194.205 196.136C194.519 196.693 194.676 197.343 194.676 198.085C194.676 198.831 194.517 199.479 194.199 200.028C193.884 200.574 193.42 200.996 192.807 201.295C192.193 201.591 191.439 201.738 190.545 201.738H187.438V199.988H190.261C190.784 199.988 191.212 199.916 191.545 199.772C191.879 199.625 192.125 199.411 192.284 199.13C192.447 198.846 192.528 198.498 192.528 198.085C192.528 197.672 192.447 197.32 192.284 197.028C192.121 196.733 191.873 196.509 191.54 196.358C191.206 196.202 190.777 196.125 190.25 196.125H188.318V206H186.21ZM192.222 200.727L195.102 206H192.75L189.92 200.727H192.222ZM196.616 206V194.363H204.185V196.13H198.724V199.29H203.793V201.057H198.724V204.233H204.23V206H196.616Z" fill="black"/>
<path d="M163.362 216.757C163.117 216.697 162.835 216.663 162.545 216.663C162.255 216.663 161.972 216.697 161.704 216.762C161.585 215.897 161.197 215.146 160.644 214.55C159.966 213.871 159.025 213.448 157.986 213.448C157.939 213.448 157.891 213.448 157.847 213.451C157.847 213.451 157.836 213.451 157.828 213.451C157.248 213.451 156.694 213.566 156.191 213.776C156.027 213.296 155.761 212.895 155.426 212.559C154.738 211.903 153.8 211.501 152.769 211.501C152.674 211.501 152.579 211.504 152.487 211.512H152.5C153.33 210.425 153.831 209.05 153.831 207.56C153.831 203.936 150.881 201 147.24 201C143.6 201 140.65 203.936 140.65 207.56C140.65 209.693 141.672 211.588 143.257 212.787L143.273 219.777C141.812 219.817 140.494 220.389 139.497 221.302C138 222.926 138 225.445 138 228.594V230.483C138.084 233.441 139.511 236.049 141.696 237.736L142.64 238.67C145.909 242.003 148.915 243 155.875 243C163.467 243 167 238.775 167 229.722V223.136C167 221.116 166.42 217.571 163.362 216.757ZM164.364 222.924V229.72C164.364 238.563 160.963 240.373 155.875 240.373C149.02 240.373 146.911 239.35 144.538 236.883L143.589 235.913C141.857 234.684 140.721 232.724 140.636 230.494C140.636 229.799 140.636 229.169 140.636 228.565C140.549 228.098 140.497 227.56 140.497 227.012C140.497 225.6 140.829 224.265 141.422 223.081C141.912 222.735 142.558 222.483 143.262 222.451L143.27 224.288V223.711L142.374 227.647C142.347 227.705 142.332 227.773 142.332 227.844C142.332 228.114 142.55 228.332 142.822 228.332C143.02 228.332 143.191 228.214 143.27 228.043L145.906 224.865C145.914 224.829 145.92 224.789 145.92 224.747C145.92 224.705 145.914 224.666 145.906 224.627V209.909C145.906 209.877 145.904 209.84 145.904 209.806C145.904 209.134 146.123 208.515 146.492 208.011C146.732 207.759 147.08 207.597 147.465 207.597C147.491 207.597 147.517 207.597 147.544 207.599C148.097 207.599 148.543 208.045 148.543 208.597V208.625V218.778C148.543 219.502 149.133 220.09 149.861 220.09C150.589 220.09 151.179 219.502 151.179 218.778V215.314C151.206 214.655 151.751 214.131 152.418 214.131C152.447 214.131 152.474 214.131 152.503 214.133C152.563 214.12 152.637 214.112 152.711 214.112C153.323 214.112 153.818 214.606 153.818 215.214C153.818 215.241 153.818 215.267 153.816 215.29V218.778C153.816 219.502 154.406 220.09 155.134 220.09C155.861 220.09 156.452 219.502 156.452 218.778V217.098C156.542 216.526 157.032 216.093 157.625 216.093C157.675 216.093 157.725 216.096 157.775 216.104C157.81 216.099 157.854 216.096 157.899 216.096C158.195 216.096 158.463 216.209 158.666 216.392C158.93 216.731 159.088 217.164 159.088 217.634V217.678V219.827C159.096 220.489 159.597 221.032 160.243 221.113C160.298 221.121 160.356 221.124 160.417 221.124C161.052 221.124 161.582 220.688 161.725 220.1C161.793 219.806 161.941 219.565 162.146 219.384C162.233 219.344 162.334 219.321 162.439 219.321C162.545 219.321 162.645 219.344 162.734 219.384C163.736 220.037 164.39 221.152 164.39 222.42C164.39 222.569 164.382 222.716 164.364 222.863L164.366 222.845L164.364 222.924Z" fill="black"/>
</g>
</svg>
